<ttFont>
          <CharString index="0">
            rmoveto
            -77 callgsubr
            32 -137 rlineto
            -14 3 -12 callgsubr
            40 hlineto
            29 12 8 12 5 -1 5 -1 7 hvcurveto
            -163 642 rlineto
            17 -5 -17 8 -33 hhcurveto
            -53 hlineto
            -31 -19 -8 -17 -4 hvcurveto
            -164 -642 rlineto
            -1 -7 -1 -5 -5 vvcurveto
            -12 13 -8 31 vhcurveto
            134 262 rmoveto
            53 233 5 23 4 25 3 23 rlinecurve
            5 hlineto
            3 -23 4 -25 5 -23 54 -233 rcurveline
            return
          </CharString>
          <CharString index="1">
            -1 4 5 -1 4 hhcurveto
            10 6 5 11 8 hvcurveto
            17 11 9 3 9 hhcurveto
            -1 29 54 -32 38 hhcurveto
            41 30 28 41 16 hvcurveto
            2 -49 callsubr
            8 -14 4 vhcurveto
            -9 3 rlineto
            2 -5 -15 callsubr
            -11 -7 -6 -11 -7 hvcurveto
            -16 -12 -9 -3 -9 -29 -54 33 -37 hhcurveto
            -42 -29 -27 -42 -16 hvcurveto
            -3 -7 -8 callsubr
            vvcurveto
            -5 callgsubr
            14 -4 vhcurveto
            return
          </CharString>
          <CharString index="2">
            rmoveto
            42 18 -71 callsubr
            56 vlineto
            19 -19 10 -42 -41 -19 -10 -19 vhcurveto
            -56 vlineto
            -19 19 -10 42 vhcurveto
            return
          </CharString>
          <CharString index="3">
            293 hlineto
            18 7 -70 callgsubr
            -7 13 -18 vhcurveto
            -194 190 172 hlineto
            18 -85 callgsubr
            -18 vhcurveto
            -172 174 193 hlineto
            18 -85 callgsubr
            -18 vhcurveto
            -292 hlineto
            -24 -10 -11 -26 hvcurveto
            -626 vlineto
            -26 10 -11 24 vhcurveto
            return
          </CharString>
          <CharString index="4">
            rmoveto
            60 93 27 41 17 -27 50 -19 hvcurveto
            -11 -34 -34 -58 hhcurveto
            -57 -32 32 85 -4 hvcurveto
            210 hlineto
            13 32 38 15 169 -54 97 -128 -125 -79 -75 -197 -174 68 -91 152 hvcurveto
            -93 301 rmoveto
            105 5 25 36 45 hhcurveto
            45 20 -43 -98 hvcurveto
            return
          </CharString>
          <CharString index="5">
            rmoveto
            12 callgsubr
            56 vlineto
            19 -15 10 -36 -65 callgsubr
            vhcurveto
            -56 -49 callgsubr
            37 vhcurveto
            149 hmoveto
            14 callgsubr
            56 16 callgsubr
            -36 -35 -40 callgsubr
            vhcurveto
            -56 -60 callgsubr
            return
          </CharString>
          <CharString index="6">
            rmoveto
            82 44 52 58 20 -14 7 -18 -14 -7 -8 -11 -4 hvcurveto
            -16 -8 -11 -19 -49 hhcurveto
            -47 -11 17 17 -9 hvcurveto
            12 -6 -6 8 -15 hhcurveto
            -18 -14 -7 -20 -59 44 -51 81 hvcurveto
            return
          </CharString>
          <CharString index="7">
            rmoveto
            131 69 94 174 174 -68 95 -132 -132 -68 -95 -174 -173 68 -95 132 hvcurveto
            101 vmoveto
            -37 callsubr
            120 21 47 51 50 21 -47 -120 -120 -21 -48 -50 hvcurveto
            return
          </CharString>
          <CharString index="8">
            rmoveto
            20 -69 callgsubr
            370 vlineto
            23 -3 22 -5 23 vhcurveto
            5 2 8 -21 8 -22 11 -20 rlinecurve
            207 -382 rlineto
            -20 9 17 -4 22 hhcurveto
            20 hlineto
            14 callgsubr
            646 28 callgsubr
            -88 callsubr
            return
          </CharString>
          <CharString index="9">
            rmoveto
            -23 hlineto
            -25 -19 -5 -14 -3 hvcurveto
            -52 -228 -6 -28 -5 -40 -6 -33 rlinecurve
            -5 hlineto
            -5 34 -6 38 -6 29 -50 226 rcurveline
            18 -3 -19 3 -23 hhcurveto
            -33 hlineto
            -32 -14 -8 -13 -5 1 -7 3 -9 hvcurveto
            121 -415 4 -15 11 -3 12 -1 rlinecurve
            -62 -219 rlineto
            -2 -9 -8 callsubr
            vvcurveto
            -12 15 -8 33 vhcurveto
            20 hlineto
            26 19 6 15 5 hvcurveto
            179 673 rlineto
            1 8 1 5 5 vvcurveto
            13 -15 7 -36 vhcurveto
            return
          </CharString>
          <CharString index="10">
            rmoveto
            -19 1 callgsubr
            -297 vlineto
            -32 -17 -25 -30 -37 hhcurveto
            -44 -23 24 42 hvcurveto
            293 vlineto
            18 -16 10 -37 vhcurveto
            -20 1 callgsubr
            -310 vlineto
            -101 50 -53 97 53 43 23 38 29 vhcurveto
            -31 vlineto
            -103 -32 -43 -76 vhcurveto
            -81 -53 37 -11 hhcurveto
            -7 -9 -9 -26 -8 1 -18 2 -14 hvcurveto
            -35 5 84 -29 98 hhcurveto
            144 60 83 199 hvcurveto
            400 32 callsubr
            -38 vhcurveto
            return
          </CharString>
          <CharString index="11">
            300 0 callgsubr
            15 vlineto
            31 -8 12 -17 vhcurveto
            -170 hlineto
            189 340 rlineto
            1 4 1 3 7 vvcurveto
            24 -15 44 -9 vhcurveto
            -284 hlineto
            -17 -13 callsubr
            -15 -48 callsubr
            17 vhcurveto
            154 hlineto
            -190 -342 rlineto
            -1 -3 -1 -4 -6 vvcurveto
            -24 14 -43 11 vhcurveto
            return
          </CharString>
          <CharString index="12">
            rmoveto
            -46 callgsubr
            24 14 23 21 27 hhcurveto
            36 13 18 callgsubr
            15 -2 callgsubr
            94 -41 51 -77 -57 -45 -34 -41 -27 vhcurveto
            34 -7 2 33 -31 hhcurveto
            -18 -77 -6 -25 hvcurveto
            -11 10 -30 -93 vvcurveto
            -330 -1 callsubr
            return
          </CharString>
          <CharString index="13">
            rmoveto
            57 hlineto
            24 15 6 13 3 hvcurveto
            76 377 13 113 13 -113 75 -377 rlineto
            -13 2 16 -6 24 hhcurveto
            57 hlineto
            26 14 6 13 3 hvcurveto
            135 647 rlineto
            1 6 1 5 3 vvcurveto
            15 -16 9 -37 vhcurveto
            -19 hlineto
            -34 -19 -8 -18 -2 hvcurveto
            -63 -408 -7 -48 -5 -42 -7 -49 rlinecurve
            -7 43 -6 53 -8 43 -71 414 rcurveline
            15 -3 -13 5 -28 hhcurveto
            -39 hlineto
            -28 -12 -5 -15 -3 hvcurveto
            -72 -413 -7 -42 -8 -48 -7 -48 rlinecurve
            -6 45 -5 46 -7 46 -62 408 rcurveline
            18 -3 -19 8 -34 hhcurveto
            -23 hlineto
            -37 -15 -9 -15 -3 -1 -5 1 -6 hvcurveto
            134 -647 rlineto
            -13 3 13 -6 27 hhcurveto
            endchar
          </CharString>
          <CharString index="14">
            rmoveto
            -76 callsubr
            -7 -12 27 -19 -26 vvcurveto
            -17 -10 -15 -32 vhcurveto
            -38 -77 callsubr
            18 77 5 25 hvcurveto
            12 -10 30 93 vvcurveto
            324 vlineto
            53 10 24 33 45 vvcurveto
            return
          </CharString>
          <CharString index="15">
            387 hlineto
            17 8 13 31 hvcurveto
            24 vlineto
            31 -8 13 -17 vhcurveto
            -252 hlineto
            276 500 rlineto
            1 2 -1 3 5 vvcurveto
            24 -17 54 -15 vhcurveto
            -365 hlineto
            -18 -7 -13 -31 hvcurveto
            -23 vlineto
            -32 7 -13 18 vhcurveto
            230 hlineto
            -277 -501 rlineto
            -1 -2 0 -4 -4 vvcurveto
            -25 18 -52 16 vhcurveto
            return
          </CharString>
          <CharString index="16">
            -76 callsubr
            -7 vvcurveto
            1 -12 26 -18 -27 vvcurveto
            -18 -13 -15 -30 vhcurveto
            -43 -99 callgsubr
            148 86 77 132 vhcurveto
            464 vlineto
            54 10 24 33 46 vvcurveto
            return
          </CharString>
          <CharString index="17">
            16 callgsubr
            -37 -27 callsubr
            -37 -39 callgsubr
            return
          </CharString>
          <CharString index="18">
            rmoveto
            102 65 66 96 82 -44 38 -52 29 hvcurveto
            -39 23 -36 17 40 vvcurveto
            30 21 14 29 vhcurveto
            35 25 -21 8 hhcurveto
            15 22 51 21 36 -72 17 -51 -93 -66 -59 -96 -85 48 -35 51 -27 hvcurveto
            42 -23 31 -19 -40 vvcurveto
            -33 -20 -18 -33 vhcurveto
            -43 -27 32 -10 hhcurveto
            -17 -31 -49 -23 -35 72 -29 68 hvcurveto
            return
          </CharString>
          <CharString index="19">
            -20 -83 callgsubr
            -360 vlineto
            -25 3 -25 5 -25 vhcurveto
            -5 -2 -9 24 -9 25 -13 24 rlinecurve
            -198 368 rlineto
            21 -10 -16 4 -21 hhcurveto
            -26 -63 callsubr
            return
          </CharString>
          <CharString index="20">
            rmoveto
            -41 callsubr
            -78 callsubr
            return
          </CharString>
          <CharString index="21">
            rmoveto
            44 40 9 8 20 hvcurveto
            23 9 4 14 16 vvcurveto
            44 -14 42 -30 -11 vhcurveto
            -8 -22 -21 -7 -33 hhcurveto
            -97 -42 80 162 163 44 78 92 31 24 -7 -7 17 hvcurveto
            26 -11 15 52 34 vvcurveto
            1 19 -5 15 -22 7 rrcurveto
            7 -20 -35 6 -37 hhcurveto
            -182 -86 -116 -240 -246 81 -112 184 hvcurveto
            endchar
          </CharString>
          <CharString index="22">
            rmoveto
            193 hlineto
            19 7 11 26 hvcurveto
            13 vlineto
            26 -7 11 -19 vhcurveto
            -193 hlineto
            -18 -8 -11 -26 hvcurveto
            -13 vlineto
            -26 8 -11 18 vhcurveto
            return
          </CharString>
          <CharString index="23">
            rmoveto
            41 13 11 12 10 hvcurveto
            78 104 6 3 12 vvcurveto
            10 -17 3 -33 -33 -29 -6 -20 -10 vhcurveto
            -37 -80 -15 -25 -10 vvcurveto
            -10 5 -4 21 vhcurveto
            152 hmoveto
            42 13 11 12 9 hvcurveto
            79 103 5 4 12 vvcurveto
            10 -16 3 -34 -33 -28 -6 -20 -10 vhcurveto
            -37 -80 -16 -25 -10 vvcurveto
            -10 6 -4 20 vhcurveto
            return
          </CharString>
          <CharString index="24">
            3 callgsubr
            11 31 callsubr
            11 -35 vhcurveto
            -33 hlineto
            -36 -15 -11 -19 hvcurveto
            -646 -36 callgsubr
            -11 36 vhcurveto
            return
          </CharString>
          <CharString index="25">
            -74 callgsubr
            -103 -752 -107 callsubr
            endchar
          </CharString>
          <CharString index="26">
            rmoveto
            41 14 10 13 7 hvcurveto
            46 85 14 23 10 vvcurveto
            11 -16 3 -33 -33 -32 -4 -22 -6 vhcurveto
            -23 -79 -7 -26 -10 vvcurveto
            -10 6 -4 22 vhcurveto
            return
          </CharString>
          <CharString index="27">
            588 -105 callsubr
            return
          </CharString>
          <CharString index="28">
            rmoveto
            -159 hlineto
            13 callsubr
            -26 -16 callgsubr
            63 -173 hlineto
            -5 -17 -19 -2 -22 hhcurveto
            -88 -42 79 165 159 40 81 100 hvcurveto
            70 32 -31 12 hhcurveto
            21 32 55 23 32 -86 36 -87 -183 -88 -116 -242 -244 87 -112 179 79 110 26 51 hvcurveto
            294 vlineto
            25 -11 11 -23 vhcurveto
            return
          </CharString>
          <CharString index="29">
            469 -90 callsubr
            -469 -45 callgsubr
            return
          </CharString>
          <CharString index="30">
            hlineto
            -35 -39 callgsubr
            -354 vlineto
            -24 -14 -23 -21 -28 hhcurveto
            -35 -14 22 40 hvcurveto
            337 vlineto
            19 -14 10 -37 -44 callgsubr
            -363 vlineto
            -91 42 -50 79 56 43 34 41 27 vhcurveto
            -35 callgsubr
            return
          </CharString>
          <CharString index="31">
            30 -21 50 -25 -5 -5 -8 callsubr
            vhcurveto
            -30 -20 rlineto
            -7 -4 -3 -7 return
          </CharString>
          <CharString index="32">
            rmoveto
            34 51 10 31 16 -9 48 -17 hvcurveto
            -6 -8 -4 -12 hhcurveto
            -18 -10 10 31 hvcurveto
            590 vlineto
            18 -16 10 -37 vhcurveto
            -20 1 callgsubr
            -591 vlineto
            -103 53 -38 68 vhcurveto
            return
          </CharString>
          <CharString index="33">
            -17 callsubr
            283 47 vlineto
            -38 callsubr
            -47 98 hlineto
            19 -13 10 -30 vhcurveto
            -24 hlineto
            -28 -18 callsubr
            -2 hvcurveto
            -13 -98 rlineto
            -18 hlineto
            -19 -13 callsubr
            -15 -48 callsubr
            19 vhcurveto
            18 -285 hlineto
            return
          </CharString>
          <CharString index="34">
            192 -7 rmoveto
            47 40 28 43 23 hvcurveto
            -29 5 5 -36 28 hhcurveto
            20 74 7 22 hvcurveto
            16 -12 27 95 vvcurveto
            559 vlineto
            18 -16 -2 callsubr
            -22 hlineto
            -37 -15 -10 -18 hvcurveto
            -231 vlineto
            20 -21 -28 16 -42 hhcurveto
            -102 -64 -95 -171 -171 63 -100 90 hvcurveto
            return
          </CharString>
          <CharString index="35">
            rmoveto
            19 hlineto
            38 -44 callsubr
            332 vlineto
            24 7 23 30 31 23 11 -9 14 hhcurveto
            15 9 58 20 20 -11 28 -41 -42 -27 -34 -41 -20 hvcurveto
            25 -6 -3 42 -29 hhcurveto
            -21 -71 -7 -22 hvcurveto
            -15 12 -27 -94 vvcurveto
            -330 -45 callgsubr
            return
          </CharString>
          <CharString index="36">
            10 19 hvcurveto
            return
          </CharString>
          <CharString index="37">
            182 hlineto
            167 86 108 242 241 -86 109 -167 hvcurveto
            -182 hlineto
            -24 -10 -11 -26 hvcurveto
            -626 vlineto
            -26 10 -11 24 vhcurveto
            101 112 rmoveto
            476 77 vlineto
            79 42 -64 -174 -174 -42 -64 -79 hvcurveto
            return
          </CharString>
          <CharString index="38">
            vhcurveto
            128 -580 -103 callsubr
            endchar
          </CharString>
          <CharString index="39">
            140 294 rmoveto
            15 hlineto
            21 8 6 12 hvcurveto
            378 vlineto
            7 -13 6 -6 vhcurveto
            -124 -25 rlineto
            -9 -2 -4 -5 -8 vvcurveto
            -14 3 -29 14 vhcurveto
            65 13 rlineto
            -321 vlineto
            -12 10 -6 20 vhcurveto
            -10 -295 rmoveto
            15 hlineto
            17 12 7 17 8 29 callgsubr
            2 15 callsubr
            -13 vhcurveto
            -14 hlineto
            -16 -15 -6 -17 -6 hvcurveto
            -281 -656 rlineto
            -3 -5 -3 -5 -3 vvcurveto
            -7 7 -3 11 vhcurveto
            return
          </CharString>
          <CharString index="40">
            39 12 11 22 vhcurveto
            13 11 -5 7 hhcurveto
            18 10 55 8 34 -57 10 -30 -74 -58 -40 -110 hvcurveto
            -86 -18 vlineto
            -18 -8 -13 -30 24 callgsubr
            18 -395 hlineto
            -42 callsubr
            return
          </CharString>
          <CharString index="41">
            vvcurveto
            -26 9 -66 86 21 21 5 9 18 vhcurveto
            11 7 4 10 13 vvcurveto
            21 -9 7 -17 vhcurveto
            return
          </CharString>
          <CharString index="42">
            16 12 15 18 18 -12 15 -16 -16 -12 -15 -18 -18 12 -15 16 hvcurveto
            return
          </CharString>
          <CharString index="43">
            vhcurveto
            -31 -83 callgsubr
            return
          </CharString>
          <CharString index="44">
            -83 callgsubr
            -646 -60 callgsubr
            return
          </CharString>
          <CharString index="45">
            -97 rlineto
            -3 -6 -2 -6 -5 vvcurveto
            -7 5 -4 return
          </CharString>
          <CharString index="46">
            rmoveto
            9 callsubr
            561 122 vlineto
            -13 callgsubr
            -378 hlineto
            13 callsubr
            -26 -16 callgsubr
            122 -561 hlineto
            -19 15 -10 36 vhcurveto
            return
          </CharString>
          <CharString index="47">
            hvcurveto
            -52 -62 callsubr
            15 vhcurveto
            return
          </CharString>
          <CharString index="48">
            rmoveto
            205 hlineto
            11 5 8 17 hvcurveto
            9 vlineto
            17 -5 8 -11 vhcurveto
            -128 hlineto
            93 137 rlineto
            36 48 13 28 36 vvcurveto
            61 -43 42 -75 -49 -60 -19 -30 -14 14 -23 14 vhcurveto
            10 22 27 39 hhcurveto
            32 21 -16 -31 -20 -7 -16 -20 -30 hvcurveto
            -130 -188 rlineto
            -1 -2 -1 -3 -4 vvcurveto
            -15 6 -27 9 vhcurveto
            return
          </CharString>
          <CharString index="49">
            -132 -68 -95 -174 -173 68 -95 132 hvcurveto
            101 vmoveto
            -37 callsubr
            120 21 47 51 50 21 -47 -120 -120 -21 -48 -50 hvcurveto
            endchar
          </CharString>
          <CharString index="50">
            rmoveto
            32 46 rlineto
            4 7 3 5 6 vvcurveto
            15 -30 19 -14 -5 -8 -3 -8 -5 vhcurveto
            -24 -34 rlineto
            22 -30 -38 11 -45 hhcurveto
            -132 -68 -95 -174 -70 11 -58 22 -43 hvcurveto
            -34 -50 rlineto
            -6 -9 -2 -3 -6 vvcurveto
            -16 29 -20 14 5 7 3 8 5 vhcurveto
            26 37 rlineto
            -27 31 41 -14 51 hhcurveto
            131 69 94 174 77 -13 62 -27 44 hvcurveto
            -232 -182 rmoveto
            120 21 47 51 21 16 -8 -19 11 vhcurveto
            -119 -174 rlineto
            -1 11 0 11 12 vvcurveto
            72 -168 rmoveto
            -25 -18 12 27 -12 hvcurveto
            124 180 rlineto
            1 -15 1 -17 -19 vvcurveto
            -120 -21 -48 -50 vhcurveto
            endchar
          </CharString>
          <CharString index="51">
            hmoveto
            -92 callsubr
            return
          </CharString>
          <CharString index="52">
            549 109 rmoveto
            -26 -33 -11 -2 -5 hvcurveto
            50 63 24 89 109 vvcurveto
            228 -94 122 -165 -166 -93 -122 -228 -109 24 -89 49 -63 vhcurveto
            2 -5 -33 11 -25 hhcurveto
            13 callsubr
            -23 -16 callgsubr
            199 11 callgsubr
            18 vlineto
            18 -2 8 -10 5 vhcurveto
            -55 22 -32 83 154 vvcurveto
            160 42 84 81 80 42 -84 -160 -154 -33 -82 -54 -23 vhcurveto
            -8 -6 -3 -7 -18 vvcurveto
            -18 vlineto
            -30 7 -13 19 vhcurveto
            199 hlineto
            18 26 callgsubr
            23 26 callsubr
            -18 vhcurveto
            endchar
          </CharString>
          <CharString index="53">
            15 -71 callsubr
            return
          </CharString>
          <CharString index="54">
            169 375 rmoveto
            62 71 28 138 137 -71 29 -62 -62 -70 -29 -137 -138 72 -28 60 hvcurveto
            12 -379 rmoveto
            27 hlineto
            19 12 8 17 8 hvcurveto
            284 653 rlineto
            2 5 1 5 3 vvcurveto
            10 -8 6 -16 vhcurveto
            -26 hlineto
            -19 -13 -7 -17 -7 hvcurveto
            -284 -652 rlineto
            -3 -7 -8 callsubr
            vvcurveto
            -9 9 -7 15 vhcurveto
            -11 452 rmoveto
            -36 -7 36 57 52 6 39 37 37 6 -39 -52 -57 -7 -36 -36 hvcurveto
            349 -455 rmoveto
            62 71 28 138 137 -71 29 -62 -62 -70 -29 -137 -138 71 -28 61 hvcurveto
            return
          </CharString>
          <CharString index="55">
            165 92 110 248 return
          </CharString>
          <CharString index="56">
            rmoveto
            25 2 51 69 75 vvcurveto
            22 -15 16 -31 vhcurveto
            -16 hlineto
            -32 -14 -16 -24 hvcurveto
            -47 -7 -37 -40 vvcurveto
            -15 27 callgsubr
            return
          </CharString>
          <CharString index="57">
            -74 204 -7 -96 callgsubr
            return
          </CharString>
          <CharString index="58">
            5 2 -32 callgsubr
            return
          </CharString>
          <CharString index="59">
            -18 callgsubr
            -13 return
          </CharString>
          <CharString index="60">
            rmoveto
            -43 -21 53 112 117 24 49 48 23 18 -10 -15 15 hvcurveto
            -256 vlineto
            -29 -16 -23 -21 -25 hhcurveto
            return
          </CharString>
          <CharString index="61">
            rmoveto
            -52 callsubr
            return
          </CharString>
          <CharString index="62">
            66 280 700 rmoveto
            -182 hlineto
            -24 -10 -11 -26 hvcurveto
            -251 -30 29 callsubr
            -25 -16 callgsubr
            30 -264 hlineto
            -26 10 -11 24 vhcurveto
            182 hlineto
            167 86 108 242 241 -86 109 -167 hvcurveto
            -4 -588 rmoveto
            -77 189 53 11 callgsubr
            25 28 callsubr
            -53 176 77 hlineto
            79 42 -64 -174 -174 -42 -64 -79 hvcurveto
            endchar
          </CharString>
          <CharString index="63">
            16 -71 callsubr
            return
          </CharString>
          <CharString index="64">
            -590 -87 callsubr
            return
          </CharString>
          <CharString index="65">
            -10 callsubr
            37 vhcurveto
            return
          </CharString>
          <CharString index="66">
            20 -50 callgsubr
            return
          </CharString>
          <CharString index="67">
            -39 callsubr
            15 -19 callsubr
            return
          </CharString>
          <CharString index="68">
            8 -53 callgsubr
            return
          </CharString>
          <CharString index="69">
            19 -40 callsubr
            -19 vhcurveto
            return
          </CharString>
          <CharString index="70">
            -51 -21 48 120 return
          </CharString>
          <CharString index="71">
            -158 164 -8 -89 callsubr
            return
          </CharString>
          <CharString index="72">
            58 hmoveto
            462 hlineto
            19 10 12 21 hvcurveto
            35 vlineto
            15 -2 11 -5 14 vhcurveto
            -192 576 rlineto
            19 -6 -12 7 -16 hhcurveto
            -53 hlineto
            -17 -12 -8 -18 -5 hvcurveto
            -192 -576 rlineto
            -5 -14 -2 -11 -16 vvcurveto
            -34 vlineto
            -22 10 -11 18 vhcurveto
            104 109 rmoveto
            122 424 rlineto
            9 hlineto
            123 -424 rlineto
            endchar
          </CharString>
          <CharString index="73">
            rmoveto
            7 11 12 25 hhcurveto
            17 17 -8 -16 hvcurveto
            -37 -66 -22 -21 vvcurveto
            -9 28 -12 19 16 81 49 57 52 -45 25 -59 -35 -44 -18 -13 -14 20 -25 8 vhcurveto
            return
          </CharString>
          <CharString index="74">
            -84 callsubr
            -51 return
          </CharString>
          <CharString index="75">
            12 hlineto
            18 9 7 17 3 hvcurveto
            8 61 14 113 8 vvcurveto
            19 -16 10 -37 vhcurveto
            -10 hlineto
            -37 -39 callgsubr
            -7 vlineto
            22 -175 rlineto
            -17 return
          </CharString>
          <CharString index="76">
            296 -7 rmoveto
            158 128 124 234 235 -128 123 -158 -158 -128 -123 -235 -234 128 -124 158 hvcurveto
            59 vmoveto
            -124 -102 98 201 202 102 97 124 123 102 -97 -202 -201 -102 -98 -123 hvcurveto
            return
          </CharString>
          <CharString index="77">
            859 rmoveto
            13 22 13 9 11 hvcurveto
            19 16 10 16 21 vvcurveto
            44 -40 23 -50 -35 -44 -15 -13 -13 19 -26 8 vhcurveto
            8 11 16 32 hhcurveto
            return
          </CharString>
          <CharString index="78">
            vlineto
            -8 callgsubr
            return
          </CharString>
          <CharString index="79">
            -72 callsubr
            endchar
          </CharString>
          <CharString index="80">
            vhcurveto
            -20 hlineto
            return
          </CharString>
          <CharString index="81">
            852 rmoveto
            18 6 3 10 9 -8 21 -27 68 hvcurveto
            21 -9 -29 6 -32 hhcurveto
            -27 -12 -4 -14 -10 8 -9 62 -83 hvcurveto
            -10 return
          </CharString>
          <CharString index="82">
            28 -69 callgsubr
            83 vlineto
            18 -9 callsubr
            -28 hlineto
            -36 -15 -10 -18 hvcurveto
            -83 -60 callgsubr
            endchar
          </CharString>
          <CharString index="83">
            98 hmoveto
            -70 callsubr
            return
          </CharString>
          <CharString index="84">
            19 callgsubr
            36 vhcurveto
            return
          </CharString>
          <CharString index="85">
            -47 callsubr
            endchar
          </CharString>
          <CharString index="86">
            rmoveto
            24 hlineto
            return
          </CharString>
          <CharString index="87">
            -6 -51 callgsubr
            8 4 8 4 -3 6 return
          </CharString>
          <CharString index="88">
            vlineto
            30 -8 13 return
          </CharString>
          <CharString index="89">
            -16 -10 -19 return
          </CharString>
          <CharString index="90">
            -6 -11 -4 -13 hhcurveto
            -18 -11 11 34 hvcurveto
            return
          </CharString>
          <CharString index="91">
            -15 10 -35 vhcurveto
            return
          </CharString>
          <CharString index="92">
            -4 1 -4 hhcurveto
            return
          </CharString>
          <CharString index="93">
            rlineto
            4 10 3 7 6 vvcurveto
            return
          </CharString>
          <CharString index="94">
            -8 -13 -30 hvcurveto
            return
          </CharString>
          <CharString index="95">
            19 26 callgsubr
            12 30 callgsubr
            -103 161 hlineto
            19 -12 10 -29 vhcurveto
            -15 hlineto
            -28 -12 -10 -19 hvcurveto
            -161 -104 29 callsubr
            -12 -16 callgsubr
            104 return
          </CharString>
          <CharString index="96">
            555 rmoveto
            -72 callgsubr
            return
          </CharString>
          <CharString index="97">
            -19 16 -10 return
          </CharString>
          <CharString index="98">
            -15 -2 callsubr
            return
          </CharString>
          <CharString index="99">
            -1 -4 -4 return
          </CharString>
          <CharString index="100">
            hhcurveto
            37 28 28 41 14 hvcurveto
            2 5 1 15 callgsubr
            -9 -7 -6 -11 -7 hvcurveto
            -16 -10 -8 -3 return
          </CharString>
          <CharString index="101">
            rmoveto
            35 27 23 40 41 -27 23 -35 -35 -26 -23 -41 -40 26 -23 35 hvcurveto
            endchar
          </CharString>
          <CharString index="102">
            -5 -15 -8 -71 callgsubr
            return
          </CharString>
          <CharString index="103">
            hhcurveto
            -38 -27 -27 -42 -15 hvcurveto
            -2 13 callgsubr
            return
          </CharString>
          <CharString index="104">
            -43 callsubr
            endchar
          </CharString>
          <CharString index="105">
            10 -36 vhcurveto
            return
          </CharString>
          <CharString index="106">
            -49 callgsubr
            35 vhcurveto
            return
          </CharString>
          <CharString index="107">
            -19 callsubr
            -17 vhcurveto
            return
          </CharString>
          <CharString index="108">
            -35 -8 36 57 52 7 39 36 37 7 -39 -52 -57 -8 -36 -36 hvcurveto
            return
          </CharString>
          <CharString index="109">
            31 60 9 33 10 -10 53 -17 return
          </CharString>
          <CharString index="110">
            12 hlineto
            32 12 -71 callsubr
            324 vlineto
            19 -12 10 -32 vhcurveto
            -12 hlineto
            -31 -13 -10 -19 hvcurveto
            -324 vlineto
            -19 13 -10 31 vhcurveto
            return
          </CharString>
          <CharString index="111">
            hlineto
            -17 -7 -13 -30 hvcurveto
            -7 vlineto
            -12 1 -9 2 -6 vhcurveto
            -2 -7 -1 -9 -12 vvcurveto
            -7 vlineto
            -29 7 -14 17 vhcurveto
            return
          </CharString>
          <CharString index="112">
            -20 callsubr
            -4 6 hvcurveto
            return
          </CharString>
          <CharString index="113">
            hlineto
            -18 -8 -12 -31 hvcurveto
            -8 -16 callgsubr
            endchar
          </CharString>
          <CharString index="114">
            rmoveto
            53 233 5 23 4 25 3 23 rlinecurve
            5 hlineto
            3 -23 4 -25 5 -23 54 -233 rcurveline
            endchar
          </CharString>
          <CharString index="115">
            rmoveto
            -33 callgsubr
            return
          </CharString>
          <CharString index="116">
            32 -69 callgsubr
            return
          </CharString>
          <CharString index="117">
            32 callgsubr
            10 5 return
          </CharString>
          <CharString index="118">
            17 -39 callsubr
            return
          </CharString>
          <CharString index="119">
            -33 hhcurveto
            -39 -27 -27 -42 -14 hvcurveto
            -3 -6 -1 -5 -4 vvcurveto
            -5 callgsubr
            12 -4 vhcurveto
            return
          </CharString>
          <CharString index="120">
            -18 -13 callsubr
            return
          </CharString>
          <CharString index="121">
            -15 vvcurveto
            -15 5 -10 8 -13 vhcurveto
            103 -154 rlineto
            -11 6 8 -3 8 hhcurveto
            return
          </CharString>
          <CharString index="122">
            6 2 4 3 vvcurveto
            7 -5 3 return
          </CharString>
          <CharString index="123">
            16 hlineto
            36 15 16 24 hvcurveto
            78 17 30 20 vvcurveto
            14 -23 5 -16 return
          </CharString>
          <CharString index="124">
            -10 hvcurveto
            -12 -6 -9 -7 -5 vvcurveto
            -10 return
          </CharString>
          <CharString index="125">
            3 rlineto
            2 -4 -4 1 return
          </CharString>
          <CharString index="126">
            49 -32 34 hhcurveto
            37 28 27 42 15 hvcurveto
            1 5 2 4 return
          </CharString>
          <CharString index="127">
            hlineto
            -16 -14 -6 -17 -7 hvcurveto
            -282 -656 rlineto
            -2 -5 return
          </CharString>
          <CharString index="128">
            hlineto
            19 8 10 23 hvcurveto
            7 vlineto
            23 -8 9 -19 vhcurveto
            return
          </CharString>
          <CharString index="129">
            hlineto
            -18 -8 -9 -23 hvcurveto
            -7 vlineto
            -23 8 -10 18 vhcurveto
            return
          </CharString>
          <CharString index="130">
            -4 -15 callsubr
            -9 -7 -6 return
          </CharString>
          <CharString index="131">
            3 -24 hhcurveto
            -7 hlineto
            return
          </CharString>
          <CharString index="132">
            5 11 7 hvcurveto
            17 return
          </CharString>
          <CharString index="133">
            vlineto
            30 -7 13 return
          </CharString>
          <CharString index="134">
            -1 -4 -8 callsubr
            vvcurveto
            -8 6 -6 14 -6 vhcurveto
            return
          </CharString>
          <CharString index="135">
            -19 callsubr
            -18 vhcurveto
            return
          </CharString>
          <CharString index="136">
            vlineto
            13 callsubr
            return
          </CharString>
          <CharString index="137">
            34 hhcurveto
            37 28 28 41 15 hvcurveto
            1 5 1 return
          </CharString>
          <CharString index="138">
            19 hvcurveto
            -19 callgsubr
            -15 return
          </CharString>
          <CharString index="139">
            vlineto
            18 -15 10 return
          </CharString>
          <CharString index="140">
            18 33 19 19 7 -3 7 -4 8 hvcurveto
            return
          </CharString>
        <CharString name=".notdef">
          3 7 hmoveto
          500 700 -500 hlineto
          250 -305 rmoveto
          -171 255 rlineto
          340 hlineto
          -370 -555 rmoveto
          510 vlineto
          171 -255 rlineto
          229 -255 rmoveto
          -169 255 169 255 rlineto
          -369 -555 rmoveto
          169 255 171 -255 rlineto
          endchar
        </CharString>
        <CharString name="A">
          -6 50 -2 -107 callsubr
          endchar
        </CharString>
        <CharString name="AE">
          235 54 -2 -55 callgsubr
        </CharString>
        <CharString name="AEacute">
          235 378 755 rmoveto
          -105 callgsubr
          -324 -757 -55 callgsubr
        </CharString>
        <CharString name="Aacute">
          -6 237 755 rmoveto
          -105 callgsubr
          -187 -757 -107 callsubr
          endchar
        </CharString>
        <CharString name="Abreve">
          -6 252 755 -101 callsubr
          -202 -757 -107 callsubr
          endchar
        </CharString>
        <CharString name="Acircumflex">
          -6 154 750 -107 callgsubr
          -104 -752 -107 callsubr
          endchar
        </CharString>
        <CharString name="Adieresis">
          -6 180 765 -102 callsubr
          -279 -767 -107 callsubr
          endchar
        </CharString>
        <CharString name="Agrave">
          -6 271 755 -100 callgsubr
          -221 -757 -107 callsubr
          endchar
        </CharString>
        <CharString name="Amacron">
          -6 158 779 -85 callsubr
          -108 -781 -107 callsubr
          endchar
        </CharString>
        <CharString name="Aogonek">
          -6 485 -98 8 callsubr
          15 4 21 8 21 hvcurveto
          40 hlineto
          29 12 8 12 5 -1 5 -1 7 hvcurveto
          -163 642 rlineto
          17 -5 -17 8 -33 hhcurveto
          -53 hlineto
          -31 -19 -8 -17 -4 hvcurveto
          -164 -642 rlineto
          -1 -7 -1 -5 -5 vvcurveto
          -12 13 -8 31 vhcurveto
          -77 callgsubr
          31 -133 rlineto
          -22 -37 -7 -39 -23 -66 callsubr
          -301 358 7 callsubr
        </CharString>
        <CharString name="Aring">
          -6 251 732 rmoveto
          -72 callgsubr
          -202 -787 -107 callsubr
          endchar
        </CharString>
        <CharString name="Aringacute">
          -6 239 872 rmoveto
          29 11 -31 callgsubr
          -10 vhcurveto
          -28 -69 -10 -20 -9 vvcurveto
          -10 6 -3 16 vhcurveto
          258 -837 rmoveto
          -163 642 -2 6 -3 6 -6 3 rlinecurve
          15 17 8 23 26 vvcurveto
          55 -35 39 -59 -57 -36 -39 -55 -27 8 -22 15 -17 vhcurveto
          -5 -4 -4 -5 -1 -6 -164 -642 rcurveline
          -1 -7 -1 -5 -5 vvcurveto
          -12 13 -8 31 vhcurveto
          -77 callgsubr
          32 -137 rlineto
          -14 3 -12 callgsubr
          40 hlineto
          29 12 8 12 5 -1 5 -1 7 hvcurveto
          -244 764 rmoveto
          25 15 -16 -26 -26 -15 -14 -25 -26 -14 14 26 -1 hvcurveto
          26 1 14 16 26 hhcurveto
          -69 -539 7 callsubr
        </CharString>
        <CharString name="Atilde">
          -6 124 761 rmoveto
          -106 callsubr
          -64 -767 -107 callsubr
          endchar
        </CharString>
        <CharString name="B">
          28 98 hmoveto
          179 hlineto
          150 72 76 122 100 -58 50 -53 16 hvcurveto
          4 vlineto
          51 26 39 57 77 vvcurveto
          107 -63 65 -140 vhcurveto
          -177 hlineto
          -24 -10 -11 -25 hvcurveto
          -627 vlineto
          -26 10 -11 24 vhcurveto
          94 409 rmoveto
          186 82 vlineto
          52 24 -26 -64 -61 -27 -35 -50 hvcurveto
          -81 -304 rmoveto
          200 90 vlineto
          58 29 -30 -66 -70 -29 -34 -53 hvcurveto
          endchar
        </CharString>
        <CharString name="C">
          -52 306 -7 -86 callsubr
        </CharString>
        <CharString name="CR">
          -271 endchar
        </CharString>
        <CharString name="Cacute">
          -52 281 755 rmoveto
          -105 callgsubr
          25 -762 -86 callsubr
        </CharString>
        <CharString name="Cacute.loclPLK">
          -52 282 755 -81 callsubr
          24 -762 -86 callsubr
        </CharString>
        <CharString name="Ccaron">
          -52 293 753 -104 callgsubr
          13 -760 -86 callsubr
        </CharString>
        <CharString name="Ccedilla">
          -52 393 124 rmoveto
          -8 -22 -21 -7 -33 hhcurveto
          -97 -42 80 162 163 44 78 92 31 24 -7 -7 17 hvcurveto
          26 -11 15 52 34 vvcurveto
          1 19 -5 15 -22 7 rrcurveto
          7 -20 -35 6 -37 hhcurveto
          -182 -86 -116 -240 -232 72 -113 163 -12 hvcurveto
          -18 -50 -5 callsubr
          12 46 34 3 28 7 16 6 rlinecurve
          23 9 4 14 16 vvcurveto
          44 -14 42 -30 -11 vhcurveto
          endchar
        </CharString>
        <CharString name="Ccircumflex">
          -52 198 750 -107 callgsubr
          108 -757 -86 callsubr
        </CharString>
        <CharString name="Cdotaccent">
          -52 298 765 -105 callsubr
          8 -772 -86 callsubr
        </CharString>
        <CharString name="D">
          -24 callgsubr
          endchar
        </CharString>
        <CharString name="Dcaron">
          66 275 753 -104 callgsubr
          -177 -753 rmoveto
          -70 callsubr
          endchar
        </CharString>
        <CharString name="Dcroat">
          -45 callsubr
        </CharString>
        <CharString name="E">
          -54 98 hmoveto
          -104 callsubr
          endchar
        </CharString>
        <CharString name="Eacute">
          -54 231 755 rmoveto
          -105 callgsubr
          -133 -755 rmoveto
          -104 callsubr
          endchar
        </CharString>
        <CharString name="Ebreve">
          -54 246 755 -101 callsubr
          -148 -755 rmoveto
          -104 callsubr
          endchar
        </CharString>
        <CharString name="Ecaron">
          -54 243 753 -104 callgsubr
          -145 -753 rmoveto
          -104 callsubr
          endchar
        </CharString>
        <CharString name="Ecircumflex">
          -54 148 750 -107 callgsubr
          -50 -750 rmoveto
          -104 callsubr
          endchar
        </CharString>
        <CharString name="Edieresis">
          -54 174 765 -102 callsubr
          -225 -765 rmoveto
          -104 callsubr
          endchar
        </CharString>
        <CharString name="Edotaccent">
          -54 248 765 -105 callsubr
          -150 -765 rmoveto
          -104 callsubr
          endchar
        </CharString>
        <CharString name="Egrave">
          -54 265 755 -100 callgsubr
          -167 -755 rmoveto
          -104 callsubr
          endchar
        </CharString>
        <CharString name="Emacron">
          -54 152 779 -85 callsubr
          -54 -779 rmoveto
          -104 callsubr
          endchar
        </CharString>
        <CharString name="Eng">
          79 480 702 rmoveto
          -88 callsubr
          20 -69 callgsubr
          370 vlineto
          23 -3 22 -5 23 vhcurveto
          5 2 8 -21 8 -22 11 -20 rlinecurve
          205 -379 rlineto
          -84 vlineto
          -39 -11 -13 -23 vhcurveto
          -15 -11 5 -6 hhcurveto
          -19 -9 -44 -18 -35 39 -9 50 65 61 42 110 hvcurveto
          733 28 callgsubr
          endchar
        </CharString>
        <CharString name="Eogonek">
          -54 469 -105 8 callgsubr
          27 hvcurveto
          5 7 2 11 16 vvcurveto
          26 26 callsubr
          -18 vhcurveto
          -194 190 172 hlineto
          18 -85 callgsubr
          -18 vhcurveto
          -172 174 193 hlineto
          18 -85 callgsubr
          -18 vhcurveto
          -292 hlineto
          -24 -10 -11 -26 hvcurveto
          -626 vlineto
          -26 10 -11 24 vhcurveto
          248 hlineto
          -16 -33 -5 -32 -20 -66 callsubr
          endchar
        </CharString>
        <CharString name="Eth">
          -45 callsubr
        </CharString>
        <CharString name="Euro">
          -8 310 -7 rmoveto
          94 79 43 37 15 -22 57 -29 hvcurveto
          -15 -34 -37 -66 hhcurveto
          -59 -40 40 86 -16 hvcurveto
          189 21 callsubr
          -198 hlineto
          -1 15 0 14 16 vvcurveto
          12 0 13 1 12 vhcurveto
          198 21 callsubr
          -191 hlineto
          91 16 39 41 63 64 29 -31 12 hhcurveto
          21 32 55 24 27 -72 40 -90 -145 -83 -81 -166 -23 hvcurveto
          -35 22 callsubr
          29 hlineto
          -1 -12 0 -12 -13 vvcurveto
          -15 0 -15 1 -15 vhcurveto
          -29 22 callsubr
          35 hlineto
          -165 23 79 -76 145 hhcurveto
          endchar
        </CharString>
        <CharString name="F">
          -88 115 -2 rmoveto
          31 hlineto
          37 14 -71 callsubr
          275 159 vlineto
          17 -85 callgsubr
          -17 vhcurveto
          -159 174 171 hlineto
          17 -85 callgsubr
          -17 vhcurveto
          -270 hlineto
          -24 -10 -11 -26 hvcurveto
          -636 -60 callgsubr
          endchar
        </CharString>
        <CharString name="G">
          41 462 400 -79 callsubr
          endchar
        </CharString>
        <CharString name="Gbreve">
          41 295 755 -101 callsubr
          167 -355 -79 callsubr
          endchar
        </CharString>
        <CharString name="Gcircumflex">
          41 197 750 -107 callgsubr
          265 -350 -79 callsubr
          endchar
        </CharString>
        <CharString name="Gcommaaccent">
          41 462 400 -79 callsubr
          -144 -451 rmoveto
          -28 callgsubr
          hvcurveto
          -78 -17 -30 -20 vvcurveto
          -14 23 -5 16 28 59 71 78 22 -12 16 -30 vhcurveto
          endchar
        </CharString>
        <CharString name="Gdotaccent">
          41 297 765 -105 callsubr
          165 -365 -79 callsubr
          endchar
        </CharString>
        <CharString name="H">
          89 115 -2 -56 callgsubr
          endchar
        </CharString>
        <CharString name="Hbar">
          75 542 568 rmoveto
          -7 105 hlineto
          -8 callgsubr
          -32 -83 callgsubr
          -105 -203 105 vlineto
          -26 callgsubr
          -33 -83 callgsubr
          -105 -18 vlineto
          -18 -8 -11 -26 hvcurveto
          -13 vlineto
          -26 8 -11 18 vhcurveto
          18 -454 hlineto
          -19 15 -10 36 vhcurveto
          33 -6 callgsubr
          274 203 -274 -60 callgsubr
          9 callsubr
          454 7 vlineto
          19 7 11 26 hvcurveto
          13 vlineto
          26 -7 11 -19 vhcurveto
          -141 -154 rmoveto
          -203 67 203 hlineto
          endchar
        </CharString>
        <CharString name="Hcircumflex">
          89 201 750 -107 callgsubr
          -86 -752 -56 callgsubr
          endchar
        </CharString>
        <CharString name="I">
          -249 115 -3 rmoveto
          -83 callsubr
          endchar
        </CharString>
        <CharString name="IJ">
          106 115 -3 rmoveto
          -83 callsubr
          261 -4 -66 callgsubr
          endchar
        </CharString>
        <CharString name="Iacute">
          -249 115 755 rmoveto
          -105 callgsubr
          -758 vmoveto
          -83 callsubr
          endchar
        </CharString>
        <CharString name="Iacute_J.loclNLD">
          106 115 755 rmoveto
          -105 callgsubr
          356 hmoveto
          -105 callgsubr
          -356 -758 rmoveto
          -83 callsubr
          261 -4 -66 callgsubr
          endchar
        </CharString>
        <CharString name="Ibreve">
          -249 130 755 -101 callsubr
          -15 -758 rmoveto
          -83 callsubr
          endchar
        </CharString>
        <CharString name="Icircumflex">
          -249 32 750 -107 callgsubr
          83 -753 rmoveto
          -83 callsubr
          endchar
        </CharString>
        <CharString name="Idieresis">
          -249 58 765 -102 callsubr
          -92 -768 rmoveto
          -83 callsubr
          endchar
        </CharString>
        <CharString name="Idotaccent">
          -249 132 765 -105 callsubr
          -17 -768 rmoveto
          -83 callsubr
          endchar
        </CharString>
        <CharString name="Igrave">
          -249 149 755 -100 callgsubr
          -34 -758 rmoveto
          -83 callsubr
          endchar
        </CharString>
        <CharString name="Imacron">
          -249 36 779 -85 callsubr
          79 -782 rmoveto
          -83 callsubr
          endchar
        </CharString>
        <CharString name="Iogonek">
          -249 253 -101 8 callsubr
          19 5 27 13 26 hvcurveto
          4 4 2 6 7 vvcurveto
          -19 callgsubr
          -15 11 -35 vhcurveto
          -33 hlineto
          -36 -15 -11 -19 hvcurveto
          -646 -36 callgsubr
          -11 36 vhcurveto
          12 hlineto
          -14 -30 -4 -30 -18 -66 callsubr
          endchar
        </CharString>
        <CharString name="Itilde">
          -249 2 761 rmoveto
          -106 callsubr
          123 -768 rmoveto
          -83 callsubr
          endchar
        </CharString>
        <CharString name="J">
          -156 114 -7 -66 callgsubr
          endchar
        </CharString>
        <CharString name="Jcircumflex">
          -156 126 750 -107 callgsubr
          -12 -757 -66 callgsubr
          endchar
        </CharString>
        <CharString name="K">
          -47 callgsubr
          endchar
        </CharString>
        <CharString name="Kcommaaccent">
          -47 callgsubr
          -281 -270 -81 callgsubr
          endchar
        </CharString>
        <CharString name="L">
          -103 98 hmoveto
          -67 callgsubr
          endchar
        </CharString>
        <CharString name="Lacute">
          -103 117 756 rmoveto
          -105 callgsubr
          -19 -756 rmoveto
          -67 callgsubr
          endchar
        </CharString>
        <CharString name="Lcaron">
          -103 98 hmoveto
          -67 callgsubr
          198 516 -51 callsubr
          endchar
        </CharString>
        <CharString name="Lcommaaccent">
          -103 98 hmoveto
          -67 callgsubr
          91 -238 -81 callgsubr
          endchar
        </CharString>
        <CharString name="Ldot">
          -103 98 hmoveto
          -67 callgsubr
          208 296 -6 callsubr
        </CharString>
        <CharString name="Lslash">
          -103 367 112 rmoveto
          -170 304 hlineto
          1 3 1 4 4 vvcurveto
          11 vlineto
          4 -1 2 -1 1 vhcurveto
          228 vlineto
          19 -14 10 -37 -64 callsubr
          -636 vlineto
          -26 10 -11 24 vhcurveto
          269 hlineto
          18 -85 callgsubr
          -18 vhcurveto
          endchar
        </CharString>
        <CharString name="M">
          178 333 229 rmoveto
          23 hlineto
          17 9 6 14 8 hvcurveto
          88 170 10 17 8 19 7 18 rlinecurve
          4 -1 rlineto
          -3 -20 -3 -21 -20 vvcurveto
          -384 vlineto
          -20 15 -9 36 vhcurveto
          26 hlineto
          37 14 9 20 hvcurveto
          646 vlineto
          20 -14 9 -37 vhcurveto
          -27 hlineto
          -28 -15 -7 -18 -10 hvcurveto
          -136 -262 -8 -15 -6 -17 -3 -16 rlinecurve
          -5 16 -5 17 -8 15 -137 262 rcurveline
          18 -9 -15 7 -28 hhcurveto
          -28 hlineto
          -36 -15 -9 -20 hvcurveto
          -646 vlineto
          -20 15 -9 36 vhcurveto
          27 hlineto
          36 15 9 20 hvcurveto
          384 vlineto
          20 -3 21 -3 20 vhcurveto
          4 1 8 -18 7 -19 9 -17 rlinecurve
          89 -170 rlineto
          -14 7 9 -6 18 hhcurveto
          endchar
        </CharString>
        <CharString name="N">
          79 110 -2 -99 callsubr
          endchar
        </CharString>
        <CharString name="Nacute">
          79 279 755 rmoveto
          -105 callgsubr
          -169 -757 -99 callsubr
          endchar
        </CharString>
        <CharString name="Nacute.loclPLK">
          79 280 755 -81 callsubr
          -170 -757 -99 callsubr
          endchar
        </CharString>
        <CharString name="Ncaron">
          79 291 753 -104 callgsubr
          -181 -755 -99 callsubr
          endchar
        </CharString>
        <CharString name="Ncommaaccent">
          79 110 -2 -99 callsubr
          152 -236 -81 callgsubr
          endchar
        </CharString>
        <CharString name="Ntilde">
          79 166 761 rmoveto
          -106 callsubr
          -46 -767 -99 callsubr
          endchar
        </CharString>
        <CharString name="O">
          88 300 -7 -102 callgsubr
          endchar
        </CharString>
        <CharString name="OE">
          312 759 112 rmoveto
          -205 190 182 hlineto
          18 7 -70 callgsubr
          -7 13 -18 vhcurveto
          -182 174 204 hlineto
          17 7 -70 callgsubr
          -7 13 -17 vhcurveto
          -303 hlineto
          -24 -10 -11 -24 hvcurveto
          -7 vlineto
          35 -39 -43 14 -53 hhcurveto
          -153 -92 -107 -249 -249 93 -109 151 53 43 15 35 40 hvcurveto
          -6 vlineto
          -26 10 -11 24 vhcurveto
          304 hlineto
          16 -85 callgsubr
          -16 vhcurveto
          -460 -7 rmoveto
          -80 -41 63 183 184 41 60 80 80 41 -60 -184 -183 -41 -63 -80 hvcurveto
          endchar
        </CharString>
        <CharString name="Oacute">
          88 284 755 rmoveto
          -105 callgsubr
          16 -762 -102 callgsubr
          endchar
        </CharString>
        <CharString name="Oacute.loclPLK">
          88 285 755 -81 callsubr
          15 -762 -102 callgsubr
          endchar
        </CharString>
        <CharString name="Obreve">
          88 299 755 -101 callsubr
          1 -762 -102 callgsubr
          endchar
        </CharString>
        <CharString name="Ocircumflex">
          88 201 750 -30 callgsubr
          -757 -102 callgsubr
          endchar
        </CharString>
        <CharString name="Odieresis">
          88 227 765 -102 callsubr
          -76 -772 -102 callgsubr
          endchar
        </CharString>
        <CharString name="Ograve">
          88 318 755 -100 callgsubr
          -18 -762 -102 callgsubr
          endchar
        </CharString>
        <CharString name="Ohorn">
          88 300 -7 -88 callgsubr
        </CharString>
        <CharString name="Ohungarumlaut">
          88 199 755 -33 callsubr
          -762 -102 callgsubr
          endchar
        </CharString>
        <CharString name="Omacron">
          88 205 779 -85 callsubr
          95 -786 -102 callgsubr
          endchar
        </CharString>
        <CharString name="Oslash">
          88 498 610 -57 callgsubr
        </CharString>
        <CharString name="Oslashacute">
          88 284 755 rmoveto
          -105 callgsubr
          214 -145 -57 callgsubr
        </CharString>
        <CharString name="Otilde">
          88 171 761 rmoveto
          -106 callsubr
          139 -772 -102 callgsubr
          endchar
        </CharString>
        <CharString name="P">
          114 -2 rmoveto
          27 hlineto
          37 -54 callsubr
          247 83 21 callgsubr
          -170 hlineto
          -25 -11 -11 -26 hvcurveto
          -636 -45 callgsubr
          78 387 rmoveto
          203 69 vlineto
          31 39 -18 -81 -86 -40 -18 -28 hvcurveto
          endchar
        </CharString>
        <CharString name="Q">
          88 526 -162 rmoveto
          29 29 70 14 2 hvcurveto
          7 -3 6 -9 4 vhcurveto
          -158 76 rlineto
          4 vlineto
          92 43 49 107 181 vvcurveto
          247 -92 110 -165 -165 -93 -109 -248 -182 49 -106 95 -47 vhcurveto
          -104 211 115 -73 14 hhcurveto
          -225 265 rmoveto
          -81 -42 63 184 183 42 62 81 79 42 -62 -183 -184 -42 -63 -79 hvcurveto
          endchar
        </CharString>
        <CharString name="R">
          2 114 -2 -48 callgsubr
        </CharString>
        <CharString name="Racute">
          2 236 755 rmoveto
          -105 callgsubr
          -122 -757 -48 callgsubr
        </CharString>
        <CharString name="Rcaron">
          2 248 753 -104 callgsubr
          -134 -755 -48 callgsubr
        </CharString>
        <CharString name="Rcommaaccent">
          2 114 -2 -87 callgsubr
          -39 -634 -81 callgsubr
          endchar
        </CharString>
        <CharString name="S">
          -50 callsubr
          endchar
        </CharString>
        <CharString name="Sacute">
          -74 210 755 rmoveto
          -105 callgsubr
          -6 -762 -96 callgsubr
          endchar
        </CharString>
        <CharString name="Sacute.loclPLK">
          -74 211 755 -81 callsubr
          -7 -762 -96 callgsubr
          endchar
        </CharString>
        <CharString name="Scaron">
          -74 222 753 -104 callgsubr
          -18 -760 -96 callgsubr
          endchar
        </CharString>
        <CharString name="Scedilla">
          -74 418 199 rmoveto
          109 -54 48 -85 47 vhcurveto
          -59 33 -49 21 65 vvcurveto
          39 26 34 59 21 23 -3 -13 31 vhcurveto
          -4 10 8 -3 5 hhcurveto
          21 15 51 25 11 -4 9 -10 7 hvcurveto
          21 -30 -53 13 -45 hhcurveto
          -122 -87 -71 -122 -115 61 -50 92 -49 hvcurveto
          51 -27 45 -25 -62 vvcurveto
          -60 -46 -22 -45 -33 -31 10 18 -29 vhcurveto
          9 -16 -12 8 -9 hhcurveto
          -22 -18 -48 -29 1 hvcurveto
          -13 5 -8 7 -9 vhcurveto
          33 -31 61 -18 58 -2 rrcurveto
          -17 -50 -5 -14 -8 -71 callgsubr
          13 49 rlineto
          110 17 58 83 102 vvcurveto
          endchar
        </CharString>
        <CharString name="Scircumflex">
          -74 127 750 -107 callgsubr
          77 -757 -96 callgsubr
          endchar
        </CharString>
        <CharString name="Scommaaccent">
          -50 callsubr
          -18 -231 -81 callgsubr
          endchar
        </CharString>
        <CharString name="T">
          -57 211 -2 -61 callsubr
          endchar
        </CharString>
        <CharString name="Tbar">
          -72 416 700 rmoveto
          -378 hlineto
          13 callsubr
          -26 -16 callgsubr
          122 -193 -80 hlineto
          -18 -8 -11 -26 hvcurveto
          -13 vlineto
          -26 8 -11 18 vhcurveto
          80 -281 hlineto
          -19 15 -10 36 vhcurveto
          9 callsubr
          281 68 vlineto
          19 7 11 26 hvcurveto
          13 vlineto
          26 -7 11 -19 vhcurveto
          -68 193 122 hlineto
          -13 callgsubr
          endchar
        </CharString>
        <CharString name="Tcaron">
          -57 223 753 -104 callgsubr
          -12 -755 -61 callsubr
          endchar
        </CharString>
        <CharString name="Thorn">
          112 -2 -10 callgsubr
          134 82 21 callgsubr
          -73 86 hlineto
          19 -15 10 -36 vhcurveto
          -31 -63 callsubr
          82 274 rmoveto
          203 67 vlineto
          31 38 -18 -81 -86 -39 -18 -28 hvcurveto
          endchar
        </CharString>
        <CharString name="U">
          72 292 -7 rmoveto
          148 86 77 132 hvcurveto
          471 -29 callsubr
          -30 -99 callgsubr
          vhcurveto
          endchar
        </CharString>
        <CharString name="Uacute">
          72 276 755 rmoveto
          -105 callgsubr
          16 -762 rmoveto
          148 86 77 132 hvcurveto
          471 -29 callsubr
          -30 -99 callgsubr
          vhcurveto
          endchar
        </CharString>
        <CharString name="Ubreve">
          72 291 755 -101 callsubr
          1 -762 rmoveto
          148 86 77 132 hvcurveto
          471 -29 callsubr
          -30 -99 callgsubr
          vhcurveto
          endchar
        </CharString>
        <CharString name="Ucircumflex">
          72 193 750 -30 callgsubr
          -757 rmoveto
          148 86 77 132 hvcurveto
          471 -29 callsubr
          -30 -99 callgsubr
          vhcurveto
          endchar
        </CharString>
        <CharString name="Udieresis">
          72 219 765 -102 callsubr
          -76 -772 rmoveto
          148 86 77 132 hvcurveto
          471 -29 callsubr
          -30 -99 callgsubr
          vhcurveto
          endchar
        </CharString>
        <CharString name="Ugrave">
          72 310 755 -100 callgsubr
          -18 -762 rmoveto
          148 86 77 132 hvcurveto
          471 -29 callsubr
          -30 -99 callgsubr
          vhcurveto
          endchar
        </CharString>
        <CharString name="Uhorn">
          59 597 755 rmoveto
          -91 callsubr
          endchar
        </CharString>
        <CharString name="Uhungarumlaut">
          72 191 755 -33 callsubr
          -762 rmoveto
          148 86 77 132 hvcurveto
          471 -29 callsubr
          -30 -99 callgsubr
          vhcurveto
          endchar
        </CharString>
        <CharString name="Umacron">
          72 197 779 -85 callsubr
          95 -786 rmoveto
          148 86 77 132 hvcurveto
          471 -29 callsubr
          -30 -99 callgsubr
          vhcurveto
          endchar
        </CharString>
        <CharString name="Uogonek">
          72 526 202 rmoveto
          471 -29 callsubr
          -30 -99 callgsubr
          24 23 2 4 21 vhcurveto
          -11 -27 -3 -25 -17 -66 callsubr
          9 callgsubr
          27 hvcurveto
          62 34 34 61 83 vvcurveto
          endchar
        </CharString>
        <CharString name="Uring">
          72 290 732 rmoveto
          -72 callgsubr
          1 -792 rmoveto
          148 86 77 132 hvcurveto
          471 -29 callsubr
          -30 -99 callgsubr
          vhcurveto
          endchar
        </CharString>
        <CharString name="Utilde">
          72 163 761 rmoveto
          -106 callsubr
          139 -772 rmoveto
          148 86 77 132 hvcurveto
          471 -29 callsubr
          -30 -99 callgsubr
          vhcurveto
          endchar
        </CharString>
        <CharString name="V">
          -3 220 -2 rmoveto
          66 hlineto
          25 19 5 14 4 hvcurveto
          160 648 rlineto
          2 7 1 5 5 vvcurveto
          13 -17 7 -35 vhcurveto
          -28 hlineto
          -25 -20 -6 -18 -4 hvcurveto
          -105 -480 -9 -63 rlineto
          -4 hlineto
          -9 63 -102 480 rlineto
          18 -4 -19 6 -25 hhcurveto
          -30 hlineto
          -35 -17 -8 -12 -5 2 -5 2 -7 hvcurveto
          159 -648 rlineto
          -14 4 -12 callgsubr
          endchar
        </CharString>
        <CharString name="W">
          241 188 -2 -94 callsubr
        </CharString>
        <CharString name="Wacute">
          241 360 755 rmoveto
          -105 callgsubr
          -172 -757 -94 callsubr
        </CharString>
        <CharString name="Wcircumflex">
          241 277 750 -107 callgsubr
          -89 -752 -94 callsubr
        </CharString>
        <CharString name="Wdieresis">
          241 303 765 -102 callsubr
          -264 -767 -94 callsubr
        </CharString>
        <CharString name="Wgrave">
          241 394 755 -100 callgsubr
          -206 -757 -94 callsubr
        </CharString>
        <CharString name="X">
          -5 66 -2 rmoveto
          34 hlineto
          25 18 1 17 7 hvcurveto
          106 265 99 -265 rlineto
          -14 5 20 -4 24 hhcurveto
          35 hlineto
          37 17 7 11 7 -4 6 -4 10 hvcurveto
          -148 326 142 296 -14 callsubr
          12 -17 6 -36 vhcurveto
          -35 hlineto
          -26 -18 -2 -16 -6 hvcurveto
          -92 -241 -85 241 rlineto
          15 -6 -19 3 -24 hhcurveto
          -37 hlineto
          -37 -17 -7 -11 -7 4 -7 4 -9 hvcurveto
          134 -296 -153 -326 rlineto
          -4 -11 -3 -6 -6 vvcurveto
          -12 15 -6 38 vhcurveto
          endchar
        </CharString>
        <CharString name="Y">
          -27 227 -2 -90 callgsubr
        </CharString>
        <CharString name="Y.loclGUA">
          -13 393 701 -97 callsubr
          endchar
        </CharString>
        <CharString name="Yacute">
          -27 226 755 rmoveto
          -105 callgsubr
          1 -757 -90 callgsubr
        </CharString>
        <CharString name="Yacute.loclGUA">
          -13 230 755 rmoveto
          -105 callgsubr
          163 -54 -97 callsubr
          endchar
        </CharString>
        <CharString name="Ycircumflex">
          -27 143 750 -107 callgsubr
          84 -752 -90 callgsubr
        </CharString>
        <CharString name="Ycircumflex.loclGUA">
          -13 147 750 -107 callgsubr
          246 -49 -97 callsubr
          endchar
        </CharString>
        <CharString name="Ydieresis">
          -27 169 765 -102 callsubr
          -91 -767 -90 callgsubr
        </CharString>
        <CharString name="Ydieresis.loclGUA">
          -13 173 765 -102 callsubr
          71 -64 -97 callsubr
          endchar
        </CharString>
        <CharString name="Ygrave">
          -27 260 755 -100 callgsubr
          -33 -757 -90 callgsubr
        </CharString>
        <CharString name="Ygrave.loclGUA">
          -13 264 755 -100 callgsubr
          129 -54 -97 callsubr
          endchar
        </CharString>
        <CharString name="Z">
          -4 61 -56 callsubr
          endchar
        </CharString>
        <CharString name="Zacute">
          -4 240 755 rmoveto
          -105 callgsubr
          -179 -755 rmoveto
          -92 callsubr
          endchar
        </CharString>
        <CharString name="Zacute.loclPLK">
          -4 241 755 -81 callsubr
          -180 -755 rmoveto
          -92 callsubr
          endchar
        </CharString>
        <CharString name="Zcaron">
          -4 252 753 -104 callgsubr
          -191 -753 rmoveto
          -92 callsubr
          endchar
        </CharString>
        <CharString name="Zdotaccent">
          -4 257 765 -105 callsubr
          -196 -765 rmoveto
          -92 callsubr
          endchar
        </CharString>
        <CharString name="a">
          -30 183 -7 -103 callgsubr
        </CharString>
        <CharString name="aacute">
          -30 222 578 rmoveto
          -105 callgsubr
          -39 -41 callgsubr
        </CharString>
        <CharString name="abreve">
          -30 237 578 -93 callgsubr
        </CharString>
        <CharString name="acircumflex">
          -30 139 573 -107 callgsubr
          44 -580 -103 callgsubr
        </CharString>
        <CharString name="acute">
          -255 66 578 rmoveto
          -105 callgsubr
          endchar
        </CharString>
        <CharString name="acute.loclPLK">
          -255 73 578 -81 callsubr
          endchar
        </CharString>
        <CharString name="acutecomb">
          -511 -62 578 rmoveto
          -105 callgsubr
          endchar
        </CharString>
        <CharString name="adieresis">
          -30 165 588 -102 callsubr
          -131 -595 -103 callgsubr
        </CharString>
        <CharString name="ae">
          153 174 -7 -58 callgsubr
        </CharString>
        <CharString name="aeacute">
          153 323 578 rmoveto
          -105 callgsubr
          -149 -585 -58 callgsubr
        </CharString>
        <CharString name="agrave">
          -30 256 578 -100 callgsubr
          -73 -41 callgsubr
        </CharString>
        <CharString name="amacron">
          -30 143 602 -85 callsubr
          40 -609 -103 callgsubr
        </CharString>
        <CharString name="ampersand">
          9 486 98 rmoveto
          -5 -5 -4 -12 hhcurveto
          -17 -7 13 41 hvcurveto
          170 35 vlineto
          11 callsubr
          16 0 callsubr
          -35 98 hlineto
          19 -13 10 -30 vhcurveto
          -27 hlineto
          -29 -18 callsubr
          -2 hvcurveto
          -11 -98 rlineto
          -72 hlineto
          -47 -30 46 50 45 14 45 43 hvcurveto
          19 14 -8 6 hhcurveto
          14 16 38 33 27 -53 11 -39 -101 -64 -63 -109 -71 28 -52 46 -24 hvcurveto
          -4 vlineto
          -67 -25 -25 -65 -90 vvcurveto
          -141 70 -70 112 64 35 16 25 48 vhcurveto
          -30 20 28 -11 41 hhcurveto
          25 55 3 39 8 -10 55 -16 hvcurveto
          -342 107 rmoveto
          79 22 34 66 vhcurveto
          80 -187 hlineto
          -9 vlineto
          -19 -39 -26 -9 -31 hhcurveto
          -47 -25 33 78 hvcurveto
          endchar
        </CharString>
        <CharString name="aogonek">
          -30 484 -88 8 callsubr
          18 5 25 11 24 hvcurveto
          3 3 2 3 4 15 -12 28 95 vvcurveto
          199 vlineto
          99 -56 66 -132 -82 -81 -31 -32 -18 28 -52 18 vhcurveto
          13 36 32 60 hhcurveto
          51 19 -27 -41 hvcurveto
          -27 vlineto
          -177 -68 -79 -106 -97 50 -59 90 57 38 31 29 20 hvcurveto
          -29 7 6 -25 23 hhcurveto
          5 7 0 1 8 hvcurveto
          -11 -27 -3 -25 -16 -66 callsubr
          -196 219 rmoveto
          -25 -16 -25 -16 -29 hhcurveto
          -39 -19 26 41 69 51 26 77 hvcurveto
          endchar
        </CharString>
        <CharString name="approxequal">
          -73 377 253 rmoveto
          8 10 6 12 3 14 rrcurveto
          1 5 1 5 4 vvcurveto
          8 -4 6 -16 5 vhcurveto
          -8 3 rlineto
          2 -3 -3 0 -4 hhcurveto
          -6 -8 -4 -12 -7 hvcurveto
          -19 -12 -19 -2 -11 -32 -79 34 -31 hhcurveto
          -55 -37 -28 -45 -11 hvcurveto
          27 callsubr
          -9 -10 -6 -13 -3 -14 rrcurveto
          27 callsubr
          8 -3 rlineto
          -1 4 3 -1 3 hhcurveto
          7 7 4 12 8 hvcurveto
          20 12 19 1 10 33 79 -34 31 hhcurveto
          55 37 28 44 10 hvcurveto
          1 5 1 5 4 vvcurveto
          8 -4 6 -15 5 vhcurveto
          endchar
        </CharString>
        <CharString name="aring">
          -30 236 -11 callsubr
          -54 -615 -103 callgsubr
        </CharString>
        <CharString name="aringacute">
          -30 222 767 rmoveto
          -105 callgsubr
          14 -212 rmoveto
          -72 callgsubr
          -54 -615 -103 callgsubr
        </CharString>
        <CharString name="arrowdown">
          -6 253 9 rmoveto
          8 5 2 5 5 hvcurveto
          210 212 rlineto
          13 14 6 13 19 vvcurveto
          75 vlineto
          12 -2 7 -5 -3 -5 -4 -6 -6 vhcurveto
          -180 -183 rlineto
          503 vlineto
          18 -11 10 -28 vhcurveto
          -16 hlineto
          -27 -12 -10 -18 hvcurveto
          -503 vlineto
          -178 183 rlineto
          6 -6 -5 4 -3 hhcurveto
          -5 -2 -7 -12 hvcurveto
          -76 vlineto
          -18 5 -14 13 -13 vhcurveto
          211 -212 rlineto
          -5 5 5 -2 8 hhcurveto
          endchar
        </CharString>
        <CharString name="arrowleft">
          89 239 hmoveto
          55 hlineto
          16 9 2 7 4 -4 7 -9 11 hvcurveto
          -155 186 rlineto
          412 hlineto
          18 10 12 27 hvcurveto
          16 vlineto
          28 -10 11 -18 vhcurveto
          -412 hlineto
          153 185 rlineto
          10 12 4 7 4 vvcurveto
          6 -8 3 -17 vhcurveto
          -55 hlineto
          -20 -12 -6 -13 -12 hvcurveto
          -187 -227 rlineto
          -4 -5 -2 -4 -9 vvcurveto
          -7 2 -5 4 -6 vhcurveto
          188 -227 rlineto
          -14 11 12 -5 21 hhcurveto
          endchar
        </CharString>
        <CharString name="arrowright">
          89 307 hmoveto
          55 hlineto
          20 12 5 14 12 hvcurveto
          187 227 rlineto
          5 6 1 5 7 vvcurveto
          9 -2 4 -4 5 vhcurveto
          -187 227 rlineto
          13 -12 -12 6 -20 hhcurveto
          -55 hlineto
          -17 -8 -3 -6 -4 4 -7 10 -12 hvcurveto
          153 -185 rlineto
          -412 hlineto
          -18 -10 -11 -28 hvcurveto
          -16 vlineto
          -27 10 -12 18 vhcurveto
          412 hlineto
          -155 -186 rlineto
          -8 -11 -4 -7 -4 vvcurveto
          -7 8 -2 17 vhcurveto
          endchar
        </CharString>
        <CharString name="arrowup">
          -6 244 -3 rmoveto
          16 hlineto
          28 11 -71 callsubr
          517 vlineto
          179 -183 rlineto
          -6 6 5 -4 3 hhcurveto
          5 2 7 12 hvcurveto
          76 vlineto
          19 -5 13 -14 13 vhcurveto
          -210 212 rlineto
          5 -5 -5 2 -8 hhcurveto
          -8 -5 -2 -5 -5 hvcurveto
          -210 -212 rlineto
          -14 -14 -5 -13 -19 vvcurveto
          -75 vlineto
          -12 2 -7 5 3 5 4 6 6 vhcurveto
          179 183 rlineto
          -517 vlineto
          -19 12 -10 27 vhcurveto
          endchar
        </CharString>
        <CharString name="asciicircum">
          -151 52 319 rmoveto
          20 hlineto
          22 13 8 19 6 hvcurveto
          67 226 67 -226 rlineto
          -19 6 15 -8 22 hhcurveto
          19 hlineto
          19 7 6 11 4 -1 5 -1 5 hvcurveto
          -105 309 rlineto
          19 -6 -11 7 -17 hhcurveto
          -27 hlineto
          -17 -11 -7 -19 -6 hvcurveto
          -105 -309 rlineto
          -2 -5 -1 -5 -4 vvcurveto
          -11 8 -6 19 vhcurveto
          endchar
        </CharString>
        <CharString name="asciitilde">
          -74 75 219 rmoveto
          -1 5 5 -1 5 hhcurveto
          11 8 5 11 9 hvcurveto
          17 13 11 3 10 hhcurveto
          -1 36 63 -32 45 hhcurveto
          48 36 28 41 19 hvcurveto
          2 5 1 -22 callgsubr
          -6 8 -15 4 vhcurveto
          -12 3 rlineto
          2 -5 -4 1 -6 hhcurveto
          -12 -9 -6 -11 -8 hvcurveto
          -16 -14 -10 -3 -11 -36 -62 33 -44 hhcurveto
          -49 -36 -27 -42 -18 hvcurveto
          -3 -7 -8 callsubr
          vvcurveto
          -5 callgsubr
          16 -4 vhcurveto
          endchar
        </CharString>
        <CharString name="asterisk">
          -212 78 420 rmoveto
          7 1 8 4 6 10 48 76 rcurveline
          49 -76 6 -10 7 -4 7 -1 rlinecurve
          12 18 13 11 6 -2 6 -5 8 hvcurveto
          -52 83 70 26 rlineto
          13 6 7 5 10 vvcurveto
          17 -11 15 -15 -3 -5 0 -3 -6 vhcurveto
          -63 -24 rlineto
          83 vlineto
          18 -8 8 -19 -18 -8 -8 -18 vhcurveto
          -83 vlineto
          -64 24 rlineto
          3 -6 -5 0 -4 hhcurveto
          -17 -7 -18 -14 -10 7 -5 12 -6 hvcurveto
          69 -26 -50 -83 -6 -8 -3 -6 1 -6 rlinecurve
          -11 18 -13 12 vhcurveto
          endchar
        </CharString>
        <CharString name="at">
          281 441 707 rmoveto
          -217 -169 -205 -264 -214 112 -148 163 43 99 11 39 21 -5 8 -9 hvcurveto
          -18 -32 -29 -73 hhcurveto
          -132 -87 126 185 237 142 182 181 136 91 -107 -170 -132 -51 -118 -57 -15 -15 9 26 hvcurveto
          27 27 278 11 vvcurveto
          13 -10 10 -29 vhcurveto
          -10 hlineto
          -30 -5 -10 -29 -9 hvcurveto
          18 -15 -31 25 -41 hhcurveto
          -97 -66 -109 -160 -128 54 -53 60 43 37 25 39 21 hvcurveto
          -39 10 33 -25 51 hhcurveto
          119 87 144 179 199 -114 128 -172 hvcurveto
          -15 -505 rmoveto
          -40 -17 -22 -18 -21 hhcurveto
          -29 -18 23 78 105 23 71 56 20 16 -11 -11 10 hvcurveto
          -9 -47 -7 -98 -2 -52 rrcurveto
          endchar
        </CharString>
        <CharString name="atilde">
          -30 109 584 rmoveto
          -106 callsubr
          84 -595 -103 callgsubr
        </CharString>
        <CharString name="b">
          289 -7 rmoveto
          92 62 100 169 173 -63 95 -103 -43 -28 -17 -20 -20 hvcurveto
          232 32 callsubr
          -37 vhcurveto
          -22 hlineto
          -37 -15 -10 -18 hvcurveto
          -698 -1 callsubr
          10 hlineto
          25 17 4 17 5 hvcurveto
          9 45 rlineto
          -43 24 43 -28 46 hhcurveto
          -39 104 rmoveto
          -25 -22 19 27 -17 hvcurveto
          260 vlineto
          15 15 19 10 23 hhcurveto
          47 24 -45 -120 -115 -21 -51 -43 hvcurveto
          endchar
        </CharString>
        <CharString name="backslash">
          -222 222 -21 rmoveto
          29 hlineto
          21 11 8 13 4 -1 4 -3 19 hvcurveto
          -178 647 rlineto
          19 -5 -14 9 -22 hhcurveto
          -27 hlineto
          -22 -10 -8 -13 -1 hvcurveto
          -4 1 -3 3 -16 vhcurveto
          177 -652 rlineto
          -19 5 14 -8 22 hhcurveto
          endchar
        </CharString>
        <CharString name="bar">
          -311 95 -139 rmoveto
          12 hlineto
          32 12 9 19 hvcurveto
          852 vlineto
          19 -12 9 -32 vhcurveto
          -12 hlineto
          -31 -13 -9 -19 hvcurveto
          -852 vlineto
          -19 13 -9 31 vhcurveto
          endchar
        </CharString>
        <CharString name="braceleft">
          -262 172 -138 rmoveto
          41 hlineto
          19 8 11 25 hvcurveto
          11 vlineto
          25 -8 10 -17 1 vhcurveto
          -7 hlineto
          -21 -6 16 29 hvcurveto
          187 vlineto
          75 -34 46 -29 17 vhcurveto
          30 18 33 46 74 vvcurveto
          187 vlineto
          31 7 14 23 vhcurveto
          5 hlineto
          17 1 7 11 24 vvcurveto
          11 vlineto
          25 -8 11 -19 vhcurveto
          -41 hlineto
          -47 -45 -39 -77 hvcurveto
          -183 vlineto
          -57 -8 -31 -31 -15 vhcurveto
          -18 -10 -9 -11 -24 vvcurveto
          -12 vlineto
          -24 9 -11 18 -10 vhcurveto
          31 -15 8 -31 -57 vvcurveto
          -183 vlineto
          -78 45 -38 47 vhcurveto
          endchar
        </CharString>
        <CharString name="braceright">
          -262 42 -138 rmoveto
          41 hlineto
          47 45 38 78 hvcurveto
          183 vlineto
          57 8 31 31 15 vhcurveto
          18 10 10 11 24 vvcurveto
          12 vlineto
          24 -10 11 -18 10 vhcurveto
          -31 15 -8 31 57 vvcurveto
          183 vlineto
          77 -45 39 -47 vhcurveto
          -41 hlineto
          -18 -8 -11 -25 hvcurveto
          -11 vlineto
          -24 7 -11 17 -1 vhcurveto
          5 hlineto
          23 7 -14 -31 hvcurveto
          -187 vlineto
          -74 32 -46 30 -18 vhcurveto
          -29 -17 -33 -46 -75 vvcurveto
          -187 vlineto
          -29 -7 -16 -21 vhcurveto
          -6 hlineto
          -17 -1 -8 -10 -25 vvcurveto
          -11 vlineto
          -25 8 -11 18 vhcurveto
          endchar
        </CharString>
        <CharString name="bracketleft">
          -272 88 -138 rmoveto
          105 hlineto
          18 7 11 25 hvcurveto
          11 vlineto
          26 -7 11 -18 vhcurveto
          -40 738 40 hlineto
          18 7 11 25 hvcurveto
          12 vlineto
          25 -7 11 -18 vhcurveto
          -105 hlineto
          -23 -10 -11 -26 hvcurveto
          -832 vlineto
          -26 10 -11 23 vhcurveto
          endchar
        </CharString>
        <CharString name="bracketright">
          -272 47 -138 rmoveto
          105 hlineto
          23 10 11 26 hvcurveto
          832 vlineto
          26 -10 11 -23 vhcurveto
          -105 hlineto
          -18 -8 -11 -25 hvcurveto
          -12 vlineto
          -25 8 -11 18 vhcurveto
          40 -738 -40 hlineto
          -18 -8 -11 -26 hvcurveto
          -11 vlineto
          -25 8 -11 18 vhcurveto
          endchar
        </CharString>
        <CharString name="breve">
          -255 126 -78 callgsubr
          endchar
        </CharString>
        <CharString name="brokenbar">
          -311 95 388 rmoveto
          3 callsubr
          -528 vmoveto
          3 callsubr
          endchar
        </CharString>
        <CharString name="bullet">
          -213 149 197 rmoveto
          65 54 41 88 88 -54 42 -65 -66 -53 -42 -88 -88 53 -41 66 hvcurveto
          endchar
        </CharString>
        <CharString name="c">
          -103 249 -7 -80 callgsubr
        </CharString>
        <CharString name="cacute">
          -103 215 578 rmoveto
          -105 callgsubr
          34 -585 -80 callgsubr
        </CharString>
        <CharString name="cacute.loclPLK">
          -103 216 578 -81 callsubr
          33 -585 -80 callgsubr
        </CharString>
        <CharString name="caron">
          -255 121 576 -104 callgsubr
          endchar
        </CharString>
        <CharString name="caron.alt">
          -255 76 516 -51 callsubr
          endchar
        </CharString>
        <CharString name="ccaron">
          -103 227 576 -104 callgsubr
          22 -583 -80 callgsubr
        </CharString>
        <CharString name="ccedilla">
          -103 393 55 rmoveto
          20 -21 48 -19 -4 -5 -4 -4 -8 vhcurveto
          -8 -15 -24 -13 -36 hhcurveto
          -64 -29 47 122 122 33 44 61 33 23 -13 -8 15 hvcurveto
          -4 7 5 -3 4 hhcurveto
          17 23 49 19 33 -69 28 -69 -138 -75 -81 -188 -171 62 -84 120 -12 hvcurveto
          -18 -50 -5 callsubr
          13 47 rlineto
          53 7 63 24 29 vvcurveto
          endchar
        </CharString>
        <CharString name="ccircumflex">
          -103 132 573 -107 callgsubr
          117 -580 -80 callgsubr
        </CharString>
        <CharString name="cdotaccent">
          -103 232 -80 callsubr
          17 -595 -80 callgsubr
        </CharString>
        <CharString name="cedilla">
          -255 157 -52 rmoveto
          16 59 rlineto
          -56 hlineto
          -21 -61 -6 -16 -9 -71 callgsubr
          endchar
        </CharString>
        <CharString name="cent">
          -71 393 55 rmoveto
          20 -21 48 -19 -4 -5 -4 -4 -8 vhcurveto
          -8 -15 -24 -13 -36 hhcurveto
          -3 335 4 hlineto
          33 23 -13 -8 15 hvcurveto
          -4 7 5 -3 4 hhcurveto
          17 23 49 19 32 -64 27 -67 2 hvcurveto
          30 vlineto
          18 -8 8 -17 -16 -8 -8 -18 vhcurveto
          -33 vlineto
          -111 -16 -60 -82 -168 vvcurveto
          -166 58 -84 113 -15 vhcurveto
          -48 vlineto
          -17 8 -8 18 15 8 8 17 vhcurveto
          45 vlineto
          55 3 80 27 32 vvcurveto
          -225 208 rmoveto
          80 14 46 27 23 vhcurveto
          -302 vlineto
          -28 23 -13 48 82 vvcurveto
          endchar
        </CharString>
        <CharString name="circumflex">
          -255 27 573 -107 callgsubr
          endchar
        </CharString>
        <CharString name="colon">
          -323 80 -27 callgsubr
          -387 vmoveto
          -25 callsubr
        </CharString>
        <CharString name="comma">
          -323 42 -122 -4 callgsubr
        </CharString>
        <CharString name="copyright">
          81 -31 callsubr
          9 95 rmoveto
          32 68 18 27 9 -12 35 -16 hvcurveto
          -6 -23 -26 -43 hhcurveto
          -47 -23 47 95 94 23 46 48 hvcurveto
          42 17 -22 6 hhcurveto
          11 19 33 14 21 -54 17 -40 -98 -49 -67 -136 -141 47 -64 98 hvcurveto
          endchar
        </CharString>
        <CharString name="currency">
          -49 95 97 rmoveto
          9 7 3 8 8 hvcurveto
          21 21 rlineto
          -17 26 30 -11 32 hhcurveto
          33 30 11 19 26 hvcurveto
          22 -23 rlineto
          -8 7 9 -3 7 hhcurveto
          8 8 4 7 7 hvcurveto
          20 20 rlineto
          7 6 4 9 7 vvcurveto
          9 -4 7 -8 8 vhcurveto
          -29 30 rlineto
          14 29 8 32 35 vvcurveto
          36 -8 34 -15 29 vhcurveto
          32 33 rlineto
          8 8 4 8 8 vvcurveto
          8 -4 7 -7 7 vhcurveto
          -20 20 rlineto
          8 -8 -8 3 -7 hhcurveto
          -8 -8 -4 -7 -7 hvcurveto
          -26 -26 rlineto
          17 -25 -30 11 -32 hhcurveto
          -32 -29 -11 -17 -24 hvcurveto
          -26 26 rlineto
          8 -8 -8 4 -8 hhcurveto
          -7 -8 -4 -7 -7 hvcurveto
          -21 -21 rlineto
          -7 -7 -3 -8 -7 vvcurveto
          -8 4 -9 7 -7 vhcurveto
          32 -31 rlineto
          -16 -29 -8 -35 -37 vvcurveto
          -35 8 -34 14 -29 vhcurveto
          -28 -28 rlineto
          -7 -8 -4 -8 -8 vvcurveto
          -8 3 -7 7 -7 vhcurveto
          21 -20 rlineto
          -8 7 8 -3 7 hhcurveto
          133 100 rmoveto
          -41 -33 35 68 69 33 35 41 41 32 -35 -69 -68 -32 -35 -41 hvcurveto
          endchar
        </CharString>
        <CharString name="d">
          -30 -73 callsubr
          40 104 -22 callsubr
        </CharString>
        <CharString name="dagger">
          23 callgsubr
          525 103 vlineto
          -12 callsubr
          -525 hlineto
          -19 12 -10 28 vhcurveto
          endchar
        </CharString>
        <CharString name="daggerdbl">
          23 callgsubr
          159 103 vlineto
          19 26 callgsubr
          12 30 callgsubr
          -103 268 103 hlineto
          -12 callsubr
          -268 -104 hlineto
          13 callsubr
          -12 -16 callgsubr
          104 -159 hlineto
          -19 12 -10 28 vhcurveto
          endchar
        </CharString>
        <CharString name="dcaron">
          -30 -73 callsubr
          292 523 -51 callsubr
          -252 -419 -22 callsubr
        </CharString>
        <CharString name="dcroat">
          -44 457 675 rmoveto
          -35 50 hlineto
          18 -16 -2 callsubr
          -22 hlineto
          -37 -15 -10 -18 hvcurveto
          -50 -68 vlineto
          -22 -9 -11 -26 hvcurveto
          -13 vlineto
          -26 9 -11 22 vhcurveto
          68 -94 hlineto
          20 -21 -28 16 -42 hhcurveto
          -102 -64 -95 -171 -171 63 -100 90 47 40 28 43 23 hvcurveto
          -29 5 5 -36 28 hhcurveto
          20 74 7 22 hvcurveto
          16 -12 27 95 vvcurveto
          422 35 vlineto
          23 8 11 26 hvcurveto
          13 vlineto
          26 -8 11 -23 vhcurveto
          -161 -528 rmoveto
          -29 -16 -23 -21 -25 hhcurveto
          -43 -21 53 112 117 24 49 48 23 18 -10 -15 15 hvcurveto
          endchar
        </CharString>
        <CharString name="degree">
          -235 137 442 rmoveto
          59 47 43 89 90 -47 43 -59 -59 -47 -43 -90 -89 47 -43 59 hvcurveto
          -1 56 rmoveto
          -27 -20 25 51 51 20 26 27 27 20 -26 -51 -51 -20 -25 -27 hvcurveto
          endchar
        </CharString>
        <CharString name="dieresis">
          -255 55 588 -102 callsubr
          endchar
        </CharString>
        <CharString name="divide">
          -63 218 335 rmoveto
          10 -69 callgsubr
          64 vlineto
          19 -15 9 -36 vhcurveto
          -10 hlineto
          -36 -15 -9 -19 hvcurveto
          -64 -60 callgsubr
          -174 -154 rmoveto
          361 hlineto
          18 6 -53 callgsubr
          7 vlineto
          30 -6 13 -18 vhcurveto
          -361 hlineto
          -17 -7 -13 -30 hvcurveto
          -7 vlineto
          -30 7 -13 17 vhcurveto
          174 -183 rmoveto
          10 -69 callgsubr
          64 vlineto
          18 -9 callsubr
          -10 hlineto
          -36 -15 -10 -18 hvcurveto
          -64 -60 callgsubr
          endchar
        </CharString>
        <CharString name="dollar">
          -71 217 -74 rmoveto
          12 hlineto
          12 7 6 13 hvcurveto
          51 vlineto
          104 22 64 74 108 vvcurveto
          129 -87 40 -72 36 vhcurveto
          -9 5 rlineto
          185 vlineto
          24 22 -5 -10 26 hvcurveto
          -3 8 10 -4 7 hhcurveto
          23 12 56 24 -2 hvcurveto
          -1 11 -6 9 -13 7 -29 17 -40 9 -41 2 rrcurveto
          36 vlineto
          13 -2 -4 6 -14 hhcurveto
          -11 hlineto
          -13 -7 -6 -13 1 hvcurveto
          -37 vlineto
          -103 -14 -66 -73 -107 vvcurveto
          -130 82 -45 87 -38 vhcurveto
          -194 vlineto
          -46 1 -33 12 -39 24 rrcurveto
          2 -6 -5 3 -5 hhcurveto
          -24 -14 -53 -30 3 hvcurveto
          2 -22 25 -15 24 -9 33 -17 38 -8 47 -1 rrcurveto
          -48 vlineto
          -13 1 4 -6 14 hhcurveto
          -19 509 rmoveto
          -29 18 -21 25 -1 36 rrcurveto
          30 13 30 38 14 vhcurveto
          50 -473 rmoveto
          158 vlineto
          26 -15 24 -20 -44 vvcurveto
          -38 -20 -29 -30 -12 vhcurveto
          endchar
        </CharString>
        <CharString name="dotaccent">
          -255 130 -80 callsubr
          endchar
        </CharString>
        <CharString name="dotbelowcomb">
          -511 5 -194 -105 callsubr
          endchar
        </CharString>
        <CharString name="dotlessi">
          -257 117 -2 -73 callgsubr
        </CharString>
        <CharString name="e">
          -57 259 -7 -103 callsubr
          endchar
        </CharString>
        <CharString name="eacute">
          -57 215 578 rmoveto
          -105 callgsubr
          44 -585 -103 callsubr
          endchar
        </CharString>
        <CharString name="ebreve">
          -57 230 -78 callgsubr
          29 -585 -103 callsubr
          endchar
        </CharString>
        <CharString name="ecaron">
          -57 227 576 -104 callgsubr
          32 -583 -103 callsubr
          endchar
        </CharString>
        <CharString name="ecircumflex">
          -57 132 573 -107 callgsubr
          127 -580 -103 callsubr
          endchar
        </CharString>
        <CharString name="edieresis">
          -57 158 588 -102 callsubr
          -48 -595 -103 callsubr
          endchar
        </CharString>
        <CharString name="edotaccent">
          -57 232 -80 callsubr
          27 -595 -103 callsubr
          endchar
        </CharString>
        <CharString name="egrave">
          -57 249 578 -100 callgsubr
          10 -585 -103 callsubr
          endchar
        </CharString>
        <CharString name="eight">
          -52 232 -7 rmoveto
          134 65 93 109 102 -46 48 -53 33 hvcurveto
          44 25 41 44 87 vvcurveto
          107 -73 66 -109 -115 -72 -71 -110 -78 34 -43 42 -32 vhcurveto
          -49 -28 -43 -52 -96 vvcurveto
          -120 68 -84 132 vhcurveto
          12 436 rmoveto
          -43 23 -35 26 53 vvcurveto
          51 32 24 36 37 30 -25 -52 -44 -20 -32 -37 -24 vhcurveto
          -12 -335 rmoveto
          -46 -34 32 75 58 22 33 35 26 hvcurveto
          53 -28 48 -28 -71 vvcurveto
          -53 -30 -44 -48 vhcurveto
          endchar
        </CharString>
        <CharString name="ellipsis">
          41 80 -2 rmoveto
          24 -69 callgsubr
          83 vlineto
          18 -9 callsubr
          -24 hlineto
          -36 -15 -10 -18 hvcurveto
          -83 -60 callgsubr
          184 hmoveto
          24 -69 callgsubr
          83 vlineto
          18 -9 callsubr
          -24 hlineto
          -36 -15 -10 -18 hvcurveto
          -83 -60 callgsubr
          184 hmoveto
          24 -69 callgsubr
          83 vlineto
          18 -9 callsubr
          -24 hlineto
          -36 -15 -10 -18 hvcurveto
          -83 -60 callgsubr
          endchar
        </CharString>
        <CharString name="emacron">
          -57 136 602 -85 callsubr
          123 -609 -103 callsubr
          endchar
        </CharString>
        <CharString name="emdash">
          375 26 218 rmoveto
          834 11 callgsubr
          8 vlineto
          31 -8 12 -18 vhcurveto
          -834 6 callsubr
        </CharString>
        <CharString name="endash">
          -68 26 218 rmoveto
          391 11 callgsubr
          8 vlineto
          31 -8 12 -18 vhcurveto
          -391 6 callsubr
        </CharString>
        <CharString name="eng">
          300 -212 rmoveto
          66 62 42 110 hvcurveto
          445 vlineto
          94 -41 51 -77 -57 -45 -34 -41 -27 vhcurveto
          34 -7 2 33 -31 hhcurveto
          -18 -77 -6 -25 hvcurveto
          -11 10 -30 -93 vvcurveto
          -330 -1 callsubr
          -46 callgsubr
          24 14 23 21 27 hhcurveto
          36 13 -23 -42 hvcurveto
          -419 vlineto
          -39 -10 -13 -19 vhcurveto
          -15 -11 5 -6 hhcurveto
          -18 -9 -44 -18 -35 38 -9 50 hvcurveto
          endchar
        </CharString>
        <CharString name="eogonek">
          -57 425 -100 rmoveto
          17 callgsubr
          27 12 19 15 19 vvcurveto
          17 -27 50 -19 vhcurveto
          -11 -34 -34 -58 hhcurveto
          -57 -32 32 85 -4 hvcurveto
          210 hlineto
          13 32 38 15 169 -54 97 -128 -125 -79 -75 -197 -174 68 -91 152 12 13 1 2 14 hvcurveto
          -13 -29 -4 -29 -18 -66 callsubr
          -184 535 rmoveto
          45 20 -43 -98 hvcurveto
          -140 hlineto
          105 5 25 36 45 hhcurveto
          endchar
        </CharString>
        <CharString name="equal">
          -62 417 262 rmoveto
          30 -7 13 -16 vhcurveto
          -338 4 callsubr
          338 10 callgsubr
        </CharString>
        <CharString name="estimated">
          104 312 707 rmoveto
          -159 -131 -125 -227 -232 135 -130 163 81 77 39 65 55 hvcurveto
          6 8 4 6 8 vvcurveto
          11 -14 16 -15 -8 -6 -6 -9 -8 vhcurveto
          -52 -38 -73 -31 -61 hhcurveto
          -55 -51 17 33 -40 hvcurveto
          257 419 vlineto
          227 -127 125 -154 vhcurveto
          -138 -98 rmoveto
          31 39 47 17 52 hhcurveto
          49 46 -17 -32 38 hvcurveto
          -203 -271 vlineto
          endchar
        </CharString>
        <CharString name="eth">
          -34 339 610 rmoveto
          51 7 rlineto
          13 2 6 5 8 vvcurveto
          15 -15 23 -18 -3 -35 -5 -4 -33 vhcurveto
          -14 18 -11 14 -13 10 rrcurveto
          7 -9 -11 5 -14 hhcurveto
          -49 -6 rlineto
          -13 -2 -5 -4 -6 vvcurveto
          -9 20 -23 13 -18 vhcurveto
          -53 -8 rlineto
          -13 -2 -5 -4 -9 vvcurveto
          -18 16 -20 18 3 2 0 9 65 vhcurveto
          14 -23 12 -24 10 -24 rrcurveto
          1 -10 -10 1 -9 hhcurveto
          -132 -68 -94 -171 -173 68 -95 132 131 69 95 173 133 -44 125 -56 91 hvcurveto
          -100 -516 rmoveto
          -37 callsubr
          117 21 46 51 50 21 -47 -116 -120 -21 -48 -50 hvcurveto
          endchar
        </CharString>
        <CharString name="exclam">
          -265 118 215 rmoveto
          8 hlineto
          36 6 10 19 2 hvcurveto
          14 144 15 144 14 144 rrcurveto
          17 -18 9 -33 vhcurveto
          -38 -83 callgsubr
          -429 vlineto
          -19 9 -10 36 vhcurveto
          -11 -217 rmoveto
          -25 callsubr
        </CharString>
        <CharString name="exclamdown">
          -265 114 -27 callgsubr
          -28 -565 rmoveto
          38 -69 callgsubr
          430 vlineto
          18 -7 -2 callsubr
          -9 hlineto
          -36 -5 -10 -18 -2 hvcurveto
          -16 -144 -28 -266 -23 vvcurveto
          -16 18 -10 32 vhcurveto
          endchar
        </CharString>
        <CharString name="f">
          -225 129 -2 rmoveto
          -41 callsubr
          395 45 vlineto
          18 -40 callsubr
          -18 vhcurveto
          -45 84 hlineto
          -67 callsubr
          endchar
        </CharString>
        <CharString name="f_f">
          61 522 657 rmoveto
          13 11 -5 7 hhcurveto
          18 10 55 8 34 -57 10 -30 -74 -58 -40 -110 hvcurveto
          -86 -160 84 vlineto
          -67 callsubr
          -41 callsubr
          395 160 -395 -45 callgsubr
          -41 callsubr
          395 45 vlineto
          18 -40 callsubr
          -18 vhcurveto
          -45 84 hlineto
          39 12 11 22 vhcurveto
          endchar
        </CharString>
        <CharString name="f_t">
          73 540 98 rmoveto
          -17 callsubr
          283 47 vlineto
          -38 callsubr
          -47 98 hlineto
          19 -13 10 -30 vhcurveto
          -24 hlineto
          -28 -18 callsubr
          -2 hvcurveto
          -13 -98 rlineto
          -153 84 hlineto
          -67 callsubr
          -41 callsubr
          395 153 -285 vlineto
          -106 55 -38 66 2 callsubr
          vhcurveto
          endchar
        </CharString>
        <CharString name="fi">
          29 423 523 rmoveto
          -221 84 hlineto
          -67 callsubr
          -41 callsubr
          395 148 -395 -45 callgsubr
          -41 callsubr
          469 vlineto
          19 -16 8 -37 vhcurveto
          -8 65 -105 callsubr
          endchar
        </CharString>
        <CharString name="five">
          -52 199 -7 rmoveto
          106 118 52 169 170 -100 50 -121 hvcurveto
          -25 hlineto
          11 165 rlineto
          183 hlineto
          18 8 11 25 hvcurveto
          22 28 callsubr
          -261 hlineto
          -26 -11 -11 -26 -1 hvcurveto
          -19 -294 rlineto
          -26 8 -11 26 vhcurveto
          88 hlineto
          84 36 -43 -77 -76 -43 -42 -57 hvcurveto
          -69 -41 36 -11 hhcurveto
          -19 -29 -51 -18 -35 72 -33 101 hvcurveto
          endchar
        </CharString>
        <CharString name="fl">
          45 129 -2 rmoveto
          -41 callsubr
          395 45 vlineto
          18 -40 callsubr
          -18 vhcurveto
          -45 84 hlineto
          -67 callsubr
          337 -5 -11 callgsubr
        </CharString>
        <CharString name="florin">
          -182 52 -207 rmoveto
          23 hlineto
          39 14 10 19 2 hvcurveto
          63 596 rlineto
          57 hlineto
          34 2 68 6 19 -7 9 -15 hvcurveto
          -61 hlineto
          10 83 rlineto
          43 5 18 11 27 17 10 -4 7 hhcurveto
          18 18 50 13 1 hvcurveto
          40 -52 3 -33 -78 -71 -40 -114 -13 vhcurveto
          -9 -85 rlineto
          -28 hlineto
          -35 -2 -63 -12 -19 7 -8 15 hvcurveto
          32 hlineto
          -31 -320 -32 -269 -8 vvcurveto
          -18 11 -10 37 vhcurveto
          endchar
        </CharString>
        <CharString name="four">
          -52 309 -2 rmoveto
          26 -6 callgsubr
          124 37 vlineto
          -38 callsubr
          -37 421 hlineto
          -26 callgsubr
          -40 hlineto
          -24 -20 -2 -18 -9 hvcurveto
          -233 -442 rlineto
          -1 -2 -1 -4 -5 vvcurveto
          -24 17 -54 15 vhcurveto
          220 -124 hlineto
          -19 15 -10 35 vhcurveto
          -181 254 rmoveto
          136 266 4 -1 rlineto
          -6 -46 -3 -38 -48 vvcurveto
          -133 vlineto
          endchar
        </CharString>
        <CharString name="fraction">
          -300 -57 -1 rmoveto
          16 hlineto
          17 12 7 18 9 hvcurveto
          287 648 rlineto
          3 6 2 5 4 vvcurveto
          9 -6 5 -10 vhcurveto
          -16 hlineto
          -16 -14 -7 -18 -7 hvcurveto
          -288 -648 rlineto
          -3 -6 -2 -5 -4 vvcurveto
          -9 6 -5 10 vhcurveto
          endchar
        </CharString>
        <CharString name="g">
          -40 224 -212 -95 callgsubr
        </CharString>
        <CharString name="g.ss01">
          -40 364 525 -91 callgsubr
        </CharString>
        <CharString name="gbreve">
          -40 229 -78 callgsubr
          -5 -790 -95 callgsubr
        </CharString>
        <CharString name="gbreve.ss01">
          -40 233 -78 callgsubr
          131 -53 -91 callgsubr
        </CharString>
        <CharString name="gcircumflex">
          -40 131 573 -107 callgsubr
          93 -785 -95 callgsubr
        </CharString>
        <CharString name="gcircumflex.ss01">
          -40 135 573 -107 callgsubr
          229 -48 -91 callgsubr
        </CharString>
        <CharString name="gcommaaccent">
          -74 250 765 rmoveto
          -28 -59 -71 -78 -22 12 -16 30 hvcurveto
          16 callsubr
          vhcurveto
          -26 -977 -95 callgsubr
        </CharString>
        <CharString name="gcommaaccent.ss01">
          -54 223 578 rmoveto
          16 callsubr
          -28 -59 -71 -78 -22 12 -16 30 vhcurveto
          141 -53 -91 callgsubr
        </CharString>
        <CharString name="gdotaccent">
          -40 231 -80 callsubr
          -7 -800 -95 callgsubr
        </CharString>
        <CharString name="gdotaccent.ss01">
          -40 235 -80 callsubr
          129 -63 -91 callgsubr
        </CharString>
        <CharString name="germandbls">
          -31 111 -2 rmoveto
          22 hlineto
          36 -44 callsubr
          497 vlineto
          48 23 29 40 37 21 -27 -62 -61 -24 -36 -33 vhcurveto
          -4 hlineto
          -16 -8 -14 -29 24 callgsubr
          7 hlineto
          43 28 -34 -75 -72 -26 -32 -39 hvcurveto
          -13 hlineto
          -18 -8 -12 -31 24 callgsubr
          19 hlineto
          113 72 71 134 91 -31 54 -65 26 hvcurveto
          4 vlineto
          51 25 29 55 70 vvcurveto
          125 -84 52 -102 -121 -70 -77 -118 vhcurveto
          -485 -45 callgsubr
          endchar
        </CharString>
        <CharString name="grave">
          -255 188 578 -100 callgsubr
          endchar
        </CharString>
        <CharString name="gravecomb">
          -511 19 578 -100 callgsubr
          endchar
        </CharString>
        <CharString name="greater">
          -63 57 14 rmoveto
          333 176 rlineto
          17 9 6 11 20 vvcurveto
          18 vlineto
          20 -6 11 -17 9 vhcurveto
          -325 171 rlineto
          -28 15 -6 -14 -28 vvcurveto
          -15 vlineto
          -31 6 -12 18 -11 vhcurveto
          225 -124 -227 -125 rlineto
          -19 -13 -4 -8 -33 vvcurveto
          -15 vlineto
          -28 4 -15 23 12 vhcurveto
          endchar
        </CharString>
        <CharString name="greaterequal">
          -58 33 159 rmoveto
          -30 1 -12 25 12 vhcurveto
          332 163 rlineto
          17 9 8 10 20 vvcurveto
          18 vlineto
          20 -8 11 -17 8 vhcurveto
          -330 162 rlineto
          -24 11 -2 -9 -32 vvcurveto
          -9 vlineto
          -34 5 -9 16 -9 vhcurveto
          225 -119 -225 -120 rlineto
          -16 -8 -7 -11 -20 vvcurveto
          23 -181 rmoveto
          335 hlineto
          4 callgsubr
        </CharString>
        <CharString name="guillemotleft">
          -106 160 52 rmoveto
          33 callsubr
          -92 146 92 146 rlineto
          4 8 3 7 6 vvcurveto
          21 -35 18 -16 -9 -7 -3 -10 -6 vhcurveto
          -103 -155 rlineto
          -8 -12 -5 -11 14 callsubr
          167 hmoveto
          33 callsubr
          -91 146 91 146 rlineto
          4 8 3 7 6 vvcurveto
          21 -34 18 -17 -8 -8 -3 -10 -7 vhcurveto
          -101 -155 rlineto
          -9 -13 -5 -10 -15 vvcurveto
          -15 5 -10 9 -13 vhcurveto
          101 -154 rlineto
          -11 7 8 -3 8 hhcurveto
          endchar
        </CharString>
        <CharString name="guillemotright">
          -106 80 52 rmoveto
          7 9 3 11 6 hvcurveto
          102 154 rlineto
          9 13 5 10 15 vvcurveto
          15 -5 10 -9 13 vhcurveto
          -102 155 rlineto
          10 -6 -8 22 callgsubr
          91 -146 -91 20 callgsubr
          167 hmoveto
          7 8 3 11 6 hvcurveto
          103 154 rlineto
          9 13 4 10 15 vvcurveto
          15 -4 11 -9 12 vhcurveto
          -103 155 rlineto
          10 -6 -7 22 callgsubr
          92 -146 -92 20 callgsubr
          endchar
        </CharString>
        <CharString name="guilsinglleft">
          -264 160 52 rmoveto
          18 36 20 19 7 -3 6 -4 8 hvcurveto
          -92 146 92 145 rlineto
          4 9 3 6 7 vvcurveto
          21 -37 18 -17 -8 -8 -3 -10 -6 vhcurveto
          -103 -155 rlineto
          -8 -13 -5 -10 14 callsubr
          endchar
        </CharString>
        <CharString name="guilsinglright">
          -264 81 52 rmoveto
          8 8 3 11 7 hvcurveto
          102 154 rlineto
          8 13 5 10 15 vvcurveto
          15 -5 10 -8 13 vhcurveto
          -102 155 rlineto
          10 -7 -8 3 -8 hhcurveto
          -16 -37 -18 -21 -7 2 -6 5 -9 hvcurveto
          91 -145 -91 -146 rlineto
          -5 -8 -2 -6 -7 vvcurveto
          -19 35 -20 18 vhcurveto
          endchar
        </CharString>
        <CharString name="h">
          -26 112 -2 -59 callgsubr
          endchar
        </CharString>
        <CharString name="hbar">
          -40 313 530 rmoveto
          -55 -42 -30 -37 -27 hvcurveto
          125 64 vlineto
          23 8 11 26 hvcurveto
          13 vlineto
          26 -8 11 -23 vhcurveto
          -64 50 hlineto
          18 -16 callsubr
          -27 hlineto
          -36 -15 -10 -18 hvcurveto
          -50 -37 vlineto
          -22 -9 -11 -26 hvcurveto
          -13 vlineto
          -26 9 -11 22 vhcurveto
          37 -561 hlineto
          -19 15 -10 36 vhcurveto
          2 callgsubr
          23 27 32 hhcurveto
          36 15 18 callgsubr
          14 -2 callgsubr
          99 -47 46 -71 vhcurveto
          endchar
        </CharString>
        <CharString name="hcircumflex">
          -26 27 781 -107 callgsubr
          85 -783 -59 callgsubr
          endchar
        </CharString>
        <CharString name="hookabovecomb">
          -511 -222 568 -98 callgsubr
          endchar
        </CharString>
        <CharString name="hungarumlaut">
          -204 10 578 -84 callsubr
          endchar
        </CharString>
        <CharString name="hyphen">
          -255 45 218 rmoveto
          166 0 callgsubr
          8 vlineto
          31 -8 12 -17 vhcurveto
          -166 hlineto
          -17 -8 -12 -31 hvcurveto
          -8 -48 callsubr
          17 vhcurveto
          endchar
        </CharString>
        <CharString name="i">
          -54 callgsubr
          endchar
        </CharString>
        <CharString name="i.loclTRK">
          -54 callgsubr
          endchar
        </CharString>
        <CharString name="iacute">
          -257 112 578 rmoveto
          -105 callgsubr
          5 -580 -73 callgsubr
        </CharString>
        <CharString name="iacute_j.loclNLD">
          -8 112 578 rmoveto
          -105 callgsubr
          254 hmoveto
          -105 callgsubr
          -249 -580 -87 callsubr
          202 -210 -84 callgsubr
        </CharString>
        <CharString name="ibreve">
          -257 127 -78 callgsubr
          -10 -580 -73 callgsubr
        </CharString>
        <CharString name="icircumflex">
          -257 29 573 -107 callgsubr
          88 -575 -73 callgsubr
        </CharString>
        <CharString name="idieresis">
          -257 55 588 -102 callsubr
          -87 -3 callsubr
        </CharString>
        <CharString name="igrave">
          -257 146 578 -100 callgsubr
          -29 -580 -73 callgsubr
        </CharString>
        <CharString name="ij">
          -8 129 -80 callsubr
          254 hmoveto
          42 18 -71 callsubr
          56 vlineto
          19 -19 10 -42 -41 -19 -10 -19 vhcurveto
          -56 vlineto
          -19 19 -10 42 vhcurveto
          -266 -43 callsubr
          202 -210 -84 callgsubr
        </CharString>
        <CharString name="imacron">
          -257 33 602 -85 callsubr
          84 -604 -73 callgsubr
        </CharString>
        <CharString name="infinity">
          119 459 447 rmoveto
          -53 -56 -30 -78 -33 hvcurveto
          64 -26 -49 44 -61 hhcurveto
          -83 -60 -69 -98 -96 57 -72 79 52 56 30 79 33 hvcurveto
          -65 26 49 -44 61 hhcurveto
          84 60 69 98 96 -58 72 -78 hvcurveto
          -274 -239 rmoveto
          -33 -18 31 42 43 22 30 31 24 24 -20 -58 20 hvcurveto
          -42 -17 -27 -26 -26 hhcurveto
          261 -3 rmoveto
          -24 -24 20 58 -21 hvcurveto
          42 17 27 26 27 hhcurveto
          33 18 -31 -42 -43 -23 -30 -30 hvcurveto
          endchar
        </CharString>
        <CharString name="integral">
          -213 68 -167 rmoveto
          94 50 84 171 hvcurveto
          177 -11 178 164 vvcurveto
          126 13 51 35 vhcurveto
          20 8 -8 7 hhcurveto
          15 14 26 31 40 -62 7 -21 -95 -50 -84 -172 hvcurveto
          -180 11 -175 -164 vvcurveto
          -126 -13 -50 -36 vhcurveto
          -19 -8 7 -7 hhcurveto
          -16 -14 -26 -30 -40 62 -7 23 hvcurveto
          endchar
        </CharString>
        <CharString name="iogonek">
          -38 callgsubr
          111 -694 8 callgsubr
          26 hvcurveto
          7 5 3 7 8 vvcurveto
          -78 callsubr
          -16 -32 -5 -33 -19 -66 callsubr
          endchar
        </CharString>
        <CharString name="itilde">
          -283 5 584 32 callgsubr
          9 6 25 callsubr
          11 7 3 9 hhcurveto
          -1 27 48 -32 35 -7 callsubr
          -9 -27 -48 33 -34 -4 callsubr
          122 -3 callsubr
        </CharString>
        <CharString name="j">
          -262 129 -80 callsubr
          -64 -800 -84 callgsubr
        </CharString>
        <CharString name="jcircumflex">
          -262 29 573 -107 callgsubr
          36 -785 -84 callgsubr
        </CharString>
        <CharString name="k">
          -43 callgsubr
          endchar
        </CharString>
        <CharString name="kcommaaccent">
          -43 callgsubr
          -188 -83 rmoveto
          -28 callgsubr
          hvcurveto
          -78 -17 -30 -20 vvcurveto
          -14 23 -5 16 28 59 71 78 22 -12 16 -30 vhcurveto
          endchar
        </CharString>
        <CharString name="kgreenlandic">
          -59 115 -2 rmoveto
          25 -6 callgsubr
          220 6 vlineto
          109 -232 rlineto
          -14 7 17 -3 24 hhcurveto
          40 hlineto
          33 14 5 10 4 -1 6 -5 9 hvcurveto
          -132 253 114 202 rlineto
          6 12 2 6 4 vvcurveto
          10 -13 6 -34 vhcurveto
          -36 hlineto
          -23 -16 -1 -16 -7 hvcurveto
          -100 -197 rlineto
          -5 185 hlineto
          19 -15 10 -35 -44 callgsubr
          -469 -60 callgsubr
          endchar
        </CharString>
        <CharString name="l">
          -241 180 -7 -11 callgsubr
        </CharString>
        <CharString name="lacute">
          -241 106 775 rmoveto
          -105 callgsubr
          74 -782 -11 callgsubr
        </CharString>
        <CharString name="lcaron">
          -241 180 -7 -75 callsubr
          82 524 -51 callsubr
          endchar
        </CharString>
        <CharString name="lcommaaccent">
          -241 180 -7 -75 callsubr
          -58 -231 -81 callgsubr
          endchar
        </CharString>
        <CharString name="ldot">
          -202 180 -7 -75 callsubr
          89 303 -6 callsubr
        </CharString>
        <CharString name="less">
          -63 384 14 rmoveto
          23 -12 4 15 28 vvcurveto
          15 vlineto
          33 -4 8 -19 13 vhcurveto
          -227 125 225 124 rlineto
          18 11 6 12 31 vvcurveto
          15 vlineto
          28 -6 14 -28 -15 vhcurveto
          -325 -171 rlineto
          -17 -9 -6 -11 -20 vvcurveto
          -18 vlineto
          -20 6 -11 17 -9 vhcurveto
          endchar
        </CharString>
        <CharString name="lessequal">
          -58 385 129 rmoveto
          26 30 rlineto
          22 vlineto
          20 -7 11 -16 8 vhcurveto
          -225 120 225 119 rlineto
          16 9 5 9 34 vvcurveto
          9 vlineto
          32 -2 9 -24 -11 vhcurveto
          -330 -162 rlineto
          -17 -8 -8 -11 -20 vvcurveto
          -18 vlineto
          -20 8 -10 17 -9 vhcurveto
          335 -292 rmoveto
          4 callgsubr
        </CharString>
        <CharString name="logicalnot">
          -62 358 74 rmoveto
          34 hlineto
          23 10 10 18 hvcurveto
          207 vlineto
          25 -10 11 -23 vhcurveto
          -344 hlineto
          -17 -13 callsubr
          -9 -48 callsubr
          17 vhcurveto
          277 -148 hlineto
          -18 10 -10 23 vhcurveto
          endchar
        </CharString>
        <CharString name="longs">
          -238 124 -2 rmoveto
          -41 callsubr
          580 vlineto
          39 13 11 22 vhcurveto
          13 10 -5 7 hhcurveto
          19 9 55 8 34 -57 10 -30 -74 -58 -40 -110 hvcurveto
          -86 -17 vlineto
          -19 -13 callsubr
          -15 -48 callsubr
          19 vhcurveto
          17 -395 hlineto
          -42 callsubr
          endchar
        </CharString>
        <CharString name="lozenge">
          -65 213 -14 rmoveto
          21 hlineto
          26 19 5 19 7 hvcurveto
          126 315 rlineto
          4 8 1 7 8 vvcurveto
          7 -2 8 -3 7 vhcurveto
          -130 320 rlineto
          18 -7 -19 5 -26 hhcurveto
          -12 hlineto
          -25 -20 -5 -18 -7 hvcurveto
          -130 -320 rlineto
          -4 -7 -1 -8 -7 vvcurveto
          -8 1 -7 4 -8 vhcurveto
          126 -315 rlineto
          -19 7 20 -5 24 hhcurveto
          10 140 rmoveto
          -74 222 74 219 75 -219 rlineto
          endchar
        </CharString>
        <CharString name="lslash">
          -235 245 98 rmoveto
          -6 -8 -4 -12 hhcurveto
          -18 -10 10 31 hvcurveto
          269 vlineto
          34 20 rlineto
          16 10 7 11 19 vvcurveto
          15 vlineto
          12 -4 6 -6 -4 -4 -1 -4 -5 vhcurveto
          -34 -20 rlineto
          253 vlineto
          18 -16 10 -37 vhcurveto
          -20 1 callgsubr
          -329 vlineto
          -20 -12 rlineto
          -16 -9 -8 -12 -19 vvcurveto
          -15 vlineto
          -12 3 -6 7 3 5 2 3 6 vhcurveto
          20 12 rlineto
          -194 vlineto
          -103 53 -38 68 34 51 10 31 16 -9 48 -17 vhcurveto
          endchar
        </CharString>
        <CharString name="m">
          209 548 530 rmoveto
          -60 -46 -33 -39 -27 hvcurveto
          50 -17 -39 22 -50 hhcurveto
          -59 -43 -36 -39 -26 hvcurveto
          34 -7 2 33 -31 hhcurveto
          -18 -77 -6 -25 hvcurveto
          -11 10 -30 -93 vvcurveto
          -330 -1 callsubr
          2 callgsubr
          22 27 32 hhcurveto
          35 13 -24 -43 hvcurveto
          -331 -60 callgsubr
          26 -69 callgsubr
          354 vlineto
          4 vlineto
          21 14 22 19 27 hhcurveto
          35 13 -24 -43 hvcurveto
          -331 -60 callgsubr
          25 -69 callgsubr
          356 vlineto
          100 -45 47 -71 vhcurveto
          endchar
        </CharString>
        <CharString name="macron">
          -256 30 602 -85 callsubr
          endchar
        </CharString>
        <CharString name="minus">
          -62 47 177 rmoveto
          355 hlineto
          19 26 callgsubr
          9 30 callgsubr
          -355 hlineto
          13 callsubr
          -9 -16 callgsubr
          endchar
        </CharString>
        <CharString name="multiply">
          -63 281 237 rmoveto
          115 155 15 22 -5 8 -16 14 rlinecurve
          -20 17 -13 10 -14 12 -16 -21 rlinecurve
          -110 -152 -115 156 -12 15 -10 -6 -22 -18 rlinecurve
          -11 -10 -22 -19 -1 -11 14 -17 rlinecurve
          114 -155 -114 -155 -14 -17 1 -11 22 -20 rlinecurve
          11 -9 22 -19 10 -5 12 15 rlinecurve
          115 156 110 -152 16 -21 14 11 13 11 rlinecurve
          20 17 16 13 5 9 -15 22 rlinecurve
          endchar
        </CharString>
        <CharString name="n">
          110 -2 -95 callsubr
          endchar
        </CharString>
        <CharString name="nacute">
          227 578 rmoveto
          -105 callgsubr
          -117 -580 -95 callsubr
          endchar
        </CharString>
        <CharString name="nacute.loclPLK">
          228 578 -81 callsubr
          -118 -580 -95 callsubr
          endchar
        </CharString>
        <CharString name="napostrophe">
          40 534 -81 callgsubr
          70 -536 -95 callsubr
          endchar
        </CharString>
        <CharString name="ncaron">
          239 576 -104 callgsubr
          -129 -578 -95 callsubr
          endchar
        </CharString>
        <CharString name="ncommaaccent">
          110 -2 -95 callsubr
          100 -236 -81 callgsubr
          endchar
        </CharString>
        <CharString name="nine">
          -52 117 -6 rmoveto
          30 283 100 354 179 -92 77 -109 -103 -99 -68 -150 -148 91 -61 74 32 31 8 19 30 hvcurveto
          -27 -103 -68 -78 -106 -39 rrcurveto
          -10 -3 -2 -4 -10 vvcurveto
          -18 15 -55 30 vhcurveto
          117 385 rmoveto
          -49 -37 37 73 73 40 41 39 38 37 -33 -113 -20 0 -18 -1 -19 hvcurveto
          -11 -19 -22 -10 -26 hhcurveto
          endchar
        </CharString>
        <CharString name="notequal">
          -63 417 262 rmoveto
          30 -7 13 -16 vhcurveto
          -72 hlineto
          60 95 rlineto
          30 20 -7 18 -39 hhcurveto
          -19 hlineto
          -25 -12 -10 -17 -10 hvcurveto
          -73 -116 rlineto
          -161 4 callsubr
          63 hlineto
          -67 -107 rlineto
          -22 -13 8 -17 37 hhcurveto
          19 hlineto
          25 10 8 19 12 hvcurveto
          75 119 rlineto
          169 10 callgsubr
        </CharString>
        <CharString name="ntilde">
          114 584 rmoveto
          -106 callsubr
          6 -590 -95 callsubr
          endchar
        </CharString>
        <CharString name="numbersign">
          3 108 -2 rmoveto
          15 hlineto
          29 13 10 18 3 hvcurveto
          24 162 rlineto
          84 hlineto
          -16 -99 -7 -59 -7 vvcurveto
          -17 13 -8 26 vhcurveto
          14 hlineto
          29 14 10 18 3 hvcurveto
          23 162 rlineto
          74 hlineto
          18 8 12 31 hvcurveto
          12 28 callsubr
          -59 hlineto
          17 123 rlineto
          67 11 callgsubr
          12 vlineto
          31 -8 12 -18 vhcurveto
          -52 hlineto
          21 152 rlineto
          17 2 -14 10 -26 hhcurveto
          -15 hlineto
          -30 -14 -10 -18 -3 hvcurveto
          -21 -151 rlineto
          -85 hlineto
          22 152 rlineto
          17 2 -13 10 -28 hhcurveto
          -14 hlineto
          -29 -14 -10 -18 -3 hvcurveto
          -22 -151 rlineto
          -69 hlineto
          -19 -8 -12 -31 hvcurveto
          -12 -48 callsubr
          19 vhcurveto
          55 hlineto
          -17 -123 rlineto
          -67 hlineto
          13 callsubr
          -12 vlineto
          -31 8 -12 18 vhcurveto
          52 hlineto
          -15 -96 -8 -63 -5 vvcurveto
          -18 -1 13 -8 27 hhcurveto
          99 288 rmoveto
          17 123 rlineto
          84 hlineto
          -17 -123 rlineto
          endchar
        </CharString>
        <CharString name="o">
          -34 239 -7 -100 callsubr
          endchar
        </CharString>
        <CharString name="oacute">
          -34 223 578 rmoveto
          -105 callgsubr
          16 -585 -100 callsubr
          endchar
        </CharString>
        <CharString name="oacute.loclPLK">
          -34 224 578 -81 callsubr
          15 -585 -100 callsubr
          endchar
        </CharString>
        <CharString name="obreve">
          -34 238 -78 callgsubr
          1 -585 -100 callsubr
          endchar
        </CharString>
        <CharString name="ocircumflex">
          -34 140 573 -30 callgsubr
          -580 -100 callsubr
          endchar
        </CharString>
        <CharString name="odieresis">
          -34 166 588 -102 callsubr
          -76 -595 -100 callsubr
          endchar
        </CharString>
        <CharString name="oe">
          211 633 128 rmoveto
          -11 -34 -34 -58 hhcurveto
          -57 -32 32 85 -4 hvcurveto
          210 hlineto
          13 32 38 15 169 -54 97 -128 -58 -49 -16 -38 -35 hvcurveto
          35 -32 -43 19 -54 hhcurveto
          -138 -62 -95 -174 -173 62 -95 138 56 43 19 36 32 hvcurveto
          -36 36 51 -19 69 hhcurveto
          60 93 27 41 17 -27 50 -19 hvcurveto
          -125 307 rmoveto
          45 20 -43 -98 hvcurveto
          -140 hlineto
          105 5 25 36 45 hhcurveto
          -269 -341 rmoveto
          -37 callsubr
          120 21 47 51 42 21 -30 -74 7 hvcurveto
          -2 -21 -1 -22 -24 vvcurveto
          -22 1 -20 2 -19 vhcurveto
          -73 -7 -22 -30 -41 hhcurveto
          endchar
        </CharString>
        <CharString name="ogonek">
          -255 138 -183 rmoveto
          21 21 5 9 18 hvcurveto
          11 7 4 10 13 vvcurveto
          21 -9 7 -17 vhcurveto
          17 callgsubr
          -48 16 rlineto
          -29 -40 -8 -46 -25 vvcurveto
          -26 9 -66 86 vhcurveto
          endchar
        </CharString>
        <CharString name="ograve">
          -34 257 578 -100 callgsubr
          -18 -585 -100 callsubr
          endchar
        </CharString>
        <CharString name="ohorn">
          -34 239 -7 -86 callgsubr
        </CharString>
        <CharString name="ohungarumlaut">
          -34 138 578 -33 callsubr
          -585 -100 callsubr
          endchar
        </CharString>
        <CharString name="omacron">
          -34 144 602 -85 callsubr
          95 -609 -100 callsubr
          endchar
        </CharString>
        <CharString name="one">
          -52 61 hmoveto
          336 hlineto
          19 -39 callsubr
          15 vlineto
          31 -8 12 -19 vhcurveto
          -94 579 hlineto
          12 -22 11 -15 vhcurveto
          -215 -42 rlineto
          -15 -3 -8 -8 -14 vvcurveto
          -24 6 -49 22 vhcurveto
          121 19 rlineto
          -481 -116 vlineto
          -18 -8 -12 -31 24 callgsubr
          endchar
        </CharString>
        <CharString name="oneeighth">
          117 140 294 rmoveto
          15 hlineto
          21 8 6 12 hvcurveto
          378 vlineto
          7 -13 6 -6 vhcurveto
          -124 -25 rlineto
          -9 -2 -4 -5 -8 vvcurveto
          -14 3 -29 14 vhcurveto
          65 13 rlineto
          -321 vlineto
          -12 10 -6 20 vhcurveto
          -12 -295 rmoveto
          15 hlineto
          17 13 7 17 7 hvcurveto
          283 655 rlineto
          1 15 callsubr
          -12 vhcurveto
          -15 hlineto
          -16 -14 -6 -17 -7 hvcurveto
          -281 -656 rlineto
          -3 -5 -2 -5 -3 vvcurveto
          -7 6 -3 11 vhcurveto
          353 -3 rmoveto
          79 38 55 64 60 -27 29 -31 19 hvcurveto
          26 15 24 26 51 vvcurveto
          63 -43 39 -64 -68 -43 -42 -65 -46 20 -25 25 -19 vhcurveto
          -29 -16 -25 -31 -57 vvcurveto
          -71 40 -49 78 vhcurveto
          7 257 rmoveto
          -25 14 -21 15 31 vvcurveto
          30 19 15 21 22 18 -15 -31 -26 -12 -19 -22 -14 vhcurveto
          -7 -198 rmoveto
          -27 -20 19 45 34 13 19 20 16 hvcurveto
          32 -17 28 -16 -42 vvcurveto
          -32 -18 -26 -28 vhcurveto
          endchar
        </CharString>
        <CharString name="onehalf">
          130 -68 callsubr
          259 1 -59 callsubr
          endchar
        </CharString>
        <CharString name="onequarter">
          75 -68 callsubr
          344 -1 rmoveto
          15 hlineto
          21 8 6 11 hvcurveto
          72 22 vlineto
          11 5 8 17 hvcurveto
          9 vlineto
          17 -5 8 -11 vhcurveto
          -22 245 hlineto
          11 -8 6 -21 vhcurveto
          -23 hlineto
          -14 -12 -1 -11 -5 hvcurveto
          -136 -257 rlineto
          -1 -1 -3 -3 vvcurveto
          -14 10 -31 9 vhcurveto
          128 -72 hlineto
          -11 9 -6 20 vhcurveto
          -105 148 rmoveto
          79 155 2 -1 rlineto
          -3 -27 -2 -22 -28 vvcurveto
          -77 vlineto
          endchar
        </CharString>
        <CharString name="ordfeminine">
          -230 97 439 rmoveto
          35 23 15 13 12 hvcurveto
          -15 3 3 -9 13 hhcurveto
          12 52 3 12 hvcurveto
          6 -6 15 47 vvcurveto
          87 vlineto
          57 -35 39 -80 -52 -46 -16 -17 -12 13 -41 11 vhcurveto
          7 29 15 34 hhcurveto
          27 9 -11 -18 hvcurveto
          -3 vlineto
          -102 -38 -37 -52 -47 29 -31 47 hvcurveto
          29 60 rmoveto
          -15 -8 9 15 24 23 8 35 1 hvcurveto
          -38 vlineto
          -11 -7 -12 -8 -16 hhcurveto
          endchar
        </CharString>
        <CharString name="ordmasculine">
          -219 146 439 rmoveto
          77 43 49 86 86 -42 49 -78 -77 -43 -49 -86 -86 43 -49 77 hvcurveto
          1 71 rmoveto
          -25 -11 18 46 46 11 18 25 24 10 -19 -45 -46 -10 -18 -24 hvcurveto
          endchar
        </CharString>
        <CharString name="oslash">
          -34 399 444 -57 callsubr
        </CharString>
        <CharString name="oslashacute">
          -34 222 578 rmoveto
          -105 callgsubr
          177 -134 -57 callsubr
        </CharString>
        <CharString name="otilde">
          -34 110 584 rmoveto
          -106 callsubr
          139 -595 -100 callsubr
          endchar
        </CharString>
        <CharString name="p">
          -27 113 -207 rmoveto
          22 -50 callgsubr
          207 vlineto
          -20 20 31 callgsubr
          -62 100 -91 -47 -40 -28 -43 -23 hvcurveto
          28 -5 -5 35 -28 hhcurveto
          -20 -73 -7 -22 hvcurveto
          -15 11 -27 -95 vvcurveto
          -534 -23 callsubr
          131 302 rmoveto
          -23 -19 10 15 -14 hvcurveto
          256 vlineto
          30 16 22 20 26 hhcurveto
          42 21 -53 -112 -117 -23 -49 -48 hvcurveto
          endchar
        </CharString>
        <CharString name="paragraph">
          -45 232 -172 rmoveto
          6 hlineto
          20 8 10 18 hvcurveto
          782 78 -782 vlineto
          -19 8 -9 20 vhcurveto
          6 hlineto
          20 8 10 18 hvcurveto
          782 24 vlineto
          19 8 8 19 hvcurveto
          6 vlineto
          21 -8 8 -19 vhcurveto
          -201 hlineto
          -110 -90 -86 -156 -140 77 -87 98 -14 hvcurveto
          -361 vlineto
          -19 8 -9 20 vhcurveto
          endchar
        </CharString>
        <CharString name="parenleft">
          -262 212 -209 rmoveto
          18 29 21 18 6 -2 7 -5 7 hvcurveto
          -83 131 -27 145 161 vvcurveto
          161 27 145 84 131 vhcurveto
          5 7 1 7 6 vvcurveto
          20 -30 19 -18 -8 -9 -4 -10 -7 vhcurveto
          -99 -122 -50 -176 -184 vvcurveto
          -185 50 -175 99 -122 vhcurveto
          -10 7 9 -4 9 hhcurveto
          endchar
        </CharString>
        <CharString name="parenright">
          -262 37 -209 rmoveto
          9 9 4 10 7 hvcurveto
          99 122 50 175 185 vvcurveto
          184 -50 176 -99 122 vhcurveto
          10 -7 -8 4 -9 hhcurveto
          -18 -30 -20 -19 -6 2 -7 4 -7 hvcurveto
          85 -131 25 -145 -161 vvcurveto
          -161 -27 -146 -83 -131 vhcurveto
          -4 -6 -2 -7 -6 vvcurveto
          -18 29 -21 18 vhcurveto
          endchar
        </CharString>
        <CharString name="partialdiff">
          -100 186 -9 rmoveto
          137 74 128 215 250 -88 151 -140 -86 -39 -37 -29 -20 28 -47 18 hvcurveto
          13 18 28 38 hhcurveto
          56 46 -75 -164 10 hvcurveto
          22 -26 -31 10 -31 hhcurveto
          -92 -77 -89 -141 -129 65 -73 107 hvcurveto
          6 105 rmoveto
          -38 -20 32 67 68 29 55 44 23 19 -13 -25 20 hvcurveto
          -91 -24 -93 -53 vhcurveto
          endchar
        </CharString>
        <CharString name="percent">
          175 -53 callsubr
          73 vmoveto
          1 callsubr
          endchar
        </CharString>
        <CharString name="period">
          -323 80 -2 rmoveto
          -25 callsubr
        </CharString>
        <CharString name="periodcentered">
          -297 113 296 -6 callsubr
        </CharString>
        <CharString name="perthousand">
          475 -53 callsubr
          300 hmoveto
          62 71 28 138 137 -71 29 -62 -62 -70 -29 -137 -138 71 -28 61 hvcurveto
          -300 73 rmoveto
          1 callsubr
          300 hmoveto
          1 callsubr
          endchar
        </CharString>
        <CharString name="pi">
          -4 108 -2 rmoveto
          8 hlineto
          31 24 9 19 7 hvcurveto
          24 91 19 180 4 125 rrcurveto
          75 hlineto
          -3 -294 rlineto
          -66 -1 2 -64 52 hhcurveto
          22 hlineto
          37 17 11 17 hvcurveto
          12 -7 38 78 vvcurveto
          268 36 vlineto
          19 9 8 21 2 hvcurveto
          2 15 2 17 13 vvcurveto
          18 -10 9 -20 vhcurveto
          -323 hlineto
          -65 -62 -9 -39 -12 0 -52 31 11 16 9 2 42 hvcurveto
          -5 -126 -23 -163 -27 -103 rrcurveto
          -1 -4 -1 -3 -3 vvcurveto
          -12 21 -10 35 vhcurveto
          endchar
        </CharString>
        <CharString name="plus">
          -62 218 -1 rmoveto
          11 hlineto
          30 13 8 19 hvcurveto
          161 120 vlineto
          18 26 callgsubr
          7 26 callsubr
          -18 vhcurveto
          -120 163 hlineto
          19 -13 8 -30 vhcurveto
          -11 hlineto
          -30 -13 -8 -19 hvcurveto
          -163 -117 vlineto
          -18 -8 -14 -30 hvcurveto
          -7 -18 callgsubr
          -12 18 vhcurveto
          117 -161 hlineto
          -19 13 -8 30 vhcurveto
          endchar
        </CharString>
        <CharString name="plusminus">
          -62 217 130 rmoveto
          12 hlineto
          31 12 9 21 hvcurveto
          157 121 vlineto
          17 6 14 29 hvcurveto
          7 vlineto
          30 -6 13 -17 vhcurveto
          -121 160 hlineto
          20 -12 10 -31 vhcurveto
          -12 hlineto
          -30 -13 -10 -20 hvcurveto
          -160 -118 vlineto
          -17 -7 -13 -30 hvcurveto
          -7 vlineto
          -29 7 -14 17 vhcurveto
          118 -157 hlineto
          -21 13 -9 30 vhcurveto
          -160 -130 rmoveto
          333 hlineto
          18 26 callgsubr
          9 26 callsubr
          -18 vhcurveto
          -333 hlineto
          -17 -7 -13 -30 hvcurveto
          -9 vlineto
          -30 7 -13 17 vhcurveto
          endchar
        </CharString>
        <CharString name="product">
          89 150 -104 rmoveto
          22 -69 callgsubr
          665 154 -665 vlineto
          -19 14 -10 36 vhcurveto
          22 -69 callgsubr
          665 64 vlineto
          19 26 callgsubr
          24 30 callgsubr
          -527 hlineto
          -17 -13 callsubr
          -24 -48 callsubr
          17 vhcurveto
          62 -665 hlineto
          -19 15 -10 36 vhcurveto
          endchar
        </CharString>
        <CharString name="q">
          -30 349 -207 rmoveto
          22 -50 callgsubr
          674 28 callgsubr
          -10 hlineto
          -25 -16 -4 -17 -5 hvcurveto
          -3 -15 -4 -16 -3 -14 rrcurveto
          43 -23 -43 28 -47 hhcurveto
          -92 -63 -100 -169 -173 63 -95 105 42 28 17 20 20 hvcurveto
          -208 -23 callsubr
          -109 302 rmoveto
          -49 -23 45 120 115 22 51 44 25 21 -19 -27 17 hvcurveto
          -260 vlineto
          -15 -14 -20 -10 -23 hhcurveto
          endchar
        </CharString>
        <CharString name="question">
          -120 147 215 rmoveto
          20 hlineto
          30 12 6 19 4 hvcurveto
          9 55 34 35 38 40 rrcurveto
          43 45 46 45 80 vvcurveto
          103 -78 64 -121 -70 -94 -27 -45 -19 31 -53 21 vhcurveto
          13 33 32 50 hhcurveto
          53 27 -25 -45 -40 -38 -39 -40 -47 hvcurveto
          -42 -51 -23 -52 -54 vvcurveto
          -19 12 -8 30 vhcurveto
          -2 -217 rmoveto
          26 hlineto
          38 -44 callsubr
          83 vlineto
          18 -16 10 -38 vhcurveto
          -26 1 callgsubr
          -83 -45 callgsubr
          endchar
        </CharString>
        <CharString name="questiondown">
          -120 246 525 rmoveto
          -26 hlineto
          -38 -39 callgsubr
          -83 vlineto
          -18 16 -10 38 vhcurveto
          26 hlineto
          37 16 10 18 hvcurveto
          83 16 callgsubr
          -37 vhcurveto
          -2 -217 rmoveto
          -20 hlineto
          -30 -12 -6 -19 -4 hvcurveto
          -9 -55 -34 -35 -38 -40 rrcurveto
          -43 -45 -46 -45 -80 vvcurveto
          -103 78 -64 121 70 94 27 45 19 -31 53 -21 vhcurveto
          -13 -33 -32 -50 hhcurveto
          -53 -27 25 45 40 38 39 40 47 hvcurveto
          42 51 23 52 54 vvcurveto
          19 -12 8 -30 vhcurveto
          endchar
        </CharString>
        <CharString name="quotedbl">
          -202 77 467 rmoveto
          -32 callsubr
          2 9 -7 19 hhcurveto
          143 hmoveto
          -32 callsubr
          2 9 -7 19 hhcurveto
          endchar
        </CharString>
        <CharString name="quotedblbase">
          -163 46 -122 -34 callgsubr
        </CharString>
        <CharString name="quotedblleft">
          -163 69 491 rmoveto
          -29 callgsubr
          158 hmoveto
          -29 callgsubr
          endchar
        </CharString>
        <CharString name="quotedblright">
          -163 59 496 -34 callgsubr
        </CharString>
        <CharString name="quoteleft">
          -301 82 491 rmoveto
          -29 callgsubr
          endchar
        </CharString>
        <CharString name="quoteright">
          -301 65 496 -1 callgsubr
          endchar
        </CharString>
        <CharString name="quotesinglbase">
          -301 63 -122 -1 callgsubr
          endchar
        </CharString>
        <CharString name="quotesingle">
          -347 78 467 rmoveto
          -32 callsubr
          3 9 -7 18 hhcurveto
          endchar
        </CharString>
        <CharString name="quotesingle.loclGUA">
          -340 74 386 rmoveto
          24 2 50 109 165 vvcurveto
          22 -15 16 -32 vhcurveto
          -15 hlineto
          -37 -16 -16 -24 hvcurveto
          1 -254 rlineto
          -15 24 -5 16 vhcurveto
          endchar
        </CharString>
        <CharString name="r">
          -174 118 -2 -28 callsubr
        </CharString>
        <CharString name="racute">
          -174 163 577 rmoveto
          -105 callgsubr
          -45 -579 -28 callsubr
        </CharString>
        <CharString name="radical">
          -16 260 -154 rmoveto
          23 hlineto
          29 16 9 19 4 hvcurveto
          174 912 rlineto
          10 vlineto
          10 -11 8 -26 vhcurveto
          -25 hlineto
          -29 -16 -10 -18 -3 hvcurveto
          -118 -675 rlineto
          -6 -28 -6 -64 -7 vvcurveto
          -4 hlineto
          7 -11 50 -10 43 vhcurveto
          -61 255 rlineto
          15 -3 -9 7 -11 hhcurveto
          -16 -60 -31 -21 -41 hvcurveto
          -15 -7 -6 -6 -12 vvcurveto
          -7 2 -6 11 -28 vhcurveto
          -14 6 7 -7 11 hhcurveto
          7 13 5 13 24 hvcurveto
          109 -395 rlineto
          -20 5 19 -7 27 hhcurveto
          endchar
        </CharString>
        <CharString name="rcaron">
          -174 175 575 -104 callgsubr
          -57 -577 -28 callsubr
        </CharString>
        <CharString name="rcommaaccent">
          -174 118 -2 -72 callsubr
          -19 -238 -81 callgsubr
          endchar
        </CharString>
        <CharString name="registered">
          80 -31 callsubr
          -76 100 rmoveto
          17 hlineto
          20 8 6 10 hvcurveto
          148 13 vlineto
          28 4 -11 -30 9 hvcurveto
          35 -112 rlineto
          -7 2 11 -4 14 hhcurveto
          21 hlineto
          18 9 4 7 2 0 3 -2 5 hvcurveto
          -38 121 -9 29 -14 21 -9 7 rlinecurve
          3 vlineto
          30 16 22 31 46 vvcurveto
          70 -32 35 -79 vhcurveto
          -88 hlineto
          -13 -6 -6 -15 hvcurveto
          -363 vlineto
          -10 9 -6 20 vhcurveto
          45 228 rmoveto
          109 36 vlineto
          20 13 -19 -33 -31 -15 -26 -15 hvcurveto
          endchar
        </CharString>
        <CharString name="ring">
          -255 128 -11 callsubr
          endchar
        </CharString>
        <CharString name="s">
          -36 callsubr
          endchar
        </CharString>
        <CharString name="sacute">
          -158 162 578 rmoveto
          -105 callgsubr
          2 -586 -89 callsubr
          endchar
        </CharString>
        <CharString name="sacute.loclPLK">
          -158 163 578 -81 callsubr
          1 -586 -89 callsubr
          endchar
        </CharString>
        <CharString name="scaron">
          -158 174 576 -104 callgsubr
          -10 -584 -89 callsubr
          endchar
        </CharString>
        <CharString name="scedilla">
          -158 331 154 rmoveto
          82 -44 38 -52 29 vhcurveto
          -39 23 -36 17 40 vvcurveto
          30 21 14 29 vhcurveto
          35 25 -21 8 hhcurveto
          15 22 51 21 36 -72 17 -51 -93 -66 -59 -96 -85 48 -35 51 -27 hvcurveto
          42 -23 31 -19 -40 vvcurveto
          -33 -20 -18 -33 vhcurveto
          -43 -27 32 -10 hhcurveto
          -17 -31 -49 -23 -33 62 -27 64 -4 hvcurveto
          -17 -49 -5 -14 -8 -71 callgsubr
          13 48 rlineto
          76 17 47 60 81 vvcurveto
          endchar
        </CharString>
        <CharString name="scircumflex">
          -158 79 573 -107 callgsubr
          85 -581 -89 callsubr
          endchar
        </CharString>
        <CharString name="scommaaccent">
          -36 callsubr
          -20 -230 -81 callgsubr
          endchar
        </CharString>
        <CharString name="section">
          -156 164 -7 rmoveto
          94 67 57 90 45 -18 31 -23 23 hvcurveto
          32 26 19 39 48 vvcurveto
          87 -53 38 -50 25 vhcurveto
          -36 18 -37 13 33 vvcurveto
          24 20 13 30 vhcurveto
          35 25 -21 8 hhcurveto
          15 22 52 19 39 -79 14 -44 -90 -68 -51 -92 -46 18 -30 23 -23 hvcurveto
          -32 -25 -20 -38 -49 vvcurveto
          -86 50 -37 47 -25 vhcurveto
          45 -23 35 -12 -34 vvcurveto
          -24 -18 -14 -32 vhcurveto
          -39 -24 27 -9 hhcurveto
          -16 -27 -51 -21 -38 77 -21 53 hvcurveto
          36 301 rmoveto
          -37 14 -31 15 40 vvcurveto
          22 10 14 16 9 vhcurveto
          37 -14 31 -15 -39 vvcurveto
          -23 -11 -14 -15 -9 vhcurveto
          endchar
        </CharString>
        <CharString name="semicolon">
          -323 80 -27 callgsubr
          -38 -507 -4 callgsubr
        </CharString>
        <CharString name="seven">
          -52 116 -2 rmoveto
          29 hlineto
          26 20 4 15 5 hvcurveto
          234 594 rlineto
          1 3 1 5 5 vvcurveto
          27 -17 49 -10 vhcurveto
          -348 hlineto
          -19 -13 callsubr
          -15 -48 callsubr
          19 vhcurveto
          236 hlineto
          -223 -564 rlineto
          -2 -7 -3 -7 -5 vvcurveto
          -12 16 -6 35 vhcurveto
          endchar
        </CharString>
        <CharString name="six">
          -52 230 -7 rmoveto
          103 99 68 151 148 -91 60 -75 -31 -30 -7 -19 -31 hvcurveto
          28 103 67 77 107 39 rrcurveto
          10 4 1 4 10 vvcurveto
          17 -14 55 -30 -30 -284 -100 -353 -179 93 -78 108 vhcurveto
          2 101 rmoveto
          -38 -37 33 114 19 0 19 2 19 hvcurveto
          11 17 24 10 26 hhcurveto
          48 37 -39 -72 -72 -38 -42 -41 hvcurveto
          endchar
        </CharString>
        <CharString name="slash">
          -191 19 -20 callgsubr
        </CharString>
        <CharString name="space">
          -374 endchar
        </CharString>
        <CharString name="sterling">
          -100 43 hmoveto
          323 11 callgsubr
          15 vlineto
          31 -8 12 -18 vhcurveto
          -199 hlineto
          26 23 20 37 89 vvcurveto
          71 86 vlineto
          18 -40 callsubr
          -18 vhcurveto
          -86 84 hlineto
          72 25 31 52 vhcurveto
          23 29 -8 4 hhcurveto
          17 17 41 25 34 -64 6 -36 -130 -60 -73 -133 hvcurveto
          -79 -41 vlineto
          -19 -13 callsubr
          -15 -48 callsubr
          19 vhcurveto
          41 -152 hlineto
          -74 -80 1 -41 vvcurveto
          -18 vlineto
          -26 10 -11 23 vhcurveto
          endchar
        </CharString>
        <CharString name="summation">
          -37 49 -102 rmoveto
          393 0 callgsubr
          28 0 callsubr
          -257 hlineto
          -2 3 144 269 rlineto
          5 9 2 7 8 vvcurveto
          7 -3 8 -4 8 vhcurveto
          -138 256 1 3 rlineto
          239 hlineto
          18 7 14 29 hvcurveto
          24 26 callsubr
          -18 vhcurveto
          -376 hlineto
          -24 -10 -11 -23 hvcurveto
          -27 vlineto
          -14 4 -11 6 -11 vhcurveto
          165 -301 -169 -306 rlineto
          -6 -11 -3 -11 -13 vvcurveto
          -26 vlineto
          -26 9 -11 24 vhcurveto
          endchar
        </CharString>
        <CharString name="t">
          -64 callgsubr
          endchar
        </CharString>
        <CharString name="tbar">
          -227 254 98 rmoveto
          -17 callsubr
          111 55 vlineto
          21 8 11 26 hvcurveto
          13 vlineto
          26 -8 11 -21 vhcurveto
          -55 85 47 hlineto
          -38 callsubr
          -47 98 hlineto
          19 -13 10 -30 vhcurveto
          -24 hlineto
          -28 -18 callsubr
          -2 hvcurveto
          -13 -98 rlineto
          -18 hlineto
          -19 -13 callsubr
          -15 -48 callsubr
          19 vhcurveto
          18 -85 -34 hlineto
          -20 -9 -11 -26 hvcurveto
          -13 vlineto
          -26 9 -11 20 vhcurveto
          34 -113 hlineto
          -106 55 -38 66 2 callsubr
          vhcurveto
          endchar
        </CharString>
        <CharString name="tcaron">
          -213 256 568 -51 callsubr
          -66 -575 -61 callgsubr
          endchar
        </CharString>
        <CharString name="thorn">
          -28 112 -207 rmoveto
          22 hlineto
          37 -54 callsubr
          207 vlineto
          -20 21 31 callgsubr
          -63 100 -90 -43 -37 -22 -37 -24 hvcurveto
          254 vlineto
          18 -16 10 -37 vhcurveto
          -20 1 callgsubr
          -903 -49 callgsubr
          37 vhcurveto
          130 302 rmoveto
          -23 -18 10 15 -15 hvcurveto
          256 vlineto
          30 16 23 20 25 hhcurveto
          43 21 -53 -112 -117 -24 -49 -48 hvcurveto
          endchar
        </CharString>
        <CharString name="three">
          -52 211 -7 rmoveto
          121 89 76 134 92 -48 64 -71 25 hvcurveto
          4 vlineto
          55 24 41 49 73 vvcurveto
          107 -73 66 -117 -79 -90 -23 -43 -23 27 -44 17 vhcurveto
          14 23 31 64 hhcurveto
          63 24 -40 -46 -49 -34 -51 -73 hvcurveto
          -29 hlineto
          -19 -8 -12 -31 hvcurveto
          -15 -48 callsubr
          19 vhcurveto
          37 hlineto
          80 41 -34 -78 -79 -52 -33 -56 hvcurveto
          -68 -39 39 -16 hhcurveto
          -19 -25 -48 -19 -49 115 -24 78 hvcurveto
          endchar
        </CharString>
        <CharString name="threequarters">
          116 131 289 -75 callgsubr
          32 -290 rmoveto
          14 hlineto
          17 13 7 17 7 29 callgsubr
          3 15 callsubr
          -13 vhcurveto
          -14 20 callsubr
          -3 -5 -3 vvcurveto
          -7 7 -3 11 vhcurveto
          344 -1 rmoveto
          15 hlineto
          21 8 6 11 hvcurveto
          72 22 vlineto
          11 5 8 17 hvcurveto
          9 vlineto
          17 -5 8 -11 vhcurveto
          -22 245 hlineto
          11 -8 6 -21 vhcurveto
          -23 hlineto
          -14 -12 -1 -11 -5 hvcurveto
          -136 -257 rlineto
          -1 -1 -3 -3 vvcurveto
          -14 10 -31 9 vhcurveto
          128 -72 hlineto
          -11 9 -6 20 vhcurveto
          -105 148 rmoveto
          79 155 2 -1 rlineto
          -3 -27 -2 -22 -28 vvcurveto
          -77 vlineto
          endchar
        </CharString>
        <CharString name="tilde">
          -219 21 584 rmoveto
          -106 callsubr
          endchar
        </CharString>
        <CharString name="tildecomb">
          -511 -132 584 rmoveto
          -106 callsubr
          endchar
        </CharString>
        <CharString name="trademark">
          106 305 305 rmoveto
          15 hlineto
          20 9 5 11 hvcurveto
          226 4 vlineto
          59 -139 rlineto
          -7 2 8 -2 8 hhcurveto
          13 hlineto
          9 7 2 7 2 hvcurveto
          59 138 rlineto
          5 -225 hlineto
          -11 8 -5 21 vhcurveto
          14 hlineto
          21 9 5 11 hvcurveto
          364 vlineto
          11 -9 5 -21 vhcurveto
          -25 hlineto
          -12 -12 -3 -10 -5 hvcurveto
          -67 -159 -12 -32 -12 33 -64 158 rlineto
          10 -4 -11 3 -13 hhcurveto
          -26 hlineto
          -21 -8 -5 -11 hvcurveto
          -364 vlineto
          -11 8 -5 21 vhcurveto
          -176 hmoveto
          19 hlineto
          19 10 6 10 hvcurveto
          316 68 vlineto
          10 5 7 17 hvcurveto
          15 vlineto
          17 -5 7 -10 vhcurveto
          -213 hlineto
          -10 -5 -7 -17 hvcurveto
          -15 vlineto
          -17 5 -7 10 vhcurveto
          69 -316 hlineto
          -10 9 -6 19 vhcurveto
          endchar
        </CharString>
        <CharString name="two">
          -52 44 hmoveto
          354 hlineto
          -38 callsubr
          -220 hlineto
          159 236 rlineto
          62 83 22 48 62 vvcurveto
          105 -74 72 -129 -83 -104 -33 -52 -23 24 -40 24 vhcurveto
          17 38 46 68 hhcurveto
          54 37 -27 -54 -34 -13 -28 -34 -51 hvcurveto
          -223 -323 rlineto
          -3 -3 -1 -5 -7 vvcurveto
          -26 11 -47 14 vhcurveto
          endchar
        </CharString>
        <CharString name="u">
          175 -8 -101 callgsubr
          endchar
        </CharString>
        <CharString name="uacute">
          224 578 rmoveto
          -105 callgsubr
          -49 -586 -101 callgsubr
          endchar
        </CharString>
        <CharString name="ubreve">
          239 -78 callgsubr
          -64 -586 -101 callgsubr
          endchar
        </CharString>
        <CharString name="ucircumflex">
          141 573 -107 callgsubr
          34 -581 -101 callgsubr
          endchar
        </CharString>
        <CharString name="udieresis">
          167 588 -102 callsubr
          -141 -596 -101 callgsubr
          endchar
        </CharString>
        <CharString name="ugrave">
          258 578 -100 callgsubr
          -83 -586 -101 callgsubr
          endchar
        </CharString>
        <CharString name="uhorn">
          -43 492 577 -93 callsubr
          endchar
        </CharString>
        <CharString name="uhungarumlaut">
          139 578 -84 callsubr
          -116 -586 -101 callgsubr
          endchar
        </CharString>
        <CharString name="umacron">
          145 602 -85 callsubr
          30 -610 -101 callgsubr
          endchar
        </CharString>
        <CharString name="underscore">
          -84 9 -141 rmoveto
          409 hlineto
          18 8 12 27 hvcurveto
          8 vlineto
          27 -8 12 -18 vhcurveto
          -409 hlineto
          -17 -8 -12 -27 hvcurveto
          -8 vlineto
          -27 8 -12 17 vhcurveto
          endchar
        </CharString>
        <CharString name="uni00A0">
          -374 endchar
        </CharString>
        <CharString name="uni00AD">
          -255 46 218 rmoveto
          163 hlineto
          18 26 callgsubr
          8 vlineto
          31 -7 12 -18 vhcurveto
          -163 6 callsubr
        </CharString>
        <CharString name="uni00B2">
          -231 32 295 -59 callsubr
          endchar
        </CharString>
        <CharString name="uni00B3">
          -231 131 289 -75 callgsubr
          endchar
        </CharString>
        <CharString name="uni00B5">
          -58 -42 callgsubr
        </CharString>
        <CharString name="uni00B9">
          -231 140 294 rmoveto
          15 hlineto
          21 8 6 12 hvcurveto
          378 vlineto
          7 -13 6 -6 vhcurveto
          -124 -25 rlineto
          -9 -2 -4 -5 -8 vvcurveto
          -14 3 -29 14 vhcurveto
          65 13 rlineto
          -321 vlineto
          -12 10 -6 20 vhcurveto
          endchar
        </CharString>
        <CharString name="uni0162">
          -57 416 700 rmoveto
          -378 hlineto
          13 callsubr
          -26 -16 callgsubr
          122 -561 hlineto
          -17 12 -10 30 -2 vhcurveto
          -19 -54 -5 -14 -9 -71 callgsubr
          14 51 rlineto
          24 2 11 10 16 vvcurveto
          561 122 vlineto
          -13 callgsubr
          endchar
        </CharString>
        <CharString name="uni0163">
          -213 281 35 rmoveto
          10 -10 53 -17 vhcurveto
          -74 callsubr
          -86 36 -42 50 -12 vhcurveto
          -19 -53 -5 callsubr
          12 46 rlineto
          32 3 39 11 27 vvcurveto
          endchar
        </CharString>
        <CharString name="uni018F">
          49 260 -4 rmoveto
          152 88 96 242 253 -79 120 -170 -87 -117 -36 -45 -20 27 -47 18 hvcurveto
          17 52 43 82 hhcurveto
          76 46 -45 -185 4 hvcurveto
          -288 hlineto
          -12 -32 -38 -15 -200 56 -123 167 hvcurveto
          -1 104 rmoveto
          -76 -22 62 120 hvcurveto
          209 hlineto
          -137 -11 -34 -45 -66 hhcurveto
          endchar
        </CharString>
        <CharString name="uni01C4">
          573 829 753 -104 callgsubr
          -731 -753 rmoveto
          182 hlineto
          167 86 108 242 241 -86 109 -167 hvcurveto
          -182 hlineto
          -24 -10 -11 -26 hvcurveto
          -626 vlineto
          -26 10 -11 24 vhcurveto
          540 -56 callsubr
          -439 112 rmoveto
          476 77 vlineto
          79 42 -64 -174 -174 -42 -64 -79 hvcurveto
          endchar
        </CharString>
        <CharString name="uni01C5">
          471 756 576 -104 callgsubr
          -658 -576 rmoveto
          -70 callsubr
          353 -112 rmoveto
          -96 callsubr
          endchar
        </CharString>
        <CharString name="uni01C6">
          375 -73 callsubr
          489 583 -104 callgsubr
          -148 -576 rmoveto
          -96 callsubr
          -301 97 -22 callsubr
        </CharString>
        <CharString name="uni01C7">
          127 408 -173 rmoveto
          126 53 83 132 hvcurveto
          631 vlineto
          19 -16 11 -35 vhcurveto
          -33 hlineto
          -35 -15 -11 -19 hvcurveto
          -622 vlineto
          -77 -18 -33 -47 vhcurveto
          -26 -15 7 -10 hhcurveto
          -19 -16 -52 -28 -25 57 -16 49 hvcurveto
          -317 173 rmoveto
          238 hlineto
          18 -85 callgsubr
          -18 vhcurveto
          -139 561 hlineto
          19 -14 10 -37 -64 callsubr
          -636 vlineto
          -26 10 -11 24 vhcurveto
          endchar
        </CharString>
        <CharString name="uni01C8">
          146 98 hmoveto
          -67 callgsubr
          439 -80 callsubr
          -64 -800 -84 callgsubr
        </CharString>
        <CharString name="uni01C9">
          8 180 -7 -75 callsubr
          219 595 -105 callsubr
          -64 -800 -84 callgsubr
        </CharString>
        <CharString name="uni01CA">
          434 704 -7 -66 callgsubr
          -594 5 -99 callsubr
          endchar
        </CharString>
        <CharString name="uni01CB">
          328 110 -2 -99 callsubr
          609 590 -105 callsubr
          -64 -800 -84 callgsubr
        </CharString>
        <CharString name="uni01CC">
          220 611 -80 callsubr
          -501 -590 -95 callsubr
          437 -210 -84 callgsubr
        </CharString>
        <CharString name="uni01EA">
          88 557 351 rmoveto
          247 -92 109 -165 -165 -93 -108 -248 -249 93 -109 165 vhcurveto
          12 hlineto
          -15 -31 -5 -32 -19 -66 callsubr
          -33 callgsubr
          19 5 27 13 26 hvcurveto
          118 31 64 111 207 vvcurveto
          -379 hmoveto
          183 42 61 81 79 42 -61 -183 -183 -42 -63 -79 -81 -42 63 183 vhcurveto
          endchar
        </CharString>
        <CharString name="uni01EB">
          -34 350 -115 8 callgsubr
          26 hvcurveto
          98 23 51 90 150 vvcurveto
          174 -68 95 -132 -132 -68 -95 -174 -169 65 -94 125 -5 vhcurveto
          -18 -33 -5 -35 -20 -66 callsubr
          -183 377 rmoveto
          120 21 47 51 50 21 -47 -120 -120 -21 -48 -50 -37 callsubr
          vhcurveto
          endchar
        </CharString>
        <CharString name="uni01F1">
          573 98 hmoveto
          182 hlineto
          167 86 108 242 241 -86 109 -167 hvcurveto
          -182 hlineto
          -24 -10 -11 -26 hvcurveto
          -626 vlineto
          -26 10 -11 24 vhcurveto
          540 -56 callsubr
          -439 112 rmoveto
          476 77 vlineto
          79 42 -64 -174 -174 -42 -64 -79 hvcurveto
          endchar
        </CharString>
        <CharString name="uni01F2">
          471 -24 callsubr
          353 -112 rmoveto
          -96 callsubr
          endchar
        </CharString>
        <CharString name="uni01F3">
          375 -73 callsubr
          341 7 rmoveto
          -96 callsubr
          -301 97 -22 callsubr
        </CharString>
        <CharString name="uni021A">
          -57 211 -2 -61 callsubr
          -17 -236 -81 callgsubr
          endchar
        </CharString>
        <CharString name="uni021B">
          -64 callgsubr
          -43 -231 -81 callgsubr
          endchar
        </CharString>
        <CharString name="uni0237">
          -262 65 -212 -84 callgsubr
        </CharString>
        <CharString name="uni0259">
          -71 187 530 rmoveto
          -60 -93 -27 -41 -17 27 -50 19 hvcurveto
          11 34 34 58 hhcurveto
          57 32 -32 -85 4 hvcurveto
          -210 hlineto
          -13 -32 -38 -15 -169 54 -97 128 125 79 75 197 174 -68 91 -152 hvcurveto
          93 -301 rmoveto
          -105 -5 -25 -36 -45 hhcurveto
          -45 -20 43 98 hvcurveto
          endchar
        </CharString>
        <CharString name="uni02BC">
          -421 22 534 -81 callgsubr
          endchar
        </CharString>
        <CharString name="uni02C9">
          -255 30 602 -85 callsubr
          endchar
        </CharString>
        <CharString name="uni0302">
          -511 -96 573 -107 callgsubr
          endchar
        </CharString>
        <CharString name="uni0304">
          -511 -96 602 -85 callsubr
          endchar
        </CharString>
        <CharString name="uni0306">
          -511 -1 -78 callgsubr
          endchar
        </CharString>
        <CharString name="uni0307">
          -511 2 -80 callsubr
          endchar
        </CharString>
        <CharString name="uni0308">
          -511 -74 588 -102 callsubr
          endchar
        </CharString>
        <CharString name="uni030A">
          -511 555 vmoveto
          -72 callgsubr
          endchar
        </CharString>
        <CharString name="uni030B">
          -511 -132 578 -84 callsubr
          endchar
        </CharString>
        <CharString name="uni030C">
          -511 3 576 -104 callgsubr
          endchar
        </CharString>
        <CharString name="uni0326">
          -511 -164 -238 -81 callgsubr
          endchar
        </CharString>
        <CharString name="uni0327">
          -511 19 -52 rmoveto
          16 59 rlineto
          -56 hlineto
          -21 -61 -6 -16 -9 -71 callgsubr
          endchar
        </CharString>
        <CharString name="uni0394">
          70 -35 callsubr
        </CharString>
        <CharString name="uni03A9">
          88 -55 callsubr
        </CharString>
        <CharString name="uni03BC">
          -44 -42 callgsubr
        </CharString>
        <CharString name="uni1E0C">
          -24 callgsubr
          1 -306 -105 callsubr
          endchar
        </CharString>
        <CharString name="uni1E0D">
          -30 -73 callsubr
          40 104 -47 callsubr
          10 -291 -105 callsubr
          endchar
        </CharString>
        <CharString name="uni1E24">
          89 115 -2 -56 callgsubr
          188 -192 -105 callsubr
          endchar
        </CharString>
        <CharString name="uni1E25">
          -26 112 -2 -59 callgsubr
          135 -192 -105 callsubr
          endchar
        </CharString>
        <CharString name="uni1E44">
          79 296 765 -105 callsubr
          -186 -767 -99 callsubr
          endchar
        </CharString>
        <CharString name="uni1E45">
          244 -80 callsubr
          -134 -590 -95 callsubr
          endchar
        </CharString>
        <CharString name="uni1E5A">
          2 114 -2 -87 callgsubr
          -3 -590 -105 callsubr
          endchar
        </CharString>
        <CharString name="uni1E5B">
          -174 118 -2 -72 callsubr
          17 -194 -105 callsubr
          endchar
        </CharString>
        <CharString name="uni1E62">
          -50 callsubr
          18 -187 -105 callsubr
          endchar
        </CharString>
        <CharString name="uni1E63">
          -36 callsubr
          16 -186 -105 callsubr
          endchar
        </CharString>
        <CharString name="uni1E6C">
          -57 211 -2 -61 callsubr
          19 -192 -105 callsubr
          endchar
        </CharString>
        <CharString name="uni1E6D">
          -64 callgsubr
          -7 -187 -105 callsubr
          endchar
        </CharString>
        <CharString name="uni1E92">
          -4 61 -56 callsubr
          197 -194 -105 callsubr
          endchar
        </CharString>
        <CharString name="uni1E93">
          -106 52 hmoveto
          -96 callsubr
          152 -194 -105 callsubr
          endchar
        </CharString>
        <CharString name="uni1E9E">
          82 371 -7 rmoveto
          108 85 70 142 127 -61 53 -68 25 hvcurveto
          99 186 rlineto
          1 2 1 3 4 vvcurveto
          24 -19 52 -13 2 vhcurveto
          12 -52 -78 12 -74 hhcurveto
          -159 1 -84 -91 -180 vvcurveto
          -410 -45 callgsubr
          26 -50 callgsubr
          409 vlineto
          106 35 53 76 35 30 -4 -6 23 vhcurveto
          -97 -180 rlineto
          -1 -2 -1 -4 -5 vvcurveto
          -24 19 -52 15 vhcurveto
          22 hlineto
          57 34 -34 -78 -80 -36 -32 -43 hvcurveto
          -43 -26 30 -16 hhcurveto
          -19 -25 -48 -19 -41 90 -23 53 hvcurveto
          endchar
        </CharString>
        <CharString name="uni1EA0">
          -6 50 -2 -107 callsubr
          -63 -454 -105 callsubr
          endchar
        </CharString>
        <CharString name="uni1EA1">
          -30 183 -7 -106 callgsubr
          20 -284 -105 callsubr
          endchar
        </CharString>
        <CharString name="uni1EA2">
          -6 271 745 -98 callgsubr
          -221 -747 -107 callsubr
          endchar
        </CharString>
        <CharString name="uni1EA3">
          -30 256 568 -98 callgsubr
          -73 -575 -103 callgsubr
        </CharString>
        <CharString name="uni1EA4">
          -20 348 852 rmoveto
          28 -23 callgsubr
          6 -3 16 vhcurveto
          -195 -102 -82 callsubr
        </CharString>
        <CharString name="uni1EA5">
          -66 322 713 rmoveto
          -105 callgsubr
          -195 -140 rmoveto
          23 hlineto
          17 17 2 15 8 hvcurveto
          27 55 27 -55 rlineto
          -11 5 16 5 callsubr
          -53 97 rlineto
          17 -9 -17 24 callsubr
          -25 -17 33 callgsubr
          -53 -62 callsubr
          16 vhcurveto
          56 -580 -103 callgsubr
        </CharString>
        <CharString name="uni1EA6">
          -20 393 -26 callsubr
          8 13 -8 29 hhcurveto
          -240 -102 -82 callsubr
        </CharString>
        <CharString name="uni1EA7">
          -66 356 713 -100 callgsubr
          -229 -140 rmoveto
          23 hlineto
          17 17 2 15 8 hvcurveto
          27 55 27 -55 rlineto
          -11 5 16 5 callsubr
          -53 97 rlineto
          17 -9 -17 24 callsubr
          -25 -17 33 callgsubr
          -53 -62 callsubr
          16 vhcurveto
          56 -580 -103 callgsubr
        </CharString>
        <CharString name="uni1EA8">
          -20 367 -30 callsubr
          14 13 -7 -14 -14 -12 -7 -19 17 callsubr
          16 -11 25 vhcurveto
          -214 -109 -82 callsubr
        </CharString>
        <CharString name="uni1EA9">
          -66 356 703 -98 callgsubr
          -229 -130 rmoveto
          23 hlineto
          17 17 2 15 8 hvcurveto
          27 55 27 -55 rlineto
          -11 5 16 5 callsubr
          -53 97 rlineto
          17 -9 -17 24 callsubr
          -25 -17 33 callgsubr
          -53 -62 callsubr
          16 vhcurveto
          56 -580 -103 callgsubr
        </CharString>
        <CharString name="uni1EAA">
          -20 134 893 10 callsubr
          6 10 7 hvcurveto
          17 11 8 3 8 27 49 -33 34 hhcurveto
          37 28 28 42 14 hvcurveto
          2 4 1 4 6 vvcurveto
          10 -5 7 -12 5 callgsubr
          -7 hvcurveto
          -17 -10 -8 -3 -9 hhcurveto
          1 -27 -48 32 12 callsubr
          29 -147 -52 callgsubr
          -103 -752 -107 callsubr
          endchar
        </CharString>
        <CharString name="uni1EAB">
          -66 123 744 rmoveto
          -1 4 4 -1 4 hhcurveto
          8 6 25 callsubr
          10 8 3 9 hhcurveto
          -1 27 49 -32 30 callsubr
          -22 callgsubr
          -4 8 -13 6 callgsubr
          -4 hhcurveto
          -9 -7 -6 -11 -6 hvcurveto
          -16 -11 -8 -3 -8 -27 -49 33 -33 hhcurveto
          -39 -26 -27 -42 -15 hvcurveto
          -3 13 callgsubr
          14 -175 -21 callsubr
          23 7 5 12 11 hvcurveto
          28 46 26 -46 rlineto
          -12 10 9 -5 23 hhcurveto
          25 hlineto
          13 7 5 7 3 -4 9 -5 8 hvcurveto
          -49 71 rlineto
          15 -10 -15 5 -27 hhcurveto
          -7 hlineto
          -28 -13 -5 -15 -11 hvcurveto
          -49 -71 rlineto
          -5 -8 -4 -9 -3 vvcurveto
          -9 6 -3 15 vhcurveto
          56 -580 -103 callgsubr
        </CharString>
        <CharString name="uni1EAC">
          -6 154 750 -107 callgsubr
          -104 -752 -107 callsubr
          -63 -454 -105 callsubr
          endchar
        </CharString>
        <CharString name="uni1EAD">
          -30 139 573 -107 callgsubr
          44 -580 -106 callgsubr
          20 -284 -105 callsubr
          endchar
        </CharString>
        <CharString name="uni1EAE">
          -20 229 858 rmoveto
          29 -23 callgsubr
          5 -3 16 vhcurveto
          16 -103 rmoveto
          80 46 48 -21 callgsubr
          22 14 -7 hvcurveto
          13 -6 -6 8 -15 hhcurveto
          -18 -14 -7 -24 -47 47 -47 78 hvcurveto
          -195 -757 -107 callsubr
          endchar
        </CharString>
        <CharString name="uni1EAF">
          -30 222 755 rmoveto
          -105 callgsubr
          15 -177 -93 callgsubr
        </CharString>
        <CharString name="uni1EB0">
          -20 265 858 rmoveto
          18 6 3 10 9 -7 21 -28 68 hvcurveto
          21 -9 -29 6 -32 hhcurveto
          -27 -12 -4 -13 -10 8 -10 62 -83 hvcurveto
          -10 8 13 -8 29 hhcurveto
          -20 -103 rmoveto
          80 46 48 -21 callgsubr
          22 14 -7 hvcurveto
          13 -6 -6 8 -15 hhcurveto
          -18 -14 -7 -24 -47 47 -47 78 hvcurveto
          -195 -757 -107 callsubr
          endchar
        </CharString>
        <CharString name="uni1EB1">
          -30 256 755 -100 callgsubr
          -19 -177 -93 callgsubr
        </CharString>
        <CharString name="uni1EB2">
          -20 249 865 rmoveto
          13 22 13 9 11 hvcurveto
          19 16 10 16 21 vvcurveto
          44 -41 23 -49 -35 -45 -15 -13 -13 20 -26 8 vhcurveto
          8 11 16 32 hhcurveto
          13 13 -7 -14 -14 -11 -7 -20 17 callsubr
          17 -11 25 vhcurveto
          -4 -110 rmoveto
          80 46 48 -21 callgsubr
          22 14 -7 hvcurveto
          13 -6 -6 8 -15 hhcurveto
          -18 -14 -7 -24 -47 47 -47 78 hvcurveto
          -195 -757 -107 callsubr
          endchar
        </CharString>
        <CharString name="uni1EB3">
          -30 256 745 -98 callgsubr
          -19 -167 -93 callgsubr
        </CharString>
        <CharString name="uni1EB4">
          -20 135 901 rmoveto
          -1 4 4 -1 4 hhcurveto
          8 6 5 11 7 hvcurveto
          16 11 7 3 9 27 19 callsubr
          6 vvcurveto
          9 -5 7 -13 5 callgsubr
          -6 hvcurveto
          -16 -11 -7 -4 -9 hhcurveto
          1 -28 -48 32 -34 hhcurveto
          -37 -28 -26 -43 -14 hvcurveto
          -2 -6 -1 -5 -4 vvcurveto
          -8 4 -9 13 -4 vhcurveto
          119 -165 rmoveto
          80 46 47 -21 callgsubr
          23 14 -7 hvcurveto
          12 -6 -6 8 -15 hhcurveto
          -18 -14 -7 -23 -48 47 -46 78 hvcurveto
          -195 -741 -107 callsubr
          endchar
        </CharString>
        <CharString name="uni1EB5">
          -30 109 761 rmoveto
          -106 callsubr
          138 -187 -93 callgsubr
        </CharString>
        <CharString name="uni1EB6">
          -6 252 755 -101 callsubr
          -202 -757 -107 callsubr
          -63 -454 -105 callsubr
          endchar
        </CharString>
        <CharString name="uni1EB7">
          -30 237 578 -92 callgsubr
          20 -284 -105 callsubr
          endchar
        </CharString>
        <CharString name="uni1EB8">
          -54 98 hmoveto
          -104 callsubr
          145 -194 -105 callsubr
          endchar
        </CharString>
        <CharString name="uni1EB9">
          -57 259 -7 -103 callsubr
          -72 -488 -105 callsubr
          endchar
        </CharString>
        <CharString name="uni1EBA">
          -54 265 745 -98 callgsubr
          -167 -745 rmoveto
          -104 callsubr
          endchar
        </CharString>
        <CharString name="uni1EBB">
          -57 249 568 -98 callgsubr
          10 -575 -103 callsubr
          endchar
        </CharString>
        <CharString name="uni1EBC">
          -54 118 761 rmoveto
          -106 callsubr
          -10 -765 rmoveto
          -104 callsubr
          endchar
        </CharString>
        <CharString name="uni1EBD">
          -57 102 584 rmoveto
          -106 callsubr
          167 -595 -103 callsubr
          endchar
        </CharString>
        <CharString name="uni1EBE">
          -68 342 852 rmoveto
          28 -3 callgsubr
          -10 vhcurveto
          -28 -69 -10 -20 -9 vvcurveto
          -10 6 -3 16 vhcurveto
          -195 -102 -21 callsubr
          17 16 2 15 9 hvcurveto
          26 -25 callgsubr
          16 -6 20 -68 callgsubr
          -24 hhcurveto
          -7 hlineto
          -23 -19 -3 -17 -10 -60 callsubr
          -49 -750 rmoveto
          -104 callsubr
          endchar
        </CharString>
        <CharString name="uni1EBF">
          -71 327 713 rmoveto
          -105 callgsubr
          -196 -140 -76 callgsubr
        </CharString>
        <CharString name="uni1EC0">
          -68 387 -26 callsubr
          9 12 -8 29 hhcurveto
          -240 -102 -21 callsubr
          17 16 2 15 9 hvcurveto
          26 -25 callgsubr
          16 -6 20 -68 callgsubr
          -24 hhcurveto
          -7 hlineto
          -23 -19 -3 -17 -10 -60 callsubr
          -49 -750 rmoveto
          -104 callsubr
          endchar
        </CharString>
        <CharString name="uni1EC1">
          -71 360 713 -100 callgsubr
          -229 -140 -76 callgsubr
        </CharString>
        <CharString name="uni1EC2">
          -68 361 -30 callsubr
          13 14 -7 -14 -14 -12 -7 -19 -10 hvcurveto
          -13 -6 -9 -7 -5 vvcurveto
          -10 17 -11 25 vhcurveto
          -214 -109 -21 callsubr
          17 16 2 15 9 hvcurveto
          26 -25 callgsubr
          16 -6 20 -68 callgsubr
          -24 hhcurveto
          -7 hlineto
          -23 -19 -3 -17 -10 -60 callsubr
          -49 -750 rmoveto
          -104 callsubr
          endchar
        </CharString>
        <CharString name="uni1EC3">
          -71 360 703 -98 callgsubr
          -229 -130 -76 callgsubr
        </CharString>
        <CharString name="uni1EC4">
          -68 126 895 10 callsubr
          25 callsubr
          11 8 3 8 27 49 -33 30 callsubr
          5 5 vvcurveto
          9 -4 8 -13 6 callgsubr
          -3 hhcurveto
          -10 -7 -6 -11 -6 hvcurveto
          -15 -11 -8 -4 -9 -26 -49 33 12 callsubr
          31 -149 -21 callsubr
          23 8 5 12 10 hvcurveto
          28 46 27 -46 rlineto
          -12 9 9 -5 23 hhcurveto
          25 hlineto
          13 7 5 7 3 -4 9 -5 8 hvcurveto
          -48 71 rlineto
          15 -11 -17 callgsubr
          -49 -750 rmoveto
          -104 callsubr
          endchar
        </CharString>
        <CharString name="uni1EC5">
          -71 117 7 callgsubr
          35 hhcurveto
          37 27 28 41 15 hvcurveto
          1 5 2 15 callgsubr
          -10 -6 -6 -11 -7 hvcurveto
          -16 -11 -7 -3 -9 -27 -49 33 -33 -4 callsubr
          24 -175 -21 callsubr
          23 8 5 12 10 hvcurveto
          28 46 27 -46 rlineto
          -12 10 8 -5 23 hhcurveto
          25 hlineto
          13 7 5 7 3 -3 9 -5 8 hvcurveto
          -49 71 rlineto
          15 -11 -14 5 -28 hhcurveto
          -6 hlineto
          -29 -13 -5 -15 -11 hvcurveto
          -49 -71 rlineto
          -5 -8 -3 -9 -3 vvcurveto
          -9 6 -3 14 -69 callsubr
        </CharString>
        <CharString name="uni1EC6">
          -54 148 750 -107 callgsubr
          -50 -750 rmoveto
          -104 callsubr
          145 -194 -105 callsubr
          endchar
        </CharString>
        <CharString name="uni1EC7">
          -57 132 573 -107 callgsubr
          127 -580 -103 callsubr
          -72 -488 -105 callsubr
          endchar
        </CharString>
        <CharString name="uni1EC8">
          -249 149 745 -98 callgsubr
          -34 -748 rmoveto
          -83 callsubr
          endchar
        </CharString>
        <CharString name="uni1EC9">
          -257 146 568 -98 callgsubr
          -29 -570 -73 callgsubr
        </CharString>
        <CharString name="uni1ECA">
          -249 115 -3 rmoveto
          -83 callsubr
          19 -191 -105 callsubr
          endchar
        </CharString>
        <CharString name="uni1ECB">
          -54 callgsubr
          -192 vmoveto
          42 18 -71 callsubr
          56 vlineto
          19 -19 10 -42 -41 -19 -10 -19 vhcurveto
          -56 vlineto
          -19 19 -10 42 vhcurveto
          endchar
        </CharString>
        <CharString name="uni1ECC">
          88 300 -7 -102 callgsubr
          2 -299 -105 callsubr
          endchar
        </CharString>
        <CharString name="uni1ECD">
          -34 239 -7 -100 callsubr
          5 -288 -105 callsubr
          endchar
        </CharString>
        <CharString name="uni1ECE">
          88 318 745 -7 callgsubr
          -752 -102 callgsubr
          endchar
        </CharString>
        <CharString name="uni1ECF">
          -34 257 568 -7 callgsubr
          -575 -100 callsubr
          endchar
        </CharString>
        <CharString name="uni1ED0">
          74 395 852 rmoveto
          28 -23 callgsubr
          6 -3 16 vhcurveto
          -195 -102 -79 callgsubr
          -757 -102 callgsubr
          endchar
        </CharString>
        <CharString name="uni1ED1">
          -48 334 713 rmoveto
          -105 callgsubr
          -195 -140 -79 callgsubr
          -580 -100 callsubr
          endchar
        </CharString>
        <CharString name="uni1ED2">
          74 440 -26 callsubr
          8 13 -8 29 hhcurveto
          -240 -102 -79 callgsubr
          -757 -102 callgsubr
          endchar
        </CharString>
        <CharString name="uni1ED3">
          -48 368 713 -100 callgsubr
          -229 -140 -79 callgsubr
          -580 -100 callsubr
          endchar
        </CharString>
        <CharString name="uni1ED4">
          74 414 -30 callsubr
          14 13 -7 -14 -14 -12 -7 -19 17 callsubr
          16 -11 25 vhcurveto
          -214 -109 -79 callgsubr
          -757 -102 callgsubr
          endchar
        </CharString>
        <CharString name="uni1ED5">
          -48 368 703 -98 callgsubr
          -229 -130 -79 callgsubr
          -580 -100 callsubr
          endchar
        </CharString>
        <CharString name="uni1ED6">
          74 179 895 10 callsubr
          4 12 7 hvcurveto
          16 11 8 4 7 hhcurveto
          -1 28 19 callsubr
          5 vvcurveto
          9 -5 8 -13 5 callgsubr
          -7 hvcurveto
          -17 -10 -8 -3 -8 hhcurveto
          1 -28 -47 32 -34 hhcurveto
          -38 -28 -26 -43 -14 hvcurveto
          -2 -6 -1 -6 -3 vvcurveto
          -8 4 -9 12 -4 vhcurveto
          31 -148 -52 callgsubr
          100 -757 -102 callgsubr
          endchar
        </CharString>
        <CharString name="uni1ED7">
          -48 123 7 callgsubr
          30 callsubr
          -22 callgsubr
          -4 8 -12 4 vhcurveto
          -9 18 callsubr
          -3 hhcurveto
          -10 -6 -6 -11 -7 hvcurveto
          -16 -11 -8 -3 -8 -27 -48 33 -34 -4 callsubr
          26 -175 -52 callgsubr
          100 -580 -100 callsubr
          endchar
        </CharString>
        <CharString name="uni1ED8">
          88 201 750 -30 callgsubr
          -757 -102 callgsubr
          2 -299 -105 callsubr
          endchar
        </CharString>
        <CharString name="uni1ED9">
          -34 140 573 -30 callgsubr
          -580 -100 callsubr
          5 -288 -105 callsubr
          endchar
        </CharString>
        <CharString name="uni1EDA">
          88 284 755 rmoveto
          -105 callgsubr
          16 -762 -88 callgsubr
        </CharString>
        <CharString name="uni1EDB">
          -34 223 578 rmoveto
          -105 callgsubr
          16 -585 -86 callgsubr
        </CharString>
        <CharString name="uni1EDC">
          88 318 755 -100 callgsubr
          -18 -762 -88 callgsubr
        </CharString>
        <CharString name="uni1EDD">
          -34 257 578 -100 callgsubr
          -18 -585 -86 callgsubr
        </CharString>
        <CharString name="uni1EDE">
          88 318 745 -7 callgsubr
          -752 -88 callgsubr
        </CharString>
        <CharString name="uni1EDF">
          -34 257 568 -7 callgsubr
          -575 -86 callgsubr
        </CharString>
        <CharString name="uni1EE0">
          88 171 761 rmoveto
          -106 callsubr
          139 -772 -88 callgsubr
        </CharString>
        <CharString name="uni1EE1">
          -34 110 584 rmoveto
          -106 callsubr
          139 -595 -86 callgsubr
        </CharString>
        <CharString name="uni1EE2">
          88 300 -7 -46 callsubr
          118 -22 87 -41 58 hvcurveto
          67 5 30 36 51 vvcurveto
          -76 callsubr
          -6 vvcurveto
          1 -14 26 -17 -28 vvcurveto
          -18 -10 -14 -27 -12 -11 2 9 -13 vhcurveto
          27 -37 -46 16 -62 hhcurveto
          -165 -93 -108 -248 -249 93 -109 165 hvcurveto
          1 112 rmoveto
          -81 -42 63 183 183 42 61 81 79 42 -61 -183 -183 -42 -63 -79 hvcurveto
          2 -299 -105 callsubr
          endchar
        </CharString>
        <CharString name="uni1EE3">
          -34 239 -7 rmoveto
          131 69 94 174 87 -17 66 -34 46 hvcurveto
          65 6 30 35 51 vvcurveto
          29 -21 51 -25 -5 -5 -1 -4 -5 vhcurveto
          -29 -20 rlineto
          -7 -5 -3 -6 -7 -12 27 -18 -28 vvcurveto
          -18 -13 -14 -25 -15 -15 5 6 -13 vhcurveto
          12 -27 -29 8 -34 hhcurveto
          -132 -68 -95 -174 -173 68 -95 132 hvcurveto
          101 vmoveto
          -37 callsubr
          120 21 47 51 50 21 -47 -120 -120 -21 -48 -50 hvcurveto
          5 -288 -105 callsubr
          endchar
        </CharString>
        <CharString name="uni1EE4">
          72 292 -7 rmoveto
          148 86 77 132 hvcurveto
          471 -29 callsubr
          -30 -99 callgsubr
          vhcurveto
          3 -187 -105 callsubr
          endchar
        </CharString>
        <CharString name="uni1EE5">
          175 -8 -101 callgsubr
          56 -186 -105 callsubr
          endchar
        </CharString>
        <CharString name="uni1EE6">
          72 310 745 -7 callgsubr
          -752 rmoveto
          148 86 77 132 hvcurveto
          471 -29 callsubr
          -30 -99 callgsubr
          vhcurveto
          endchar
        </CharString>
        <CharString name="uni1EE7">
          258 568 -98 callgsubr
          -83 -576 -101 callgsubr
          endchar
        </CharString>
        <CharString name="uni1EE8">
          59 269 755 rmoveto
          -105 callgsubr
          328 hmoveto
          -91 callsubr
          endchar
        </CharString>
        <CharString name="uni1EE9">
          -43 217 578 rmoveto
          -105 callgsubr
          275 -1 -93 callsubr
          endchar
        </CharString>
        <CharString name="uni1EEA">
          59 303 755 -100 callgsubr
          294 hmoveto
          -91 callsubr
          endchar
        </CharString>
        <CharString name="uni1EEB">
          -43 251 578 -100 callgsubr
          241 -1 -93 callsubr
          endchar
        </CharString>
        <CharString name="uni1EEC">
          59 303 745 -98 callgsubr
          294 10 rmoveto
          -91 callsubr
          endchar
        </CharString>
        <CharString name="uni1EED">
          -43 251 568 -98 callgsubr
          241 9 -93 callsubr
          endchar
        </CharString>
        <CharString name="uni1EEE">
          59 156 761 rmoveto
          -106 callsubr
          451 -10 rmoveto
          -91 callsubr
          endchar
        </CharString>
        <CharString name="uni1EEF">
          -43 109 584 10 callsubr
          25 callsubr
          11 8 3 7 hhcurveto
          -1 28 49 -32 34 -7 callsubr
          -8 -28 -48 33 -33 hhcurveto
          -39 -27 -27 -42 -14 hvcurveto
          -3 13 callgsubr
          393 -11 -93 callsubr
          endchar
        </CharString>
        <CharString name="uni1EF0">
          59 597 755 rmoveto
          -91 callsubr
          -309 -949 -105 callsubr
          endchar
        </CharString>
        <CharString name="uni1EF1">
          -43 492 577 -93 callsubr
          -268 -771 -105 callsubr
          endchar
        </CharString>
        <CharString name="uni1EF4">
          -27 227 -2 -89 callgsubr
          19 -192 -105 callsubr
          endchar
        </CharString>
        <CharString name="uni1EF4.loclGUA">
          -13 393 701 -97 callsubr
          -152 -781 -15 callgsubr
        </CharString>
        <CharString name="uni1EF5">
          -106 346 525 -98 callsubr
          -19 -633 -15 callgsubr
        </CharString>
        <CharString name="uni1EF5.loclGUA">
          422 83 -97 callgsubr
          57 -170 -15 callgsubr
        </CharString>
        <CharString name="uni1EF6">
          -27 260 745 -98 callgsubr
          -33 -747 -90 callgsubr
        </CharString>
        <CharString name="uni1EF6.loclGUA">
          -13 206 858 -34 callsubr
          187 -157 -97 callsubr
          endchar
        </CharString>
        <CharString name="uni1EF7">
          -106 163 681 -34 callsubr
          183 -156 -98 callsubr
          endchar
        </CharString>
        <CharString name="uni1EF7.loclGUA">
          200 681 -34 callsubr
          222 -598 -97 callgsubr
          endchar
        </CharString>
        <CharString name="uni1EF8">
          -27 113 761 rmoveto
          -106 callsubr
          124 -767 -90 callgsubr
        </CharString>
        <CharString name="uni1EF8.loclGUA">
          -13 107 765 rmoveto
          10 -4 rlineto
          -106 callsubr
          286 -64 -97 callsubr
          endchar
        </CharString>
        <CharString name="uni1EF9">
          -106 64 588 rmoveto
          10 -4 rlineto
          -106 callsubr
          282 -63 -98 callsubr
          endchar
        </CharString>
        <CharString name="uni1EF9.loclGUA">
          101 588 rmoveto
          10 -4 rlineto
          -106 callsubr
          321 -505 -97 callgsubr
          endchar
        </CharString>
        <CharString name="uni2002">
          -25 endchar
        </CharString>
        <CharString name="uni2003">
          375 endchar
        </CharString>
        <CharString name="uni2004">
          -220 endchar
        </CharString>
        <CharString name="uni2005">
          -290 endchar
        </CharString>
        <CharString name="uni20B2">
          27 455 400 rmoveto
          -167 hlineto
          -17 -13 callsubr
          -26 -48 callsubr
          17 vhcurveto
          71 -174 hlineto
          -4 -18 -18 -2 -22 hhcurveto
          -88 -42 79 165 159 40 81 100 hvcurveto
          70 32 -31 12 hhcurveto
          21 32 55 23 30 -73 32 -80 5 hvcurveto
          32 vlineto
          21 -9 9 -21 -18 -9 -9 -21 vhcurveto
          -33 vlineto
          -158 -15 -76 -116 -225 vvcurveto
          -229 77 -113 157 -13 vhcurveto
          -45 vlineto
          -21 9 -9 21 18 9 9 21 vhcurveto
          45 vlineto
          75 5 89 25 46 vvcurveto
          294 vlineto
          25 -11 11 -23 vhcurveto
          endchar
        </CharString>
        <CharString name="uni2113">
          -168 174 -7 rmoveto
          38 71 13 39 11 -9 52 -18 hvcurveto
          -12 -17 -14 -23 hhcurveto
          -22 -11 13 39 hvcurveto
          144 vlineto
          89 85 62 134 115 vvcurveto
          72 -32 59 -76 -68 -103 -27 -272 vhcurveto
          -171 vlineto
          -52 -37 rlineto
          -11 -8 -5 -11 -11 vvcurveto
          -7 2 -6 3 -6 vhcurveto
          -12 7 8 -6 10 hhcurveto
          5 5 1 4 6 hvcurveto
          22 16 rlineto
          -58 vlineto
          -111 52 -40 79 vhcurveto
          -3 396 rmoveto
          265 29 16 26 20 9 -18 -30 -83 -38 -87 -46 -63 vhcurveto
          endchar
        </CharString>
        <CharString name="uni2126">
          74 -55 callsubr
        </CharString>
        <CharString name="uni2153">
          123 -68 callsubr
          352 -5 -75 callgsubr
          endchar
        </CharString>
        <CharString name="uni2154">
          181 32 296 -59 callsubr
          154 -297 rmoveto
          15 hlineto
          17 13 7 17 7 29 callgsubr
          2 15 callsubr
          -12 vhcurveto
          -15 20 callsubr
          -2 -5 -3 vvcurveto
          -7 6 -3 11 vhcurveto
          353 -5 -75 callgsubr
          endchar
        </CharString>
        <CharString name="uni2206">
          55 -35 callsubr
        </CharString>
        <CharString name="uni2215">
          -290 -13 -20 callgsubr
        </CharString>
        <CharString name="uni2219">
          -286 113 296 rmoveto
          34 25 28 35 36 -25 28 -34 -33 -25 -28 -36 -35 25 -28 33 hvcurveto
          endchar
        </CharString>
        <CharString name="uni25CC">
          -31 240 522 rmoveto
          -14 callgsubr
          -67 -15 rmoveto
          -65 callsubr
          135 -1 rmoveto
          -65 callsubr
          -193 -44 rmoveto
          -65 callsubr
          249 hmoveto
          -65 callsubr
          -284 -68 rmoveto
          -14 callgsubr
          322 hmoveto
          -65 callsubr
          -335 -84 rmoveto
          -65 callsubr
          347 hmoveto
          -14 callgsubr
          -334 -84 rmoveto
          -65 callsubr
          322 hmoveto
          -65 callsubr
          -37 -68 rmoveto
          -65 callsubr
          -249 -1 rmoveto
          -65 callsubr
          192 -45 rmoveto
          -65 callsubr
          -135 -1 rmoveto
          -65 callsubr
          67 -14 rmoveto
          -14 callgsubr
          endchar
        </CharString>
        <CharString name="uogonek">
          491 -84 8 callsubr
          17 4 24 10 23 hvcurveto
          4 3 2 4 4 vvcurveto
          0 0 1 0 vhcurveto
          -1 13 -9 30 91 vvcurveto
          331 vlineto
          -26 callgsubr
          -26 -77 callsubr
          5 8 0 1 10 hvcurveto
          -10 -25 -3 -24 -16 -66 callsubr
          endchar
        </CharString>
        <CharString name="uring">
          238 -11 callsubr
          -64 -616 -101 callgsubr
          endchar
        </CharString>
        <CharString name="utilde">
          111 584 rmoveto
          -106 callsubr
          74 -596 -101 callgsubr
          endchar
        </CharString>
        <CharString name="v">
          -99 180 -2 rmoveto
          52 hlineto
          24 18 5 14 4 hvcurveto
          120 471 rlineto
          2 7 0 5 5 vvcurveto
          13 -14 7 -32 vhcurveto
          -30 hlineto
          -25 -20 -5 -14 -3 hvcurveto
          -47 -246 -7 -42 -5 -51 -7 -46 rlinecurve
          -4 hlineto
          -7 46 -5 51 -8 42 -47 246 rcurveline
          14 -3 -19 5 -25 hhcurveto
          -33 hlineto
          -33 -15 -7 -13 -5 1 -6 1 -6 hvcurveto
          121 -471 rlineto
          -14 4 18 -5 24 hhcurveto
          endchar
        </CharString>
        <CharString name="w">
          105 161 -2 -94 callgsubr
        </CharString>
        <CharString name="wacute">
          105 292 578 rmoveto
          -105 callgsubr
          -131 -580 -94 callgsubr
        </CharString>
        <CharString name="wcircumflex">
          105 209 573 -107 callgsubr
          -48 -575 -94 callgsubr
        </CharString>
        <CharString name="wdieresis">
          105 235 588 -102 callsubr
          -223 -590 -94 callgsubr
        </CharString>
        <CharString name="wgrave">
          105 326 578 -100 callgsubr
          -165 -580 -94 callgsubr
        </CharString>
        <CharString name="x">
          -107 31 hmoveto
          56 hlineto
          25 18 -1 16 6 hvcurveto
          54 147 5 13 3 11 3 11 rlinecurve
          4 -11 3 -11 5 -13 52 -147 rcurveline
          -16 5 20 1 24 hhcurveto
          52 hlineto
          22 10 4 12 5 -4 8 -5 9 hvcurveto
          -121 228 117 218 rlineto
          5 10 3 7 6 vvcurveto
          11 -17 7 -35 vhcurveto
          -28 hlineto
          -24 -20 -1 -17 -6 hvcurveto
          -49 -133 -5 -13 -2 -11 -4 -11 rlinecurve
          -3 11 -3 11 -5 13 -47 133 rcurveline
          17 -6 -20 1 -25 hhcurveto
          -29 hlineto
          -36 -16 -7 -11 -6 3 -7 5 -10 hvcurveto
          115 -218 -122 -228 rlineto
          -5 -9 -3 -8 -5 vvcurveto
          -11 8 -5 17 vhcurveto
          endchar
        </CharString>
        <CharString name="y">
          -106 346 525 -98 callsubr
          endchar
        </CharString>
        <CharString name="y.loclGUA">
          422 83 -97 callgsubr
          endchar
        </CharString>
        <CharString name="yacute">
          -106 187 578 rmoveto
          -105 callgsubr
          159 -53 -98 callsubr
          endchar
        </CharString>
        <CharString name="yacute.loclGUA">
          224 578 rmoveto
          -105 callgsubr
          198 -495 -97 callgsubr
          endchar
        </CharString>
        <CharString name="ycircumflex">
          -106 104 573 -107 callgsubr
          242 -48 -98 callsubr
          endchar
        </CharString>
        <CharString name="ycircumflex.loclGUA">
          141 573 -107 callgsubr
          281 -490 -97 callgsubr
          endchar
        </CharString>
        <CharString name="ydieresis">
          -106 130 588 -102 callsubr
          67 -63 -98 callsubr
          endchar
        </CharString>
        <CharString name="ydieresis.loclGUA">
          167 588 -102 callsubr
          106 -505 -97 callgsubr
          endchar
        </CharString>
        <CharString name="yen">
          -41 476 683 rmoveto
          12 -16 7 -39 vhcurveto
          -32 hlineto
          -25 -20 -3 -14 -5 hvcurveto
          -94 -259 -95 258 rlineto
          15 -5 -19 3 -25 hhcurveto
          -40 hlineto
          -36 -17 -7 -12 -6 3 -5 callgsubr
          hvcurveto
          116 -257 rlineto
          -70 hlineto
          -17 -8 -9 -21 hvcurveto
          -13 vlineto
          -21 8 -9 17 vhcurveto
          103 hlineto
          10 -23 rlineto
          -52 -113 vlineto
          -17 -8 -9 -21 hvcurveto
          -12 vlineto
          -21 8 -9 17 vhcurveto
          113 -156 hlineto
          -10 callsubr
          36 vhcurveto
          -9 callgsubr
          156 101 vlineto
          17 8 9 21 hvcurveto
          12 vlineto
          21 -8 9 -17 vhcurveto
          -101 49 hlineto
          12 26 rlineto
          89 hlineto
          17 8 9 21 hvcurveto
          13 vlineto
          21 -8 9 -17 vhcurveto
          -57 hlineto
          116 257 -14 callsubr
          endchar
        </CharString>
        <CharString name="ygrave">
          -106 221 578 -100 callgsubr
          125 -53 -98 callsubr
          endchar
        </CharString>
        <CharString name="ygrave.loclGUA">
          258 578 -100 callgsubr
          164 -495 -97 callgsubr
          endchar
        </CharString>
        <CharString name="z">
          -106 52 hmoveto
          -96 callsubr
          endchar
        </CharString>
        <CharString name="zacute">
          -106 188 578 rmoveto
          -105 callgsubr
          -136 -578 rmoveto
          -96 callsubr
          endchar
        </CharString>
        <CharString name="zacute.loclPLK">
          -106 189 578 -81 callsubr
          -137 -578 rmoveto
          -96 callsubr
          endchar
        </CharString>
        <CharString name="zcaron">
          -106 200 576 -104 callgsubr
          -148 -576 rmoveto
          -96 callsubr
          endchar
        </CharString>
        <CharString name="zdotaccent">
          -106 205 -80 callsubr
          -153 -588 rmoveto
          -96 callsubr
          endchar
        </CharString>
        <CharString name="zero">
          -52 229 -7 rmoveto
          130 72 122 235 235 -72 122 -130 -130 -71 -122 -235 -235 71 -122 130 hvcurveto
          101 vmoveto
          -44 -27 50 206 206 27 50 44 44 27 -50 -206 -206 -27 -50 -44 hvcurveto
          endchar
        </CharString>
      <CharString index="0">
        -21 callsubr
        20 13 5 13 9 hvcurveto
        32 54 33 -55 rlineto
        -12 6 15 -5 -51 callgsubr
        7 4 8 4 -3 6 -3 7 hvcurveto
        -58 96 rlineto
        16 -10 -17 4 -25 hhcurveto
        -6 hlineto
        -24 -18 -4 -16 -10 hvcurveto
        -56 -96 rlineto
        -4 -7 -3 -7 -4 vvcurveto
        -7 7 -4 13 vhcurveto
        return
      </CharString>
      <CharString index="1">
        rmoveto
        57 38 31 29 20 hvcurveto
        -29 7 6 -25 23 hhcurveto
        21 71 7 22 hvcurveto
        15 -12 28 95 vvcurveto
        199 vlineto
        99 -56 66 -132 -82 -81 -31 -32 -18 28 -52 18 vhcurveto
        13 36 32 60 hhcurveto
        51 19 -27 -41 hvcurveto
        -27 vlineto
        -177 -68 -79 -106 -97 50 -59 90 hvcurveto
        35 97 rmoveto
        -39 -19 26 41 69 51 26 77 hvcurveto
        -121 vlineto
        -25 -16 -25 -16 -29 hhcurveto
        return
      </CharString>
      <CharString index="2">
        41 14 11 12 9 hvcurveto
        78 103 6 4 12 vvcurveto
        10 -16 3 -33 -34 -28 -7 -19 -9 vhcurveto
        -40 -80 -14 -25 -10 vvcurveto
        -10 6 -4 20 vhcurveto
        return
      </CharString>
      <CharString index="3">
        rmoveto
        9 hlineto
        24 16 4 16 10 hvcurveto
        58 96 rlineto
        3 6 3 7 4 vvcurveto
        7 -7 4 -12 vhcurveto
        -25 hlineto
        -21 -15 -5 -12 -6 hvcurveto
        -33 -55 -32 55 rlineto
        12 -9 -13 5 -20 hhcurveto
        -24 hlineto
        -13 -7 -4 -7 -4 3 -7 4 -6 hvcurveto
        56 -96 rlineto
        -16 10 16 -4 25 hhcurveto
        return
      </CharString>
      <CharString index="4">
        -106 callgsubr
        endchar
      </CharString>
      <CharString index="5">
        -46 callsubr
        247 -92 109 -165 -165 -93 -108 -248 -249 93 -109 165 hvcurveto
        1 112 rmoveto
        -81 -42 63 183 183 42 61 81 79 42 -61 -183 -183 -42 -63 -79 hvcurveto
        return
      </CharString>
      <CharString index="6">
        rmoveto
        56 43 34 41 27 hvcurveto
        -35 callgsubr
        18 77 5 25 hvcurveto
        12 -10 30 93 vvcurveto
        331 vlineto
        -26 callgsubr
        -26 hlineto
        -35 -39 callgsubr
        -354 vlineto
        -24 -14 -23 -21 -28 hhcurveto
        -35 -14 22 40 hvcurveto
        337 vlineto
        19 -14 10 -37 -44 callgsubr
        -363 vlineto
        -91 42 -50 79 vhcurveto
        return
      </CharString>
      <CharString index="7">
        rmoveto
        21 5 4 10 10 -12 24 -40 81 hvcurveto
        19 -11 -28 7 -33 hhcurveto
        -33 -17 -3 -10 -12 6 -4 79 -103 hvcurveto
        -11 8 14 -12 41 hhcurveto
        return
      </CharString>
      <CharString index="8">
        hlineto
        -35 -39 callgsubr
        -466 vlineto
        -59 -41 -43 -61 -62 -40 42 60 vhcurveto
        466 vlineto
        19 -15 10 -36 -64 callsubr
        -471 vlineto
        -132 87 -77 148 return
      </CharString>
      <CharString index="9">
        rmoveto
        16 81 49 57 52 -45 25 -59 -35 -44 -18 -13 -14 20 -25 8 hvcurveto
        7 11 12 25 hhcurveto
        17 17 -8 -16 hvcurveto
        -37 -66 -22 -21 vvcurveto
        -9 28 -12 19 vhcurveto
        return
      </CharString>
      <CharString index="10">
        rmoveto
        413 -90 callsubr
        -351 vlineto
        -25 -13 -23 -22 -30 hhcurveto
        -35 -16 23 40 hvcurveto
        335 -90 callsubr
        -350 vlineto
        -101 39 -53 85 57 44 37 44 24 vhcurveto
        -40 vlineto
        -96 -40 -48 -68 vhcurveto
        -70 -44 39 -11 hhcurveto
        -8 -5 -14 -26 -10 2 -14 2 -16 hvcurveto
        -32 7 69 -28 84 hhcurveto
        141 62 93 202 -1 hvcurveto
        return
      </CharString>
      <CharString index="11">
        rmoveto
        140 74 91 115 109 -54 48 -85 47 hvcurveto
        -59 33 -49 21 65 vvcurveto
        39 26 34 59 21 23 -3 -13 31 vhcurveto
        -4 10 8 -3 5 hhcurveto
        21 15 51 25 11 -4 9 -10 7 hvcurveto
        21 -30 -53 13 -45 hhcurveto
        -122 -87 -71 -122 -115 61 -50 92 -49 hvcurveto
        51 -27 45 -25 -62 vvcurveto
        -60 -46 -22 -45 -33 -31 10 18 -29 vhcurveto
        9 -16 -12 8 -9 hhcurveto
        -22 -18 -48 -29 1 hvcurveto
        -13 5 -8 7 -9 vhcurveto
        -33 35 67 -18 62 hhcurveto
        return
      </CharString>
      <CharString index="12">
        rmoveto
        129 75 59 101 89 -59 29 -68 14 hvcurveto
        -60 12 -58 0 44 vvcurveto
        30 23 14 36 1 vhcurveto
        97 4 63 61 106 vvcurveto
        32 -7 28 -12 19 vhcurveto
        2 3 rlineto
        -2 10 17 -1 14 hhcurveto
        16 6 11 27 hvcurveto
        15 vlineto
        27 -7 12 -17 vhcurveto
        -137 hlineto
        5 -19 -20 2 -20 hhcurveto
        -106 -70 -60 -116 -72 27 -50 46 -28 hvcurveto
        -30 -21 -18 -29 -38 vvcurveto
        -31 13 -28 25 -16 vhcurveto
        -2 vlineto
        -49 -25 -28 -40 -56 vvcurveto
        -90 71 -40 115 vhcurveto
        2 479 rmoveto
        -37 -30 16 72 72 30 17 37 38 31 -17 -72 -72 -31 -16 -38 hvcurveto
        9 -387 rmoveto
        -48 -41 14 44 30 17 23 25 14 hvcurveto
        68 -15 65 3 -54 vvcurveto
        -37 -27 -22 -59 vhcurveto
        endchar
      </CharString>
      <CharString index="13">
        rmoveto
        34 hlineto
        25 11 6 13 3 hvcurveto
        62 274 4 19 3 43 3 20 rlinecurve
        4 hlineto
        3 -20 4 -43 4 -19 62 -274 rcurveline
        -13 2 11 -6 27 hhcurveto
        32 hlineto
        24 14 6 13 2 hvcurveto
        105 469 rlineto
        1 6 0 6 4 vvcurveto
        14 -16 9 -37 -38 -20 -6 -13 -2 vhcurveto
        -37 -272 -13 -109 rlineto
        -5 hlineto
        -3 29 -7 50 -6 32 -49 269 rcurveline
        14 -3 -19 6 -25 hhcurveto
        -23 hlineto
        -25 -19 -6 -14 -2 hvcurveto
        -49 -268 -5 -29 -9 -54 -3 -29 rlinecurve
        -5 hlineto
        -13 109 -37 272 rlineto
        13 -1 -20 6 -42 hhcurveto
        -38 -16 -9 -14 -4 1 -7 1 -6 hvcurveto
        106 -468 rlineto
        -13 3 11 -6 25 hhcurveto
        endchar
      </CharString>
      <CharString index="14">
        -92 callgsubr
        endchar
      </CharString>
      <CharString index="15">
        -101 callsubr
        -54 -82 callgsubr
        return
      </CharString>
      <CharString index="16">
        rmoveto
        -10 hlineto
        -42 -4 -15 -32 -8 hvcurveto
        21 -19 -36 31 -50 hhcurveto
        -98 -66 -92 -170 -127 36 -138 120 43 35 22 39 22 hvcurveto
        -23 vlineto
        -105 1 -30 -47 -65 -66 -38 38 -13 hhcurveto
        -8 -6 -10 -25 -13 2 -15 3 -14 hvcurveto
        -33 7 69 -29 84 hhcurveto
        130 56 87 207 hvcurveto
        419 vlineto
        15 -1 -15 9 -33 hhcurveto
        -140 -418 rmoveto
        -55 -11 74 86 113 23 49 53 25 18 -14 -13 13 hvcurveto
        -1 -14 -2 -23 -25 vvcurveto
        -163 vlineto
        -49 -14 -24 -21 -25 hhcurveto
        endchar
      </CharString>
      <CharString index="17">
        -89 callgsubr
        endchar
      </CharString>
      <CharString index="18">
        -10 callgsubr
        277 vlineto
        160 356 -14 callsubr
        12 -16 7 -39 vhcurveto
        -32 hlineto
        -25 -20 -3 -14 -5 hvcurveto
        -94 -259 -95 258 rlineto
        15 -5 -19 3 -25 hhcurveto
        -40 hlineto
        -36 -17 -7 -12 -6 3 -5 callgsubr
        hvcurveto
        159 -353 rlineto
        -280 -23 callsubr
        return
      </CharString>
      <CharString index="19">
        -46 callsubr
        118 -22 87 -41 58 hvcurveto
        67 5 30 36 51 vvcurveto
        -76 callsubr
        -6 vvcurveto
        1 -14 26 -17 -28 vvcurveto
        -18 -10 -14 -27 -12 -11 2 9 -13 vhcurveto
        27 -37 -46 16 -62 hhcurveto
        -63 callgsubr
      </CharString>
      <CharString index="20">
        rmoveto
        27 -50 callgsubr
        247 37 vlineto
        43 16 -15 -45 16 hvcurveto
        55 -192 rlineto
        -17 4 21 -6 27 hhcurveto
        29 hlineto
        37 17 8 15 3 -2 5 -1 5 hvcurveto
        -60 193 -16 50 -23 43 -29 16 rlinecurve
        4 vlineto
        55 29 39 52 88 vvcurveto
        142 -84 48 -117 vhcurveto
        -161 hlineto
        -24 -11 -11 -26 hvcurveto
        -636 -23 callsubr
        79 398 rmoveto
        192 68 vlineto
        40 29 -26 -67 -62 -31 -37 -34 hvcurveto
        return
      </CharString>
      <CharString index="21">
        rmoveto
        131 69 94 174 87 -17 66 -34 46 hvcurveto
        65 6 30 35 51 vvcurveto
        29 -21 51 -25 -5 -5 -1 -4 -5 vhcurveto
        -29 -20 rlineto
        -7 -5 -3 -6 -7 -12 27 -18 -28 vvcurveto
        -18 -13 -14 -25 -15 -15 5 6 -13 vhcurveto
        12 -27 -29 8 -34 hhcurveto
        -58 callsubr
      </CharString>
      <CharString index="22">
        8 -70 callgsubr
        -8 13 return
      </CharString>
      <CharString index="23">
        rmoveto
        64 61 42 110 hvcurveto
        556 -90 callsubr
        -555 vlineto
        -39 -10 -13 -19 vhcurveto
        -15 -10 5 -7 hhcurveto
        -18 -9 -44 -18 -35 38 -9 51 hvcurveto
        endchar
      </CharString>
      <CharString index="24">
        hlineto
        -65 callgsubr
        hvcurveto
        return
      </CharString>
      <CharString index="25">
        -585 -106 callgsubr
        return
      </CharString>
      <CharString index="26">
        rmoveto
        28 59 71 78 22 -12 16 -30 hvcurveto
        -28 callgsubr
        hvcurveto
        -78 -17 -30 -20 vvcurveto
        -14 27 callgsubr
        return
      </CharString>
      <CharString index="27">
        rmoveto
        55 89 28 34 20 -21 48 -19 -4 -5 -4 -4 -8 hvcurveto
        -8 -15 -24 -13 -36 hhcurveto
        -64 -29 47 122 122 33 44 61 33 23 -13 -8 15 hvcurveto
        -4 7 5 -3 4 hhcurveto
        17 23 49 19 33 -69 28 -69 -138 -75 -81 -188 -185 72 -83 139 hvcurveto
        endchar
      </CharString>
      <CharString index="28">
        -74 callgsubr
        100 return
      </CharString>
      <CharString index="29">
        578 -101 callsubr
        return
      </CharString>
      <CharString index="30">
        40 hlineto
        22 18 5 14 3 hvcurveto
        32 137 rlineto
        174 hlineto
        return
      </CharString>
      <CharString index="31">
        -21 callsubr
        17 16 2 15 9 hvcurveto
        26 -25 callgsubr
        15 5 callsubr
        -52 97 rlineto
        17 -9 -18 24 callsubr
        -23 -19 -3 -17 -10 hvcurveto
        -52 -97 rlineto
        -3 -6 -2 -6 -5 vvcurveto
        -7 5 -4 15 -69 callsubr
      </CharString>
      <CharString index="32">
        rmoveto
        71 52 44 79 54 -28 37 -41 15 hvcurveto
        2 vlineto
        32 14 24 29 42 vvcurveto
        63 -43 39 -68 -47 -52 -14 -25 -14 16 -25 10 vhcurveto
        8 13 18 38 hhcurveto
        36 15 -24 -26 -29 -20 -30 -43 hvcurveto
        -17 hlineto
        -11 -5 -7 -18 hvcurveto
        -9 vlineto
        -17 5 -8 11 vhcurveto
        22 hlineto
        46 24 -20 -46 -46 -30 -19 -33 hvcurveto
        -40 -22 23 -10 hhcurveto
        -11 -14 -28 -11 -29 67 -14 45 hvcurveto
        return
      </CharString>
      <CharString index="33">
        -21 callsubr
        17 16 2 15 8 hvcurveto
        27 -25 callgsubr
        15 -6 21 -68 callgsubr
        -25 hhcurveto
        -6 hlineto
        -24 -19 -3 -17 -9 -60 callsubr
        return
      </CharString>
      <CharString index="34">
        -87 callsubr
        endchar
      </CharString>
      <CharString index="35">
        59 35 39 55 55 -35 39 -59 -57 -36 -39 -55 -55 36 -39 57 hvcurveto
        1 53 rmoveto
        -26 -14 14 26 -1 hvcurveto
        26 1 14 16 26 hhcurveto
        25 15 -16 -26 -26 -15 -14 -25 hvcurveto
        return
      </CharString>
      <CharString index="36">
        -24 50 7 -30 vvcurveto
        -15 -12 -6 -14 vhcurveto
        -29 -20 21 -17 hhcurveto
        -10 -17 -15 -21 -27 50 -22 51 58 44 25 62 48 -33 20 -34 4 hvcurveto
        return
      </CharString>
      <CharString index="37">
        -53 callgsubr
        -37 callgsubr
        return
      </CharString>
      <CharString index="38">
        hlineto
        36 -54 callsubr
        return
      </CharString>
</ttFont>
